<svg version="1.1" xmlns="http://www.w3.org/2000/svg" xmlns:xlink="http://www.w3.org/1999/xlink" width="802.00004" height="585.74569" viewBox="0,0,802.00004,585.74569"><g transform="translate(124.21512,117.49563)"><g data-paper-data="{&quot;isPaintingLayer&quot;:true}" fill-rule="nonzero" stroke="none" stroke-linecap="butt" stroke-linejoin="miter" stroke-miterlimit="10" stroke-dasharray="" stroke-dashoffset="0" style="mix-blend-mode: normal"><path d="M-122.21515,446.25009l15,-148c0,0 25.18847,-69.7037 90.38647,-56.88054c53.01665,10.42732 40.65196,28.88054 82.61353,28.88054c6.74024,0 19.3989,10.05659 24.13738,21.31951c18.61719,44.25126 16.03026,153.43349 16.03026,154.68049z" data-paper-data="{&quot;index&quot;:null}" fill="#ceb184" stroke-width="0"/><path d="M-122.21512,453.25009l15,-148c0,0 25.18847,-69.7037 90.38647,-56.88054c53.01665,10.42732 40.65196,28.88054 82.61353,28.88054c4.80015,0 11.84298,6.57893 15.24713,12.7073c20.15618,36.28657 14.92051,161.95434 14.92051,163.29269z" data-paper-data="{&quot;index&quot;:null}" fill="#e2c291" stroke-width="0"/><path d="" data-paper-data="{&quot;index&quot;:null}" fill="#ceb184" stroke-width="0"/><path d="" data-paper-data="{&quot;index&quot;:null}" fill="#e2c291" stroke-width="0"/><path d="" data-paper-data="{&quot;index&quot;:null}" fill="#bfa47a" stroke-width="0.5"/><path d="" data-paper-data="{&quot;index&quot;:null}" fill="#bfa47a" stroke-width="0.5"/><path d="" data-paper-data="{&quot;index&quot;:null}" fill="#bfa47a" stroke-width="0.5"/><path d="" data-paper-data="{&quot;index&quot;:null}" fill="#bfa47a" stroke-width="0.5"/><path d="" data-paper-data="{&quot;index&quot;:null}" fill="#bfa47a" stroke-width="0.5"/><path d="" data-paper-data="{&quot;index&quot;:null}" fill="#bfa47a" stroke-width="0.5"/><path d="" data-paper-data="{&quot;index&quot;:null}" fill="#bfa47a" stroke-width="0.5"/><path d="" data-paper-data="{&quot;index&quot;:null}" fill="#bfa47a" stroke-width="0.5"/><path d="" data-paper-data="{&quot;index&quot;:null}" fill="#bfa47a" stroke-width="0.5"/><path d="" data-paper-data="{&quot;index&quot;:null}" fill="#bfa47a" stroke-width="0.5"/><path d="" data-paper-data="{&quot;index&quot;:null}" fill="#bfa47a" stroke-width="0.5"/><path d="" data-paper-data="{&quot;index&quot;:null}" fill="#bfa47a" stroke-width="0.5"/><path d="" data-paper-data="{&quot;index&quot;:null}" fill="#bfa47a" stroke-width="0.5"/><path d="" data-paper-data="{&quot;index&quot;:null}" fill="#bfa47a" stroke-width="0.5"/><path d="" data-paper-data="{&quot;index&quot;:null}" fill="#bfa47a" stroke-width="0.5"/><path d="" data-paper-data="{&quot;index&quot;:null}" fill="#bfa47a" stroke-width="0.5"/><path d="" data-paper-data="{&quot;index&quot;:null}" fill="#bfa47a" stroke-width="0.5"/><path d="" data-paper-data="{&quot;index&quot;:null}" fill="#bfa47a" stroke-width="0.5"/><path d="" data-paper-data="{&quot;index&quot;:null}" fill="#bfa47a" stroke-width="0.5"/><path d="" data-paper-data="{&quot;index&quot;:null}" fill="#bfa47a" stroke-width="0.5"/><path d="" data-paper-data="{&quot;index&quot;:null}" fill="#bfa47a" stroke-width="0.5"/><path d="" data-paper-data="{&quot;index&quot;:null}" fill="#bfa47a" stroke-width="0.5"/><path d="" data-paper-data="{&quot;index&quot;:null}" fill="#bfa47a" stroke-width="0.5"/><path d="" data-paper-data="{&quot;index&quot;:null}" fill="#bfa47a" stroke-width="0.5"/><path d="" data-paper-data="{&quot;index&quot;:null}" fill="#bfa47a" stroke-width="0.5"/><path d="" data-paper-data="{&quot;index&quot;:null}" fill="#bfa47a" stroke-width="0.5"/><path d="" data-paper-data="{&quot;index&quot;:null}" fill="#bfa47a" stroke-width="0.5"/><path d="" data-paper-data="{&quot;index&quot;:null}" fill="#bfa47a" stroke-width="0.5"/><path d="" data-paper-data="{&quot;index&quot;:null}" fill="#bfa47a" stroke-width="0.5"/><path d="" data-paper-data="{&quot;index&quot;:null}" fill="#bfa47a" stroke-width="0.5"/><path d="" data-paper-data="{&quot;index&quot;:null}" fill="#bfa47a" stroke-width="0.5"/><path d="" data-paper-data="{&quot;index&quot;:null}" fill="#bfa47a" stroke-width="0.5"/><path d="" data-paper-data="{&quot;index&quot;:null}" fill="#bfa47a" stroke-width="0.5"/><path d="" data-paper-data="{&quot;index&quot;:null}" fill="#bfa47a" stroke-width="0.5"/><path d="" data-paper-data="{&quot;index&quot;:null}" fill="#bfa47a" stroke-width="0.5"/><path d="" data-paper-data="{&quot;index&quot;:null}" fill="#bfa47a" stroke-width="0.5"/><path d="" data-paper-data="{&quot;index&quot;:null}" fill="#bfa47a" stroke-width="0.5"/><path d="" data-paper-data="{&quot;index&quot;:null}" fill="#bfa47a" stroke-width="0.5"/><path d="" data-paper-data="{&quot;index&quot;:null}" fill="#bfa47a" stroke-width="0.5"/><path d="M-124.21512,463.25007l15,-148c0,0 25.18847,-69.7037 90.38647,-56.88054c53.01665,10.42732 40.65196,28.88054 82.61353,28.88054c33.22222,0 15.18755,116.48433 30.55666,168.6405c-0.38903,1.51819 -0.38903,2.66631 -0.38903,2.66631c0,1.5644 0,3.12879 0,4.69319z" data-paper-data="{&quot;index&quot;:null}" fill="#ffdaa2" stroke-width="0"/><path d="M-79.29751,331.55685c0,-1.79493 1.45507,-3.25 3.25,-3.25c1.79493,0 3.25,1.45507 3.25,3.25c0,1.79493 -1.45507,3.25 -3.25,3.25c-1.79493,0 -3.25,-1.45507 -3.25,-3.25z" data-paper-data="{&quot;index&quot;:null}" fill="#bfa47a" stroke-width="0.5"/><path d="M0.70249,340.55686c0,-1.79493 1.45507,-3.25 3.25,-3.25c1.79493,0 3.25,1.45507 3.25,3.25c0,1.79493 -1.45507,3.25 -3.25,3.25c-1.79493,0 -3.25,-1.45507 -3.25,-3.25z" data-paper-data="{&quot;index&quot;:null}" fill="#bfa47a" stroke-width="0.5"/><path d="M45.70249,324.55686c0,-1.79493 1.45507,-3.25 3.25,-3.25c1.79493,0 3.25,1.45507 3.25,3.25c0,1.79493 -1.45507,3.25 -3.25,3.25c-1.79493,0 -3.25,-1.45507 -3.25,-3.25z" data-paper-data="{&quot;index&quot;:null}" fill="#bfa47a" stroke-width="0.5"/><path d="M-5.29751,377.55686c0,-1.79493 1.45507,-3.25 3.25,-3.25c1.79493,0 3.25,1.45507 3.25,3.25c0,1.79493 -1.45507,3.25 -3.25,3.25c-1.79493,0 -3.25,-1.45507 -3.25,-3.25z" data-paper-data="{&quot;index&quot;:null}" fill="#bfa47a" stroke-width="0.5"/><path d="M-76.29751,371.55686c0,-1.79493 1.45507,-3.25 3.25,-3.25c1.79493,0 3.25,1.45507 3.25,3.25c0,1.79493 -1.45507,3.25 -3.25,3.25c-1.79493,0 -3.25,-1.45507 -3.25,-3.25z" data-paper-data="{&quot;index&quot;:null}" fill="#bfa47a" stroke-width="0.5"/><path d="M-71.29751,419.55686c0,-1.79493 1.45507,-3.25 3.25,-3.25c1.79493,0 3.25,1.45507 3.25,3.25c0,1.79493 -1.45507,3.25 -3.25,3.25c-1.79493,0 -3.25,-1.45507 -3.25,-3.25z" data-paper-data="{&quot;index&quot;:null}" fill="#bfa47a" stroke-width="0.5"/><path d="M1.70249,417.55686c0,-1.79493 1.45507,-3.25 3.25,-3.25c1.79493,0 3.25,1.45507 3.25,3.25c0,1.79493 -1.45507,3.25 -3.25,3.25c-1.79493,0 -3.25,-1.45507 -3.25,-3.25z" data-paper-data="{&quot;index&quot;:null}" fill="#bfa47a" stroke-width="0.5"/><path d="M16.70249,447.55686c0,-1.79493 1.45507,-3.25 3.25,-3.25c1.79493,0 3.25,1.45507 3.25,3.25c0,1.79493 -1.45507,3.25 -3.25,3.25c-1.79493,0 -3.25,-1.45507 -3.25,-3.25z" data-paper-data="{&quot;index&quot;:null}" fill="#bfa47a" stroke-width="0.5"/><path d="M44.70249,433.55686c0,-1.79493 1.45507,-3.25 3.25,-3.25c1.79493,0 3.25,1.45507 3.25,3.25c0,1.79493 -1.45507,3.25 -3.25,3.25c-1.79493,0 -3.25,-1.45507 -3.25,-3.25z" data-paper-data="{&quot;index&quot;:null}" fill="#bfa47a" stroke-width="0.5"/><path d="M35.70249,382.55686c0,-1.79493 1.45507,-3.25 3.25,-3.25c1.79493,0 3.25,1.45507 3.25,3.25c0,1.79493 -1.45507,3.25 -3.25,3.25c-1.79493,0 -3.25,-1.45507 -3.25,-3.25z" data-paper-data="{&quot;index&quot;:null}" fill="#bfa47a" stroke-width="0.5"/><path d="M60.70249,375.55686c0,-1.79493 1.45507,-3.25 3.25,-3.25c1.79493,0 3.25,1.45507 3.25,3.25c0,1.79493 -1.45507,3.25 -3.25,3.25c-1.79493,0 -3.25,-1.45507 -3.25,-3.25z" data-paper-data="{&quot;index&quot;:null}" fill="#bfa47a" stroke-width="0.5"/><path d="M56.70249,355.55686c0,-1.79493 1.45507,-3.25 3.25,-3.25c1.79493,0 3.25,1.45507 3.25,3.25c0,1.79493 -1.45507,3.25 -3.25,3.25c-1.79493,0 -3.25,-1.45507 -3.25,-3.25z" data-paper-data="{&quot;index&quot;:null}" fill="#bfa47a" stroke-width="0.5"/><path d="M-33.29751,355.55686c0,-1.79493 1.45507,-3.25 3.25,-3.25c1.79493,0 3.25,1.45507 3.25,3.25c0,1.79493 -1.45507,3.25 -3.25,3.25c-1.79493,0 -3.25,-1.45507 -3.25,-3.25z" data-paper-data="{&quot;index&quot;:null}" fill="#bfa47a" stroke-width="0.5"/><path d="M-44.29751,420.55686c0,-1.79493 1.45507,-3.25 3.25,-3.25c1.79493,0 3.25,1.45507 3.25,3.25c0,1.79493 -1.45507,3.25 -3.25,3.25c-1.79493,0 -3.25,-1.45507 -3.25,-3.25z" data-paper-data="{&quot;index&quot;:null}" fill="#bfa47a" stroke-width="0.5"/><path d="M-26.29751,451.55686c0,-1.79493 1.45507,-3.25 3.25,-3.25c1.79493,0 3.25,1.45507 3.25,3.25c0,1.79493 -1.45507,3.25 -3.25,3.25c-1.79493,0 -3.25,-1.45507 -3.25,-3.25z" data-paper-data="{&quot;index&quot;:null}" fill="#bfa47a" stroke-width="0.5"/><path d="M15.6173,307.80684c-1.79493,0 -3.25,-1.45507 -3.25,-3.25c0,-1.79493 1.45507,-3.25 3.25,-3.25c1.79493,0 3.25,1.45507 3.25,3.25c0,1.79493 -1.45507,3.25 -3.25,3.25z" data-paper-data="{&quot;index&quot;:null}" fill="#bfa47a" stroke-width="0.5"/><path d="M-52.3827,313.80684c-1.79493,0 -3.25,-1.45507 -3.25,-3.25c0,-1.79493 1.45507,-3.25 3.25,-3.25c1.79493,0 3.25,1.45507 3.25,3.25c0,1.79493 -1.45507,3.25 -3.25,3.25z" data-paper-data="{&quot;index&quot;:null}" fill="#bfa47a" stroke-width="0.5"/><path d="M-18.3827,281.80684c-1.79493,0 -3.25,-1.45507 -3.25,-3.25c0,-1.79493 1.45507,-3.25 3.25,-3.25c1.79493,0 3.25,1.45507 3.25,3.25c0,1.79493 -1.45507,3.25 -3.25,3.25z" data-paper-data="{&quot;index&quot;:null}" fill="#bfa47a" stroke-width="0.5"/><path d="M56.6173,297.80684c-1.79493,0 -3.25,-1.45507 -3.25,-3.25c0,-1.79493 1.45507,-3.25 3.25,-3.25c1.79493,0 3.25,1.45507 3.25,3.25c0,1.79493 -1.45507,3.25 -3.25,3.25z" data-paper-data="{&quot;index&quot;:null}" fill="#bfa47a" stroke-width="0.5"/><path d="M72.6173,409.80684c-1.79493,0 -3.25,-1.45507 -3.25,-3.25c0,-1.79493 1.45507,-3.25 3.25,-3.25c1.79493,0 3.25,1.45507 3.25,3.25c0,1.79493 -1.45507,3.25 -3.25,3.25z" data-paper-data="{&quot;index&quot;:null}" fill="#bfa47a" stroke-width="0.5"/><path d="M31.6173,291.80684c-1.79493,0 -3.25,-1.45507 -3.25,-3.25c0,-1.79493 1.45507,-3.25 3.25,-3.25c1.79493,0 3.25,1.45507 3.25,3.25c0,1.79493 -1.45507,3.25 -3.25,3.25z" data-paper-data="{&quot;index&quot;:null}" fill="#bfa47a" stroke-width="0.5"/><path d="M28.6173,352.80684c-1.79493,0 -3.25,-1.45507 -3.25,-3.25c0,-1.79493 1.45507,-3.25 3.25,-3.25c1.79493,0 3.25,1.45507 3.25,3.25c0,1.79493 -1.45507,3.25 -3.25,3.25z" data-paper-data="{&quot;index&quot;:null}" fill="#bfa47a" stroke-width="0.5"/><path d="M80.6173,327.80684c-1.79493,0 -3.25,-1.45507 -3.25,-3.25c0,-1.79493 1.45507,-3.25 3.25,-3.25c1.79493,0 3.25,1.45507 3.25,3.25c0,1.79493 -1.45507,3.25 -3.25,3.25z" data-paper-data="{&quot;index&quot;:null}" fill="#bfa47a" stroke-width="0.5"/><g data-paper-data="{&quot;index&quot;:null}"><path d="M400.15363,292.72749c1.1956,-22.43422 32.33384,-24.56095 45.49592,-17.92885c59.09327,29.77587 132.13538,-23.54856 132.13538,-23.54856l100,199h-258.89577c0.03245,-0.5555 0.05478,-1.119 0.0634,-1.69319c0.02002,-1.33319 -16.41359,-2.80255 -17,-4z" data-paper-data="{&quot;index&quot;:null}" fill="#ceb184" stroke-width="0"/><path d="M406.15363,300.72749c1.1956,-22.43422 24.33384,-24.56095 37.49592,-17.92885c59.09327,29.77587 132.13538,-23.54856 132.13538,-23.54856l100,199c0,0 -270.9862,-11.70468 -271.272,-12.63469c8.71663,-43.47222 1.6407,-144.8879 1.6407,-144.8879z" data-paper-data="{&quot;index&quot;:null}" fill="#e2c291" stroke-width="0"/><path d="M415.15363,310.72747c1.1956,-22.43422 15.33384,-24.56095 28.49592,-17.92885c59.09327,29.77587 132.13538,-23.54856 132.13538,-23.54856l100,199h-258.89577c0.03245,-0.5555 0.05478,-1.11899 0.0634,-1.69319c0.02001,-1.33318 0.58641,-2.80254 0,-4v-4c0,-1.02371 -0.15383,-2.0115 -0.43963,-2.9415c8.71662,-43.47222 -3.25067,-109.39826 -1.35931,-144.8879z" data-paper-data="{&quot;index&quot;:null}" fill="#ffdaa2" stroke-width="0"/><path d="M446.70253,446.55686c0,-1.79493 1.45507,-3.25 3.25,-3.25c1.79493,0 3.25,1.45507 3.25,3.25c0,1.79493 -1.45507,3.25 -3.25,3.25c-1.79493,0 -3.25,-1.45507 -3.25,-3.25z" data-paper-data="{&quot;index&quot;:null}" fill="#bfa47a" stroke-width="0.5"/><path d="M442.70253,406.55686c0,-1.79493 1.45507,-3.25 3.25,-3.25c1.79493,0 3.25,1.45507 3.25,3.25c0,1.79493 -1.45507,3.25 -3.25,3.25c-1.79493,0 -3.25,-1.45507 -3.25,-3.25z" data-paper-data="{&quot;index&quot;:null}" fill="#bfa47a" stroke-width="0.5"/><path d="M490.70253,407.55686c0,-1.79493 1.45507,-3.25 3.25,-3.25c1.79493,0 3.25,1.45507 3.25,3.25c0,1.79493 -1.45507,3.25 -3.25,3.25c-1.79493,0 -3.25,-1.45507 -3.25,-3.25z" data-paper-data="{&quot;index&quot;:null}" fill="#bfa47a" stroke-width="0.5"/><path d="M498.70253,360.55686c0,-1.79493 1.45507,-3.25 3.25,-3.25c1.79493,0 3.25,1.45507 3.25,3.25c0,1.79493 -1.45507,3.25 -3.25,3.25c-1.79493,0 -3.25,-1.45507 -3.25,-3.25z" data-paper-data="{&quot;index&quot;:null}" fill="#bfa47a" stroke-width="0.5"/><path d="M447.70253,359.55686c0,-1.79493 1.45507,-3.25 3.25,-3.25c1.79493,0 3.25,1.45507 3.25,3.25c0,1.79493 -1.45507,3.25 -3.25,3.25c-1.79493,0 -3.25,-1.45507 -3.25,-3.25z" data-paper-data="{&quot;index&quot;:null}" fill="#bfa47a" stroke-width="0.5"/><path d="M431.70253,316.55686c0,-1.79493 1.45507,-3.25 3.25,-3.25c1.79493,0 3.25,1.45507 3.25,3.25c0,1.79493 -1.45507,3.25 -3.25,3.25c-1.79493,0 -3.25,-1.45507 -3.25,-3.25z" data-paper-data="{&quot;index&quot;:null}" fill="#bfa47a" stroke-width="0.5"/><path d="M482.70253,315.55686c0,-1.79493 1.45507,-3.25 3.25,-3.25c1.79493,0 3.25,1.45507 3.25,3.25c0,1.79493 -1.45507,3.25 -3.25,3.25c-1.79493,0 -3.25,-1.45507 -3.25,-3.25z" data-paper-data="{&quot;index&quot;:null}" fill="#bfa47a" stroke-width="0.5"/><path d="M464.70253,380.55686c0,-1.79493 1.45507,-3.25 3.25,-3.25c1.79493,0 3.25,1.45507 3.25,3.25c0,1.79493 -1.45507,3.25 -3.25,3.25c-1.79493,0 -3.25,-1.45507 -3.25,-3.25z" data-paper-data="{&quot;index&quot;:null}" fill="#bfa47a" stroke-width="0.5"/><path d="M524.70251,320.55686c0,-1.79493 1.45507,-3.25 3.25,-3.25c1.79493,0 3.25,1.45507 3.25,3.25c0,1.79493 -1.45507,3.25 -3.25,3.25c-1.79493,0 -3.25,-1.45507 -3.25,-3.25z" data-paper-data="{&quot;index&quot;:null}" fill="#bfa47a" stroke-width="0.5"/><path d="M561.70251,331.55685c0,-1.79493 1.45507,-3.25 3.25,-3.25c1.79493,0 3.25,1.45507 3.25,3.25c0,1.79493 -1.45507,3.25 -3.25,3.25c-1.79493,0 -3.25,-1.45507 -3.25,-3.25z" data-paper-data="{&quot;index&quot;:null}" fill="#bfa47a" stroke-width="0.5"/><path d="M520.70251,375.55686c0,-1.79493 1.45507,-3.25 3.25,-3.25c1.79493,0 3.25,1.45507 3.25,3.25c0,1.79493 -1.45507,3.25 -3.25,3.25c-1.79493,0 -3.25,-1.45507 -3.25,-3.25z" data-paper-data="{&quot;index&quot;:null}" fill="#bfa47a" stroke-width="0.5"/><path d="M559.70251,453.55686c0,-1.79493 1.45507,-3.25 3.25,-3.25c1.79493,0 3.25,1.45507 3.25,3.25c0,1.79493 -1.45507,3.25 -3.25,3.25c-1.79493,0 -3.25,-1.45507 -3.25,-3.25z" data-paper-data="{&quot;index&quot;:null}" fill="#bfa47a" stroke-width="0.5"/><path d="M584.70251,387.55686c0,-1.79493 1.45507,-3.25 3.25,-3.25c1.79493,0 3.25,1.45507 3.25,3.25c0,1.79493 -1.45507,3.25 -3.25,3.25c-1.79493,0 -3.25,-1.45507 -3.25,-3.25z" data-paper-data="{&quot;index&quot;:null}" fill="#bfa47a" stroke-width="0.5"/><path d="M516.70251,418.55686c0,-1.79493 1.45507,-3.25 3.25,-3.25c1.79493,0 3.25,1.45507 3.25,3.25c0,1.79493 -1.45507,3.25 -3.25,3.25c-1.79493,0 -3.25,-1.45507 -3.25,-3.25z" data-paper-data="{&quot;index&quot;:null}" fill="#bfa47a" stroke-width="0.5"/><path d="M497.70253,453.55686c0,-1.79493 1.45507,-3.25 3.25,-3.25c1.79493,0 3.25,1.45507 3.25,3.25c0,1.79493 -1.45507,3.25 -3.25,3.25c-1.79493,0 -3.25,-1.45507 -3.25,-3.25z" data-paper-data="{&quot;index&quot;:null}" fill="#bfa47a" stroke-width="0.5"/><path d="M555.70251,406.55686c0,-1.79493 1.45507,-3.25 3.25,-3.25c1.79493,0 3.25,1.45507 3.25,3.25c0,1.79493 -1.45507,3.25 -3.25,3.25c-1.79493,0 -3.25,-1.45507 -3.25,-3.25z" data-paper-data="{&quot;index&quot;:null}" fill="#bfa47a" stroke-width="0.5"/><path d="M555.70251,356.55686c0,-1.79493 1.45507,-3.25 3.25,-3.25c1.79493,0 3.25,1.45507 3.25,3.25c0,1.79493 -1.45507,3.25 -3.25,3.25c-1.79493,0 -3.25,-1.45507 -3.25,-3.25z" data-paper-data="{&quot;index&quot;:null}" fill="#bfa47a" stroke-width="0.5"/><path d="M586.70251,326.55686c0,-1.79493 1.45507,-3.25 3.25,-3.25c1.79493,0 3.25,1.45507 3.25,3.25c0,1.79493 -1.45507,3.25 -3.25,3.25c-1.79493,0 -3.25,-1.45507 -3.25,-3.25z" data-paper-data="{&quot;index&quot;:null}" fill="#bfa47a" stroke-width="0.5"/><path d="M547.70251,300.55686c0,-1.79493 1.45507,-3.25 3.25,-3.25c1.79493,0 3.25,1.45507 3.25,3.25c0,1.79493 -1.45507,3.25 -3.25,3.25c-1.79493,0 -3.25,-1.45507 -3.25,-3.25z" data-paper-data="{&quot;index&quot;:null}" fill="#bfa47a" stroke-width="0.5"/></g><g><path d="M579.27437,-94.93882l-30,135c0,0 -63.24792,19.27354 -111.86064,12.42327c-41.19551,-5.80507 -120.3659,0.9643 -198.79515,-1.4549c-48.92859,-1.50923 -95.12553,-13.92426 -139.13288,-12.70193c-76.444,2.12327 -134.21134,14.73356 -134.21134,14.73356l-15,-148z" data-paper-data="{&quot;index&quot;:null}" fill="#ceb184" stroke-width="0"/><path d="M581.27437,-103.93882l-30,135c0,0 -63.24792,19.27354 -111.86064,12.42327c-41.19551,-5.80507 -120.3659,0.9643 -198.79515,-1.4549c-48.92859,-1.50923 -95.12553,-13.92426 -139.13288,-12.70193c-76.444,2.12327 -134.21134,14.73356 -134.21134,14.73356l-15,-148z" data-paper-data="{&quot;index&quot;:null}" fill="#e2c291" stroke-width="0"/><path d="M581.27437,-111.93881l-30,135c0,0 -63.24792,19.27354 -111.86064,12.42327c-41.19551,-5.80507 -120.3659,0.96429 -198.79515,-1.45491c-48.9286,-1.50923 -95.12554,-13.92426 -139.13288,-12.70193c-76.44398,2.12328 -134.21133,14.73357 -134.21133,14.73357l-15,-148z" data-paper-data="{&quot;index&quot;:null}" fill="#ffdaa2" stroke-width="0"/><path d="M-6.55801,-8.49563c1.79493,0 3.25,1.45507 3.25,3.25c0,1.79493 -1.45507,3.25 -3.25,3.25c-1.79493,0 -3.25,-1.45507 -3.25,-3.25c0,-1.79493 1.45507,-3.25 3.25,-3.25z" data-paper-data="{&quot;index&quot;:null}" fill="#bfa47a" stroke-width="0.5"/><path d="M8.44199,-50.49563c1.79493,0 3.25,1.45507 3.25,3.25c0,1.79493 -1.45507,3.25 -3.25,3.25c-1.79493,0 -3.25,-1.45507 -3.25,-3.25c0,-1.79493 1.45507,-3.25 3.25,-3.25z" data-paper-data="{&quot;index&quot;:null}" fill="#bfa47a" stroke-width="0.5"/><path d="M45.44199,-25.49563c1.79493,0 3.25,1.45507 3.25,3.25c0,1.79493 -1.45507,3.25 -3.25,3.25c-1.79493,0 -3.25,-1.45507 -3.25,-3.25c0,-1.79493 1.45507,-3.25 3.25,-3.25z" data-paper-data="{&quot;index&quot;:null}" fill="#bfa47a" stroke-width="0.5"/><path d="M82.44199,-66.49563c1.79493,0 3.25,1.45507 3.25,3.25c0,1.79493 -1.45507,3.25 -3.25,3.25c-1.79493,0 -3.25,-1.45507 -3.25,-3.25c0,-1.79493 1.45507,-3.25 3.25,-3.25z" data-paper-data="{&quot;index&quot;:null}" fill="#bfa47a" stroke-width="0.5"/><path d="M-9.55801,-117.49563c1.79493,0 3.25,1.45507 3.25,3.25c0,1.79493 -1.45507,3.25 -3.25,3.25c-1.79493,0 -3.25,-1.45507 -3.25,-3.25c0,-1.79493 1.45507,-3.25 3.25,-3.25z" data-paper-data="{&quot;index&quot;:null}" fill="#bfa47a" stroke-width="0.5"/><path d="M100.44199,-23.49563c1.79493,0 3.25,1.45507 3.25,3.25c0,1.79493 -1.45507,3.25 -3.25,3.25c-1.79493,0 -3.25,-1.45507 -3.25,-3.25c0,-1.79493 1.45507,-3.25 3.25,-3.25z" data-paper-data="{&quot;index&quot;:null}" fill="#bfa47a" stroke-width="0.5"/><path d="M79.44199,6.50437c1.79493,0 3.25,1.45507 3.25,3.25c0,1.79493 -1.45507,3.25 -3.25,3.25c-1.79493,0 -3.25,-1.45507 -3.25,-3.25c0,-1.79493 1.45507,-3.25 3.25,-3.25z" data-paper-data="{&quot;index&quot;:null}" fill="#bfa47a" stroke-width="0.5"/><path d="M51.44199,-67.49563c1.79493,0 3.25,1.45507 3.25,3.25c0,1.79493 -1.45507,3.25 -3.25,3.25c-1.79493,0 -3.25,-1.45507 -3.25,-3.25c0,-1.79493 1.45507,-3.25 3.25,-3.25z" data-paper-data="{&quot;index&quot;:null}" fill="#bfa47a" stroke-width="0.5"/><path d="M28.44199,11.50437c1.79493,0 3.25,1.45507 3.25,3.25c0,1.79493 -1.45507,3.25 -3.25,3.25c-1.79493,0 -3.25,-1.45507 -3.25,-3.25c0,-1.79493 1.45507,-3.25 3.25,-3.25z" data-paper-data="{&quot;index&quot;:null}" fill="#bfa47a" stroke-width="0.5"/><path d="M133.44198,-86.49563c1.79493,0 3.25,1.45507 3.25,3.25c0,1.79493 -1.45507,3.25 -3.25,3.25c-1.79493,0 -3.25,-1.45507 -3.25,-3.25c0,-1.79493 1.45507,-3.25 3.25,-3.25z" data-paper-data="{&quot;index&quot;:null}" fill="#bfa47a" stroke-width="0.5"/><path d="M154.44198,-60.49563c1.79493,0 3.25,1.45507 3.25,3.25c0,1.79493 -1.45507,3.25 -3.25,3.25c-1.79493,0 -3.25,-1.45507 -3.25,-3.25c0,-1.79493 1.45507,-3.25 3.25,-3.25z" data-paper-data="{&quot;index&quot;:null}" fill="#bfa47a" stroke-width="0.5"/><path d="M122.44197,-38.49563c1.79493,0 3.25,1.45507 3.25,3.25c0,1.79493 -1.45507,3.25 -3.25,3.25c-1.79493,0 -3.25,-1.45507 -3.25,-3.25c0,-1.79493 1.45507,-3.25 3.25,-3.25z" data-paper-data="{&quot;index&quot;:null}" fill="#bfa47a" stroke-width="0.5"/><path d="M165.44198,-9.49563c1.79493,0 3.25,1.45507 3.25,3.25c0,1.79493 -1.45507,3.25 -3.25,3.25c-1.79493,0 -3.25,-1.45507 -3.25,-3.25c0,-1.79493 1.45507,-3.25 3.25,-3.25z" data-paper-data="{&quot;index&quot;:null}" fill="#bfa47a" stroke-width="0.5"/><path d="M212.44199,-22.49563c1.79493,0 3.25,1.45507 3.25,3.25c0,1.79493 -1.45507,3.25 -3.25,3.25c-1.79493,0 -3.25,-1.45507 -3.25,-3.25c0,-1.79493 1.45507,-3.25 3.25,-3.25z" data-paper-data="{&quot;index&quot;:null}" fill="#bfa47a" stroke-width="0.5"/><path d="M129.44198,5.50437c1.79493,0 3.25,1.45507 3.25,3.25c0,1.79493 -1.45507,3.25 -3.25,3.25c-1.79493,0 -3.25,-1.45507 -3.25,-3.25c0,-1.79493 1.45507,-3.25 3.25,-3.25z" data-paper-data="{&quot;index&quot;:null}" fill="#bfa47a" stroke-width="0.5"/><path d="M192.44199,-56.49563c1.79493,0 3.25,1.45507 3.25,3.25c0,1.79493 -1.45507,3.25 -3.25,3.25c-1.79493,0 -3.25,-1.45507 -3.25,-3.25c0,-1.79493 1.45507,-3.25 3.25,-3.25z" data-paper-data="{&quot;index&quot;:null}" fill="#bfa47a" stroke-width="0.5"/><path d="M249.44199,-54.49563c1.79493,0 3.25,1.45507 3.25,3.25c0,1.79493 -1.45507,3.25 -3.25,3.25c-1.79493,0 -3.25,-1.45507 -3.25,-3.25c0,-1.79493 1.45507,-3.25 3.25,-3.25z" data-paper-data="{&quot;index&quot;:null}" fill="#bfa47a" stroke-width="0.5"/><path d="M225.44199,-76.49563c1.79493,0 3.25,1.45507 3.25,3.25c0,1.79493 -1.45507,3.25 -3.25,3.25c-1.79493,0 -3.25,-1.45507 -3.25,-3.25c0,-1.79493 1.45507,-3.25 3.25,-3.25z" data-paper-data="{&quot;index&quot;:null}" fill="#bfa47a" stroke-width="0.5"/><path d="M171.44199,-97.49563c1.79493,0 3.25,1.45507 3.25,3.25c0,1.79493 -1.45507,3.25 -3.25,3.25c-1.79493,0 -3.25,-1.45507 -3.25,-3.25c0,-1.79493 1.45507,-3.25 3.25,-3.25z" data-paper-data="{&quot;index&quot;:null}" fill="#bfa47a" stroke-width="0.5"/><path d="M209.44199,16.50437c1.79493,0 3.25,1.45507 3.25,3.25c0,1.79493 -1.45507,3.25 -3.25,3.25c-1.79493,0 -3.25,-1.45507 -3.25,-3.25c0,-1.79493 1.45507,-3.25 3.25,-3.25z" data-paper-data="{&quot;index&quot;:null}" fill="#bfa47a" stroke-width="0.5"/><path d="M259.44198,3.50437c1.79493,0 3.25,1.45507 3.25,3.25c0,1.79493 -1.45507,3.25 -3.25,3.25c-1.79493,0 -3.25,-1.45507 -3.25,-3.25c0,-1.79493 1.45507,-3.25 3.25,-3.25z" data-paper-data="{&quot;index&quot;:null}" fill="#bfa47a" stroke-width="0.5"/><path d="M284.44198,-38.49563c1.79493,0 3.25,1.45507 3.25,3.25c0,1.79493 -1.45507,3.25 -3.25,3.25c-1.79493,0 -3.25,-1.45507 -3.25,-3.25c0,-1.79493 1.45507,-3.25 3.25,-3.25z" data-paper-data="{&quot;index&quot;:null}" fill="#bfa47a" stroke-width="0.5"/><path d="M276.44198,-88.49563c1.79493,0 3.25,1.45507 3.25,3.25c0,1.79493 -1.45507,3.25 -3.25,3.25c-1.79493,0 -3.25,-1.45507 -3.25,-3.25c0,-1.79493 1.45507,-3.25 3.25,-3.25z" data-paper-data="{&quot;index&quot;:null}" fill="#bfa47a" stroke-width="0.5"/><path d="M311.44198,-65.49563c1.79493,0 3.25,1.45507 3.25,3.25c0,1.79493 -1.45507,3.25 -3.25,3.25c-1.79493,0 -3.25,-1.45507 -3.25,-3.25c0,-1.79493 1.45507,-3.25 3.25,-3.25z" data-paper-data="{&quot;index&quot;:null}" fill="#bfa47a" stroke-width="0.5"/><path d="M312.44198,-32.49563c1.79493,0 3.25,1.45507 3.25,3.25c0,1.79493 -1.45507,3.25 -3.25,3.25c-1.79493,0 -3.25,-1.45507 -3.25,-3.25c0,-1.79493 1.45507,-3.25 3.25,-3.25z" data-paper-data="{&quot;index&quot;:null}" fill="#bfa47a" stroke-width="0.5"/><path d="M286.44198,8.50437c1.79493,0 3.25,1.45507 3.25,3.25c0,1.79493 -1.45507,3.25 -3.25,3.25c-1.79493,0 -3.25,-1.45507 -3.25,-3.25c0,-1.79493 1.45507,-3.25 3.25,-3.25z" data-paper-data="{&quot;index&quot;:null}" fill="#bfa47a" stroke-width="0.5"/><path d="M334.44198,16.50437c1.79493,0 3.25,1.45507 3.25,3.25c0,1.79493 -1.45507,3.25 -3.25,3.25c-1.79493,0 -3.25,-1.45507 -3.25,-3.25c0,-1.79493 1.45507,-3.25 3.25,-3.25z" data-paper-data="{&quot;index&quot;:null}" fill="#bfa47a" stroke-width="0.5"/><path d="M379.44198,-42.49563c1.79493,0 3.25,1.45507 3.25,3.25c0,1.79493 -1.45507,3.25 -3.25,3.25c-1.79493,0 -3.25,-1.45507 -3.25,-3.25c0,-1.79493 1.45507,-3.25 3.25,-3.25z" data-paper-data="{&quot;index&quot;:null}" fill="#bfa47a" stroke-width="0.5"/><path d="M357.44198,-80.49563c1.79493,0 3.25,1.45507 3.25,3.25c0,1.79493 -1.45507,3.25 -3.25,3.25c-1.79493,0 -3.25,-1.45507 -3.25,-3.25c0,-1.79493 1.45507,-3.25 3.25,-3.25z" data-paper-data="{&quot;index&quot;:null}" fill="#bfa47a" stroke-width="0.5"/><path d="M399.44198,-69.49563c1.79493,0 3.25,1.45507 3.25,3.25c0,1.79493 -1.45507,3.25 -3.25,3.25c-1.79493,0 -3.25,-1.45507 -3.25,-3.25c0,-1.79493 1.45507,-3.25 3.25,-3.25z" data-paper-data="{&quot;index&quot;:null}" fill="#bfa47a" stroke-width="0.5"/><path d="M422.44198,-43.49563c1.79493,0 3.25,1.45507 3.25,3.25c0,1.79493 -1.45507,3.25 -3.25,3.25c-1.79493,0 -3.25,-1.45507 -3.25,-3.25c0,-1.79493 1.45507,-3.25 3.25,-3.25z" data-paper-data="{&quot;index&quot;:null}" fill="#bfa47a" stroke-width="0.5"/><path d="M402.44198,-3.49563c1.79493,0 3.25,1.45507 3.25,3.25c0,1.79493 -1.45507,3.25 -3.25,3.25c-1.79493,0 -3.25,-1.45507 -3.25,-3.25c0,-1.79493 1.45507,-3.25 3.25,-3.25z" data-paper-data="{&quot;index&quot;:null}" fill="#bfa47a" stroke-width="0.5"/><path d="M352.44198,-33.49563c1.79493,0 3.25,1.45507 3.25,3.25c0,1.79493 -1.45507,3.25 -3.25,3.25c-1.79493,0 -3.25,-1.45507 -3.25,-3.25c0,-1.79493 1.45507,-3.25 3.25,-3.25z" data-paper-data="{&quot;index&quot;:null}" fill="#bfa47a" stroke-width="0.5"/><path d="M426.44198,7.50437c1.79493,0 3.25,1.45507 3.25,3.25c0,1.79493 -1.45507,3.25 -3.25,3.25c-1.79493,0 -3.25,-1.45507 -3.25,-3.25c0,-1.79493 1.45507,-3.25 3.25,-3.25z" data-paper-data="{&quot;index&quot;:null}" fill="#bfa47a" stroke-width="0.5"/><path d="M481.442,-38.49563c1.79493,0 3.25,1.45507 3.25,3.25c0,1.79493 -1.45507,3.25 -3.25,3.25c-1.79493,0 -3.25,-1.45507 -3.25,-3.25c0,-1.79493 1.45507,-3.25 3.25,-3.25z" data-paper-data="{&quot;index&quot;:null}" fill="#bfa47a" stroke-width="0.5"/><path d="M451.44198,-68.49563c1.79493,0 3.25,1.45507 3.25,3.25c0,1.79493 -1.45507,3.25 -3.25,3.25c-1.79493,0 -3.25,-1.45507 -3.25,-3.25c0,-1.79493 1.45507,-3.25 3.25,-3.25z" data-paper-data="{&quot;index&quot;:null}" fill="#bfa47a" stroke-width="0.5"/><path d="M449.44198,-112.49563c1.79493,0 3.25,1.45507 3.25,3.25c0,1.79493 -1.45507,3.25 -3.25,3.25c-1.79493,0 -3.25,-1.45507 -3.25,-3.25c0,-1.79493 1.45507,-3.25 3.25,-3.25z" data-paper-data="{&quot;index&quot;:null}" fill="#bfa47a" stroke-width="0.5"/><path d="M445.44198,-28.49563c1.79493,0 3.25,1.45507 3.25,3.25c0,1.79493 -1.45507,3.25 -3.25,3.25c-1.79493,0 -3.25,-1.45507 -3.25,-3.25c0,-1.79493 1.45507,-3.25 3.25,-3.25z" data-paper-data="{&quot;index&quot;:null}" fill="#bfa47a" stroke-width="0.5"/><path d="M462.442,-3.49563c1.79493,0 3.25,1.45507 3.25,3.25c0,1.79493 -1.45507,3.25 -3.25,3.25c-1.79493,0 -3.25,-1.45507 -3.25,-3.25c0,-1.79493 1.45507,-3.25 3.25,-3.25z" data-paper-data="{&quot;index&quot;:null}" fill="#bfa47a" stroke-width="0.5"/><path d="M370.44198,16.50437c1.79493,0 3.25,1.45507 3.25,3.25c0,1.79493 -1.45507,3.25 -3.25,3.25c-1.79493,0 -3.25,-1.45507 -3.25,-3.25c0,-1.79493 1.45507,-3.25 3.25,-3.25z" data-paper-data="{&quot;index&quot;:null}" fill="#bfa47a" stroke-width="0.5"/></g></g></g></svg>