<svg version="1.1" xmlns="http://www.w3.org/2000/svg" xmlns:xlink="http://www.w3.org/1999/xlink" width="631.00001" height="553.76639" viewBox="0,0,631.00001,553.76639"><g transform="translate(44.71665,109.95354)"><g data-paper-data="{&quot;isPaintingLayer&quot;:true}" fill-rule="nonzero" stroke="none" stroke-linecap="butt" stroke-linejoin="miter" stroke-miterlimit="10" stroke-dasharray="" stroke-dashoffset="0" style="mix-blend-mode: normal"><path d="M-44.71665,421.25603l15,-148c0,0 57.76734,12.61029 134.21134,14.73356c44.00735,1.22233 90.20429,-11.1927 139.13288,-12.70193c78.42925,-2.4192 157.59964,4.35017 198.79515,-1.4549c48.61272,-6.85027 111.86064,12.42327 111.86064,12.42327l30,135z" data-paper-data="{&quot;index&quot;:null}" fill="#ceb184" stroke-width="0"/><path d="M-42.71665,430.25603l15,-148c0,0 57.76734,12.61029 134.21134,14.73356c44.00735,1.22233 90.20429,-11.1927 139.13288,-12.70193c78.42925,-2.4192 157.59964,4.35017 198.79515,-1.4549c48.61272,-6.85027 111.86064,12.42327 111.86064,12.42327l30,135z" data-paper-data="{&quot;index&quot;:null}" fill="#e2c291" stroke-width="0"/><path d="M-42.71664,438.25602l15,-148c0,0 57.76735,12.61029 134.21133,14.73357c44.00734,1.22233 90.20428,-11.1927 139.13288,-12.70193c78.42925,-2.4192 157.59964,4.35016 198.79515,-1.45491c48.61272,-6.85027 111.86064,12.42327 111.86064,12.42327l30,135z" data-paper-data="{&quot;index&quot;:null}" fill="#ffdaa2" stroke-width="0"/><path d="M-4.79901,331.56284c0,-1.79493 1.45507,-3.25 3.25,-3.25c1.79493,0 3.25,1.45507 3.25,3.25c0,1.79493 -1.45507,3.25 -3.25,3.25c-1.79493,0 -3.25,-1.45507 -3.25,-3.25z" data-paper-data="{&quot;index&quot;:null}" fill="#bfa47a" stroke-width="0.5"/><path d="M10.20099,373.56284c0,-1.79493 1.45507,-3.25 3.25,-3.25c1.79493,0 3.25,1.45507 3.25,3.25c0,1.79493 -1.45507,3.25 -3.25,3.25c-1.79493,0 -3.25,-1.45507 -3.25,-3.25z" data-paper-data="{&quot;index&quot;:null}" fill="#bfa47a" stroke-width="0.5"/><path d="M47.20099,348.56284c0,-1.79493 1.45507,-3.25 3.25,-3.25c1.79493,0 3.25,1.45507 3.25,3.25c0,1.79493 -1.45507,3.25 -3.25,3.25c-1.79493,0 -3.25,-1.45507 -3.25,-3.25z" data-paper-data="{&quot;index&quot;:null}" fill="#bfa47a" stroke-width="0.5"/><path d="M84.20099,389.56284c0,-1.79493 1.45507,-3.25 3.25,-3.25c1.79493,0 3.25,1.45507 3.25,3.25c0,1.79493 -1.45507,3.25 -3.25,3.25c-1.79493,0 -3.25,-1.45507 -3.25,-3.25z" data-paper-data="{&quot;index&quot;:null}" fill="#bfa47a" stroke-width="0.5"/><path d="M-7.79901,440.56284c0,-1.79493 1.45507,-3.25 3.25,-3.25c1.79493,0 3.25,1.45507 3.25,3.25c0,1.79493 -1.45507,3.25 -3.25,3.25c-1.79493,0 -3.25,-1.45507 -3.25,-3.25z" data-paper-data="{&quot;index&quot;:null}" fill="#bfa47a" stroke-width="0.5"/><path d="M102.20099,346.56284c0,-1.79493 1.45507,-3.25 3.25,-3.25c1.79493,0 3.25,1.45507 3.25,3.25c0,1.79493 -1.45507,3.25 -3.25,3.25c-1.79493,0 -3.25,-1.45507 -3.25,-3.25z" data-paper-data="{&quot;index&quot;:null}" fill="#bfa47a" stroke-width="0.5"/><path d="M81.20099,316.56284c0,-1.79493 1.45507,-3.25 3.25,-3.25c1.79493,0 3.25,1.45507 3.25,3.25c0,1.79493 -1.45507,3.25 -3.25,3.25c-1.79493,0 -3.25,-1.45507 -3.25,-3.25z" data-paper-data="{&quot;index&quot;:null}" fill="#bfa47a" stroke-width="0.5"/><path d="M53.20099,390.56284c0,-1.79493 1.45507,-3.25 3.25,-3.25c1.79493,0 3.25,1.45507 3.25,3.25c0,1.79493 -1.45507,3.25 -3.25,3.25c-1.79493,0 -3.25,-1.45507 -3.25,-3.25z" data-paper-data="{&quot;index&quot;:null}" fill="#bfa47a" stroke-width="0.5"/><path d="M30.20099,311.56284c0,-1.79493 1.45507,-3.25 3.25,-3.25c1.79493,0 3.25,1.45507 3.25,3.25c0,1.79493 -1.45507,3.25 -3.25,3.25c-1.79493,0 -3.25,-1.45507 -3.25,-3.25z" data-paper-data="{&quot;index&quot;:null}" fill="#bfa47a" stroke-width="0.5"/><path d="M135.20099,409.56284c0,-1.79493 1.45507,-3.25 3.25,-3.25c1.79493,0 3.25,1.45507 3.25,3.25c0,1.79493 -1.45507,3.25 -3.25,3.25c-1.79493,0 -3.25,-1.45507 -3.25,-3.25z" data-paper-data="{&quot;index&quot;:null}" fill="#bfa47a" stroke-width="0.5"/><path d="M156.20099,383.56284c0,-1.79493 1.45507,-3.25 3.25,-3.25c1.79493,0 3.25,1.45507 3.25,3.25c0,1.79493 -1.45507,3.25 -3.25,3.25c-1.79493,0 -3.25,-1.45507 -3.25,-3.25z" data-paper-data="{&quot;index&quot;:null}" fill="#bfa47a" stroke-width="0.5"/><path d="M124.20097,361.56284c0,-1.79493 1.45507,-3.25 3.25,-3.25c1.79493,0 3.25,1.45507 3.25,3.25c0,1.79493 -1.45507,3.25 -3.25,3.25c-1.79493,0 -3.25,-1.45507 -3.25,-3.25z" data-paper-data="{&quot;index&quot;:null}" fill="#bfa47a" stroke-width="0.5"/><path d="M167.20099,332.56284c0,-1.79493 1.45507,-3.25 3.25,-3.25c1.79493,0 3.25,1.45507 3.25,3.25c0,1.79493 -1.45507,3.25 -3.25,3.25c-1.79493,0 -3.25,-1.45507 -3.25,-3.25z" data-paper-data="{&quot;index&quot;:null}" fill="#bfa47a" stroke-width="0.5"/><path d="M214.20099,345.56284c0,-1.79493 1.45507,-3.25 3.25,-3.25c1.79493,0 3.25,1.45507 3.25,3.25c0,1.79493 -1.45507,3.25 -3.25,3.25c-1.79493,0 -3.25,-1.45507 -3.25,-3.25z" data-paper-data="{&quot;index&quot;:null}" fill="#bfa47a" stroke-width="0.5"/><path d="M131.20099,317.56284c0,-1.79493 1.45507,-3.25 3.25,-3.25c1.79493,0 3.25,1.45507 3.25,3.25c0,1.79493 -1.45507,3.25 -3.25,3.25c-1.79493,0 -3.25,-1.45507 -3.25,-3.25z" data-paper-data="{&quot;index&quot;:null}" fill="#bfa47a" stroke-width="0.5"/><path d="M194.20099,379.56284c0,-1.79493 1.45507,-3.25 3.25,-3.25c1.79493,0 3.25,1.45507 3.25,3.25c0,1.79493 -1.45507,3.25 -3.25,3.25c-1.79493,0 -3.25,-1.45507 -3.25,-3.25z" data-paper-data="{&quot;index&quot;:null}" fill="#bfa47a" stroke-width="0.5"/><path d="M251.20099,377.56284c0,-1.79493 1.45507,-3.25 3.25,-3.25c1.79493,0 3.25,1.45507 3.25,3.25c0,1.79493 -1.45507,3.25 -3.25,3.25c-1.79493,0 -3.25,-1.45507 -3.25,-3.25z" data-paper-data="{&quot;index&quot;:null}" fill="#bfa47a" stroke-width="0.5"/><path d="M227.20099,399.56284c0,-1.79493 1.45507,-3.25 3.25,-3.25c1.79493,0 3.25,1.45507 3.25,3.25c0,1.79493 -1.45507,3.25 -3.25,3.25c-1.79493,0 -3.25,-1.45507 -3.25,-3.25z" data-paper-data="{&quot;index&quot;:null}" fill="#bfa47a" stroke-width="0.5"/><path d="M173.20099,420.56284c0,-1.79493 1.45507,-3.25 3.25,-3.25c1.79493,0 3.25,1.45507 3.25,3.25c0,1.79493 -1.45507,3.25 -3.25,3.25c-1.79493,0 -3.25,-1.45507 -3.25,-3.25z" data-paper-data="{&quot;index&quot;:null}" fill="#bfa47a" stroke-width="0.5"/><path d="M211.20099,306.56284c0,-1.79493 1.45507,-3.25 3.25,-3.25c1.79493,0 3.25,1.45507 3.25,3.25c0,1.79493 -1.45507,3.25 -3.25,3.25c-1.79493,0 -3.25,-1.45507 -3.25,-3.25z" data-paper-data="{&quot;index&quot;:null}" fill="#bfa47a" stroke-width="0.5"/><path d="M261.20097,319.56284c0,-1.79493 1.45507,-3.25 3.25,-3.25c1.79493,0 3.25,1.45507 3.25,3.25c0,1.79493 -1.45507,3.25 -3.25,3.25c-1.79493,0 -3.25,-1.45507 -3.25,-3.25z" data-paper-data="{&quot;index&quot;:null}" fill="#bfa47a" stroke-width="0.5"/><path d="M286.20097,361.56284c0,-1.79493 1.45507,-3.25 3.25,-3.25c1.79493,0 3.25,1.45507 3.25,3.25c0,1.79493 -1.45507,3.25 -3.25,3.25c-1.79493,0 -3.25,-1.45507 -3.25,-3.25z" data-paper-data="{&quot;index&quot;:null}" fill="#bfa47a" stroke-width="0.5"/><path d="M278.20097,411.56284c0,-1.79493 1.45507,-3.25 3.25,-3.25c1.79493,0 3.25,1.45507 3.25,3.25c0,1.79493 -1.45507,3.25 -3.25,3.25c-1.79493,0 -3.25,-1.45507 -3.25,-3.25z" data-paper-data="{&quot;index&quot;:null}" fill="#bfa47a" stroke-width="0.5"/><path d="M313.20097,388.56284c0,-1.79493 1.45507,-3.25 3.25,-3.25c1.79493,0 3.25,1.45507 3.25,3.25c0,1.79493 -1.45507,3.25 -3.25,3.25c-1.79493,0 -3.25,-1.45507 -3.25,-3.25z" data-paper-data="{&quot;index&quot;:null}" fill="#bfa47a" stroke-width="0.5"/><path d="M314.20097,355.56284c0,-1.79493 1.45507,-3.25 3.25,-3.25c1.79493,0 3.25,1.45507 3.25,3.25c0,1.79493 -1.45507,3.25 -3.25,3.25c-1.79493,0 -3.25,-1.45507 -3.25,-3.25z" data-paper-data="{&quot;index&quot;:null}" fill="#bfa47a" stroke-width="0.5"/><path d="M288.20097,314.56284c0,-1.79493 1.45507,-3.25 3.25,-3.25c1.79493,0 3.25,1.45507 3.25,3.25c0,1.79493 -1.45507,3.25 -3.25,3.25c-1.79493,0 -3.25,-1.45507 -3.25,-3.25z" data-paper-data="{&quot;index&quot;:null}" fill="#bfa47a" stroke-width="0.5"/><path d="M336.20097,306.56284c0,-1.79493 1.45507,-3.25 3.25,-3.25c1.79493,0 3.25,1.45507 3.25,3.25c0,1.79493 -1.45507,3.25 -3.25,3.25c-1.79493,0 -3.25,-1.45507 -3.25,-3.25z" data-paper-data="{&quot;index&quot;:null}" fill="#bfa47a" stroke-width="0.5"/><path d="M381.20097,365.56284c0,-1.79493 1.45507,-3.25 3.25,-3.25c1.79493,0 3.25,1.45507 3.25,3.25c0,1.79493 -1.45507,3.25 -3.25,3.25c-1.79493,0 -3.25,-1.45507 -3.25,-3.25z" data-paper-data="{&quot;index&quot;:null}" fill="#bfa47a" stroke-width="0.5"/><path d="M359.20097,403.56284c0,-1.79493 1.45507,-3.25 3.25,-3.25c1.79493,0 3.25,1.45507 3.25,3.25c0,1.79493 -1.45507,3.25 -3.25,3.25c-1.79493,0 -3.25,-1.45507 -3.25,-3.25z" data-paper-data="{&quot;index&quot;:null}" fill="#bfa47a" stroke-width="0.5"/><path d="M401.20097,392.56284c0,-1.79493 1.45507,-3.25 3.25,-3.25c1.79493,0 3.25,1.45507 3.25,3.25c0,1.79493 -1.45507,3.25 -3.25,3.25c-1.79493,0 -3.25,-1.45507 -3.25,-3.25z" data-paper-data="{&quot;index&quot;:null}" fill="#bfa47a" stroke-width="0.5"/><path d="M424.20097,366.56284c0,-1.79493 1.45507,-3.25 3.25,-3.25c1.79493,0 3.25,1.45507 3.25,3.25c0,1.79493 -1.45507,3.25 -3.25,3.25c-1.79493,0 -3.25,-1.45507 -3.25,-3.25z" data-paper-data="{&quot;index&quot;:null}" fill="#bfa47a" stroke-width="0.5"/><path d="M404.20097,326.56284c0,-1.79493 1.45507,-3.25 3.25,-3.25c1.79493,0 3.25,1.45507 3.25,3.25c0,1.79493 -1.45507,3.25 -3.25,3.25c-1.79493,0 -3.25,-1.45507 -3.25,-3.25z" data-paper-data="{&quot;index&quot;:null}" fill="#bfa47a" stroke-width="0.5"/><path d="M354.20097,356.56284c0,-1.79493 1.45507,-3.25 3.25,-3.25c1.79493,0 3.25,1.45507 3.25,3.25c0,1.79493 -1.45507,3.25 -3.25,3.25c-1.79493,0 -3.25,-1.45507 -3.25,-3.25z" data-paper-data="{&quot;index&quot;:null}" fill="#bfa47a" stroke-width="0.5"/><path d="M428.20097,315.56284c0,-1.79493 1.45507,-3.25 3.25,-3.25c1.79493,0 3.25,1.45507 3.25,3.25c0,1.79493 -1.45507,3.25 -3.25,3.25c-1.79493,0 -3.25,-1.45507 -3.25,-3.25z" data-paper-data="{&quot;index&quot;:null}" fill="#bfa47a" stroke-width="0.5"/><path d="M483.20099,361.56284c0,-1.79493 1.45507,-3.25 3.25,-3.25c1.79493,0 3.25,1.45507 3.25,3.25c0,1.79493 -1.45507,3.25 -3.25,3.25c-1.79493,0 -3.25,-1.45507 -3.25,-3.25z" data-paper-data="{&quot;index&quot;:null}" fill="#bfa47a" stroke-width="0.5"/><path d="M453.20097,391.56284c0,-1.79493 1.45507,-3.25 3.25,-3.25c1.79493,0 3.25,1.45507 3.25,3.25c0,1.79493 -1.45507,3.25 -3.25,3.25c-1.79493,0 -3.25,-1.45507 -3.25,-3.25z" data-paper-data="{&quot;index&quot;:null}" fill="#bfa47a" stroke-width="0.5"/><path d="M451.20097,435.56284c0,-1.79493 1.45507,-3.25 3.25,-3.25c1.79493,0 3.25,1.45507 3.25,3.25c0,1.79493 -1.45507,3.25 -3.25,3.25c-1.79493,0 -3.25,-1.45507 -3.25,-3.25z" data-paper-data="{&quot;index&quot;:null}" fill="#bfa47a" stroke-width="0.5"/><path d="M447.20097,351.56284c0,-1.79493 1.45507,-3.25 3.25,-3.25c1.79493,0 3.25,1.45507 3.25,3.25c0,1.79493 -1.45507,3.25 -3.25,3.25c-1.79493,0 -3.25,-1.45507 -3.25,-3.25z" data-paper-data="{&quot;index&quot;:null}" fill="#bfa47a" stroke-width="0.5"/><path d="M464.20099,326.56284c0,-1.79493 1.45507,-3.25 3.25,-3.25c1.79493,0 3.25,1.45507 3.25,3.25c0,1.79493 -1.45507,3.25 -3.25,3.25c-1.79493,0 -3.25,-1.45507 -3.25,-3.25z" data-paper-data="{&quot;index&quot;:null}" fill="#bfa47a" stroke-width="0.5"/><path d="M372.20097,306.56284c0,-1.79493 1.45507,-3.25 3.25,-3.25c1.79493,0 3.25,1.45507 3.25,3.25c0,1.79493 -1.45507,3.25 -3.25,3.25c-1.79493,0 -3.25,-1.45507 -3.25,-3.25z" data-paper-data="{&quot;index&quot;:null}" fill="#bfa47a" stroke-width="0.5"/><g data-paper-data="{&quot;index&quot;:null}"><path d="M296.74961,-31.38118c0.33217,-1.29129 16.12924,-6.05315 15.84006,-7.35476c-0.12454,-0.56059 -0.26035,-1.10793 -0.40445,-1.6454l253.54815,-52.34843l-57.69688,215.10944c0,0 -176.64184,17.02525 -182.34892,-4.70383z" data-paper-data="{&quot;index&quot;:null}" fill="#ceb184" stroke-width="0"/><path d="M299.04306,-32.93552c0.09185,-0.96859 263.11402,-67.2246 263.11402,-67.2246l-57.69688,215.10944c0,0 -168.80709,15.40766 -174.51416,-6.32142c0,0 -13.57636,-100.75163 -30.90298,-141.56342z" data-paper-data="{&quot;index&quot;:null}" fill="#e2c291" stroke-width="0"/><path d="M336.73815,97.01469c-9.02826,-34.37415 -10.63833,-101.35823 -27.96493,-142.17002c0.09185,-0.96858 0.04277,-1.96707 -0.16422,-2.96963l-0.8088,-3.91738c0.33217,-1.2913 -0.51963,-2.61578 -0.8088,-3.91738c-0.12454,-0.5606 -0.26035,-1.10793 -0.40445,-1.6454l253.54815,-52.34843l-57.69688,215.10944c0,0 -159.99299,13.58787 -165.70006,-8.14121z" data-paper-data="{&quot;index&quot;:null}" fill="#ffdaa2" stroke-width="0"/><path d="M342.69659,-46.22825c1.75785,-0.36293 3.47708,0.76787 3.84002,2.52572c0.36293,1.75785 -0.76787,3.47708 -2.52572,3.84002c-1.75785,0.36293 -3.47708,-0.76787 -3.84002,-2.52572c-0.36293,-1.75785 0.76787,-3.47708 2.52572,-3.84002z" data-paper-data="{&quot;index&quot;:null}" fill="#bfa47a" stroke-width="0.5"/><path d="M346.86716,-6.24567c1.75785,-0.36293 3.47708,0.76787 3.84002,2.52572c0.36293,1.75785 -0.76787,3.47708 -2.52572,3.84002c-1.75785,0.36293 -3.47708,-0.76787 -3.84002,-2.52572c-0.36293,-1.75785 0.76787,-3.47708 2.52572,-3.84002z" data-paper-data="{&quot;index&quot;:null}" fill="#bfa47a" stroke-width="0.5"/><path d="M393.6735,-16.93056c1.75785,-0.36293 3.47708,0.76787 3.84002,2.52572c0.36293,1.75785 -0.76787,3.47708 -2.52572,3.84002c-1.75785,0.36293 -3.47708,-0.76787 -3.84002,-2.52572c-0.36293,-1.75785 0.76787,-3.47708 2.52572,-3.84002z" data-paper-data="{&quot;index&quot;:null}" fill="#bfa47a" stroke-width="0.5"/><path d="M411.0116,27.48104c1.75785,-0.36293 3.47708,0.76787 3.84002,2.52572c0.36293,1.75785 -0.76787,3.47708 -2.52572,3.84002c-1.75785,0.36293 -3.47708,-0.76787 -3.84002,-2.52572c-0.36293,-1.75785 0.76787,-3.47708 2.52572,-3.84002z" data-paper-data="{&quot;index&quot;:null}" fill="#bfa47a" stroke-width="0.5"/><path d="M361.26723,38.77252c1.75785,-0.36293 3.47708,0.76787 3.84002,2.52572c0.36293,1.75785 -0.76787,3.47708 -2.52572,3.84002c-1.75785,0.36293 -3.47708,-0.76787 -3.84002,-2.52572c-0.36293,-1.75785 0.76787,-3.47708 2.52572,-3.84002z" data-paper-data="{&quot;index&quot;:null}" fill="#bfa47a" stroke-width="0.5"/><path d="M354.29227,84.11952c1.75785,-0.36293 3.47708,0.76787 3.84002,2.52572c0.36293,1.75785 -0.76787,3.47708 -2.52572,3.84002c-1.75785,0.36293 -3.47708,-0.76787 -3.84002,-2.52572c-0.36293,-1.75785 0.76787,-3.47708 2.52572,-3.84002z" data-paper-data="{&quot;index&quot;:null}" fill="#bfa47a" stroke-width="0.5"/><path d="M404.44104,74.78672c1.75785,-0.36293 3.47708,0.76787 3.84002,2.52572c0.36293,1.75785 -0.76787,3.47708 -2.52572,3.84002c-1.75785,0.36293 -3.47708,-0.76787 -3.84002,-2.52572c-0.36293,-1.75785 0.76787,-3.47708 2.52572,-3.84002z" data-paper-data="{&quot;index&quot;:null}" fill="#bfa47a" stroke-width="0.5"/><path d="M373.66991,14.76891c1.75785,-0.36293 3.47708,0.76787 3.84002,2.52572c0.36293,1.75785 -0.76787,3.47708 -2.52572,3.84002c-1.75785,0.36293 -3.47708,-0.76787 -3.84002,-2.52572c-0.36293,-1.75785 0.76787,-3.47708 2.52572,-3.84002z" data-paper-data="{&quot;index&quot;:null}" fill="#bfa47a" stroke-width="0.5"/><path d="M444.56251,61.39765c1.75785,-0.36293 3.47708,0.76787 3.84002,2.52572c0.36293,1.75785 -0.76787,3.47708 -2.52572,3.84002c-1.75785,0.36293 -3.47708,-0.76787 -3.84002,-2.52572c-0.36293,-1.75785 0.76787,-3.47708 2.52572,-3.84002z" data-paper-data="{&quot;index&quot;:null}" fill="#bfa47a" stroke-width="0.5"/><path d="M478.57406,43.14351c1.75785,-0.36293 3.47708,0.76787 3.84002,2.52572c0.36293,1.75785 -0.76787,3.47708 -2.52572,3.84002c-1.75785,0.36293 -3.47708,-0.76787 -3.84002,-2.52572c-0.36293,-1.75785 0.76787,-3.47708 2.52572,-3.84002z" data-paper-data="{&quot;index&quot;:null}" fill="#bfa47a" stroke-width="0.5"/><path d="M429.52418,8.3425c1.75785,-0.36293 3.47708,0.76787 3.84002,2.52572c0.36293,1.75785 -0.76787,3.47708 -2.52572,3.84002c-1.75785,0.36293 -3.47708,-0.76787 -3.84002,-2.52572c-0.36293,-1.75785 0.76787,-3.47708 2.52572,-3.84002z" data-paper-data="{&quot;index&quot;:null}" fill="#bfa47a" stroke-width="0.5"/><path d="M451.94711,-75.93213c1.75785,-0.36293 3.47708,0.76787 3.84002,2.52572c0.36293,1.75785 -0.76787,3.47708 -2.52572,3.84002c-1.75785,0.36293 -3.47708,-0.76787 -3.84002,-2.52572c-0.36293,-1.75785 0.76787,-3.47708 2.52572,-3.84002z" data-paper-data="{&quot;index&quot;:null}" fill="#bfa47a" stroke-width="0.5"/><path d="M489.77585,-16.35036c1.75785,-0.36293 3.47708,0.76787 3.84002,2.52572c0.36293,1.75785 -0.76787,3.47708 -2.52572,3.84002c-1.75785,0.36293 -3.47708,-0.76787 -3.84002,-2.52572c-0.36293,-1.75785 0.76787,-3.47708 2.52572,-3.84002z" data-paper-data="{&quot;index&quot;:null}" fill="#bfa47a" stroke-width="0.5"/><path d="M416.91227,-32.96052c1.75785,-0.36293 3.47708,0.76787 3.84002,2.52572c0.36293,1.75785 -0.76787,3.47708 -2.52572,3.84002c-1.75785,0.36293 -3.47708,-0.76787 -3.84002,-2.52572c-0.36293,-1.75785 0.76787,-3.47708 2.52572,-3.84002z" data-paper-data="{&quot;index&quot;:null}" fill="#bfa47a" stroke-width="0.5"/><path d="M391.22776,-63.3958c1.75785,-0.36293 3.47708,0.76787 3.84002,2.52572c0.36293,1.75785 -0.76787,3.47708 -2.52572,3.84002c-1.75785,0.36293 -3.47708,-0.76787 -3.84002,-2.52572c-0.36293,-1.75785 0.76787,-3.47708 2.52572,-3.84002z" data-paper-data="{&quot;index&quot;:null}" fill="#bfa47a" stroke-width="0.5"/><path d="M457.53308,-29.09414c1.75785,-0.36293 3.47708,0.76787 3.84002,2.52572c0.36293,1.75785 -0.76787,3.47708 -2.52572,3.84002c-1.75785,0.36293 -3.47708,-0.76787 -3.84002,-2.52572c-0.36293,-1.75785 0.76787,-3.47708 2.52572,-3.84002z" data-paper-data="{&quot;index&quot;:null}" fill="#bfa47a" stroke-width="0.5"/><path d="M467.64302,19.87308c1.75785,-0.36293 3.47708,0.76787 3.84002,2.52572c0.36293,1.75785 -0.76787,3.47708 -2.52572,3.84002c-1.75785,0.36293 -3.47708,-0.76787 -3.84002,-2.52572c-0.36293,-1.75785 0.76787,-3.47708 2.52572,-3.84002z" data-paper-data="{&quot;index&quot;:null}" fill="#bfa47a" stroke-width="0.5"/><path d="M504.06867,42.98525c1.75785,-0.36293 3.47708,0.76787 3.84002,2.52572c0.36293,1.75785 -0.76787,3.47708 -2.52572,3.84002c-1.75785,0.36293 -3.47708,-0.76787 -3.84002,-2.52572c-0.36293,-1.75785 0.76787,-3.47708 2.52572,-3.84002z" data-paper-data="{&quot;index&quot;:null}" fill="#bfa47a" stroke-width="0.5"/><path d="M471.13141,76.33396c1.75785,-0.36293 3.47708,0.76787 3.84002,2.52572c0.36293,1.75785 -0.76787,3.47708 -2.52572,3.84002c-1.75785,0.36293 -3.47708,-0.76787 -3.84002,-2.52572c-0.36293,-1.75785 0.76787,-3.47708 2.52572,-3.84002z" data-paper-data="{&quot;index&quot;:null}" fill="#bfa47a" stroke-width="0.5"/></g></g></g></svg>