<svg version="1.1" xmlns="http://www.w3.org/2000/svg" xmlns:xlink="http://www.w3.org/1999/xlink" width="631.00001" height="216.99999" viewBox="0,0,631.00001,216.99999"><g transform="translate(42.21514,-164.25005)"><g data-paper-data="{&quot;isPaintingLayer&quot;:true}" fill-rule="nonzero" stroke="none" stroke-linecap="butt" stroke-linejoin="miter" stroke-miterlimit="10" stroke-dasharray="" stroke-dashoffset="0" style="mix-blend-mode: normal"><g fill="#ceb184" stroke-width="0"><path d="M311.15358,205.72747c1.1956,-22.43422 32.33384,-24.56095 45.49592,-17.92885c59.09327,29.77587 132.13538,-23.54856 132.13538,-23.54856l100,199h-258.89577c0.03245,-0.5555 0.05478,-1.119 0.0634,-1.69319c0.02002,-1.33319 -16.41359,-2.80255 -17,-4z"/><path d="M-40.21516,364.25007l15,-148c0,0 25.18847,-12.7037 90.38647,0.11946c53.01665,10.42732 40.65196,-25.11946 82.61353,-25.11946c6.74024,0 19.3989,7.05659 24.13738,18.31951c18.61719,44.25126 16.03026,153.43349 16.03026,154.68049z"/></g><g fill="#e2c291" stroke-width="0"><path d="M317.15358,213.72747c1.1956,-22.43422 24.33384,-24.56095 37.49592,-17.92885c59.09327,29.77587 132.13538,-23.54856 132.13538,-23.54856l100,199c0,0 -270.9862,-11.70468 -271.272,-12.63469c8.71663,-43.47222 1.6407,-144.8879 1.6407,-144.8879z"/><path d="M-40.21514,371.25007l15,-148c0,0 25.18847,-12.7037 90.38647,0.11946c53.01665,10.42732 40.65196,-25.11946 82.61353,-25.11946c4.80015,0 11.84298,3.57893 15.24713,9.7073c20.15618,36.28657 14.92051,161.95434 14.92051,163.29269z"/></g><path d="" fill="#ceb184" stroke-width="0"/><path d="" fill="#e2c291" stroke-width="0"/><path d="" fill="#bfa47a" stroke-width="0.5"/><path d="" fill="#bfa47a" stroke-width="0.5"/><path d="" fill="#bfa47a" stroke-width="0.5"/><path d="" fill="#bfa47a" stroke-width="0.5"/><path d="" fill="#bfa47a" stroke-width="0.5"/><path d="" fill="#bfa47a" stroke-width="0.5"/><path d="" fill="#bfa47a" stroke-width="0.5"/><path d="" fill="#bfa47a" stroke-width="0.5"/><path d="" fill="#bfa47a" stroke-width="0.5"/><path d="" fill="#bfa47a" stroke-width="0.5"/><path d="" fill="#bfa47a" stroke-width="0.5"/><path d="" fill="#bfa47a" stroke-width="0.5"/><path d="" fill="#bfa47a" stroke-width="0.5"/><path d="" fill="#bfa47a" stroke-width="0.5"/><path d="" fill="#bfa47a" stroke-width="0.5"/><path d="" fill="#bfa47a" stroke-width="0.5"/><path d="" fill="#bfa47a" stroke-width="0.5"/><path d="" fill="#bfa47a" stroke-width="0.5"/><path d="" fill="#bfa47a" stroke-width="0.5"/><path d="" fill="#bfa47a" stroke-width="0.5"/><path d="" fill="#bfa47a" stroke-width="0.5"/><path d="" fill="#bfa47a" stroke-width="0.5"/><path d="" fill="#bfa47a" stroke-width="0.5"/><path d="" fill="#bfa47a" stroke-width="0.5"/><path d="" fill="#bfa47a" stroke-width="0.5"/><path d="" fill="#bfa47a" stroke-width="0.5"/><path d="" fill="#bfa47a" stroke-width="0.5"/><path d="" fill="#bfa47a" stroke-width="0.5"/><path d="" fill="#bfa47a" stroke-width="0.5"/><path d="" fill="#bfa47a" stroke-width="0.5"/><path d="" fill="#bfa47a" stroke-width="0.5"/><path d="" fill="#bfa47a" stroke-width="0.5"/><path d="" fill="#bfa47a" stroke-width="0.5"/><path d="" fill="#bfa47a" stroke-width="0.5"/><path d="" fill="#bfa47a" stroke-width="0.5"/><path d="" fill="#bfa47a" stroke-width="0.5"/><path d="" fill="#bfa47a" stroke-width="0.5"/><path d="" fill="#bfa47a" stroke-width="0.5"/><path d="" fill="#bfa47a" stroke-width="0.5"/><g fill="#ffdaa2" stroke-width="0"><path d="M326.15358,223.72746c1.1956,-22.43422 15.33384,-24.56095 28.49592,-17.92885c59.09327,29.77587 132.13538,-23.54856 132.13538,-23.54856l100,199h-258.89577c0.03245,-0.5555 0.05478,-1.11899 0.0634,-1.69319c0.02001,-1.33318 0.58641,-2.80254 0,-4v-4c0,-1.02371 -0.15383,-2.0115 -0.43963,-2.9415c8.71662,-43.47222 -3.25067,-109.39826 -1.35931,-144.8879z"/><path d="M-42.21513,381.25005l15,-148c0,0 25.18847,-12.7037 90.38647,0.11946c53.01665,10.42732 40.65196,-25.11946 82.61353,-25.11946c33.22222,0 15.18755,113.48433 30.55666,165.6405c-0.38903,1.51819 -0.38903,2.66631 -0.38903,2.66631c0,1.5644 0,3.12879 0,4.69319z"/></g><path d="M2.70248,249.55684c0,-1.79493 1.45507,-3.25 3.25,-3.25c1.79493,0 3.25,1.45507 3.25,3.25c0,1.79493 -1.45507,3.25 -3.25,3.25c-1.79493,0 -3.25,-1.45507 -3.25,-3.25z" fill="#bfa47a" stroke-width="0.5"/><path d="M82.70248,258.55684c0,-1.79493 1.45507,-3.25 3.25,-3.25c1.79493,0 3.25,1.45507 3.25,3.25c0,1.79493 -1.45507,3.25 -3.25,3.25c-1.79493,0 -3.25,-1.45507 -3.25,-3.25z" fill="#bfa47a" stroke-width="0.5"/><path d="M127.70248,242.55684c0,-1.79493 1.45507,-3.25 3.25,-3.25c1.79493,0 3.25,1.45507 3.25,3.25c0,1.79493 -1.45507,3.25 -3.25,3.25c-1.79493,0 -3.25,-1.45507 -3.25,-3.25z" fill="#bfa47a" stroke-width="0.5"/><path d="M76.70248,295.55684c0,-1.79493 1.45507,-3.25 3.25,-3.25c1.79493,0 3.25,1.45507 3.25,3.25c0,1.79493 -1.45507,3.25 -3.25,3.25c-1.79493,0 -3.25,-1.45507 -3.25,-3.25z" fill="#bfa47a" stroke-width="0.5"/><path d="M5.70248,289.55684c0,-1.79493 1.45507,-3.25 3.25,-3.25c1.79493,0 3.25,1.45507 3.25,3.25c0,1.79493 -1.45507,3.25 -3.25,3.25c-1.79493,0 -3.25,-1.45507 -3.25,-3.25z" fill="#bfa47a" stroke-width="0.5"/><path d="M10.70248,337.55684c0,-1.79493 1.45507,-3.25 3.25,-3.25c1.79493,0 3.25,1.45507 3.25,3.25c0,1.79493 -1.45507,3.25 -3.25,3.25c-1.79493,0 -3.25,-1.45507 -3.25,-3.25z" fill="#bfa47a" stroke-width="0.5"/><path d="M83.70248,335.55684c0,-1.79493 1.45507,-3.25 3.25,-3.25c1.79493,0 3.25,1.45507 3.25,3.25c0,1.79493 -1.45507,3.25 -3.25,3.25c-1.79493,0 -3.25,-1.45507 -3.25,-3.25z" fill="#bfa47a" stroke-width="0.5"/><path d="M98.70248,365.55684c0,-1.79493 1.45507,-3.25 3.25,-3.25c1.79493,0 3.25,1.45507 3.25,3.25c0,1.79493 -1.45507,3.25 -3.25,3.25c-1.79493,0 -3.25,-1.45507 -3.25,-3.25z" fill="#bfa47a" stroke-width="0.5"/><path d="M126.70248,351.55684c0,-1.79493 1.45507,-3.25 3.25,-3.25c1.79493,0 3.25,1.45507 3.25,3.25c0,1.79493 -1.45507,3.25 -3.25,3.25c-1.79493,0 -3.25,-1.45507 -3.25,-3.25z" fill="#bfa47a" stroke-width="0.5"/><path d="M117.70248,300.55684c0,-1.79493 1.45507,-3.25 3.25,-3.25c1.79493,0 3.25,1.45507 3.25,3.25c0,1.79493 -1.45507,3.25 -3.25,3.25c-1.79493,0 -3.25,-1.45507 -3.25,-3.25z" fill="#bfa47a" stroke-width="0.5"/><path d="M142.70248,293.55684c0,-1.79493 1.45507,-3.25 3.25,-3.25c1.79493,0 3.25,1.45507 3.25,3.25c0,1.79493 -1.45507,3.25 -3.25,3.25c-1.79493,0 -3.25,-1.45507 -3.25,-3.25z" fill="#bfa47a" stroke-width="0.5"/><path d="M138.70248,273.55684c0,-1.79493 1.45507,-3.25 3.25,-3.25c1.79493,0 3.25,1.45507 3.25,3.25c0,1.79493 -1.45507,3.25 -3.25,3.25c-1.79493,0 -3.25,-1.45507 -3.25,-3.25z" fill="#bfa47a" stroke-width="0.5"/><path d="M48.70248,273.55684c0,-1.79493 1.45507,-3.25 3.25,-3.25c1.79493,0 3.25,1.45507 3.25,3.25c0,1.79493 -1.45507,3.25 -3.25,3.25c-1.79493,0 -3.25,-1.45507 -3.25,-3.25z" fill="#bfa47a" stroke-width="0.5"/><path d="M37.70248,338.55684c0,-1.79493 1.45507,-3.25 3.25,-3.25c1.79493,0 3.25,1.45507 3.25,3.25c0,1.79493 -1.45507,3.25 -3.25,3.25c-1.79493,0 -3.25,-1.45507 -3.25,-3.25z" fill="#bfa47a" stroke-width="0.5"/><path d="M55.70248,369.55684c0,-1.79493 1.45507,-3.25 3.25,-3.25c1.79493,0 3.25,1.45507 3.25,3.25c0,1.79493 -1.45507,3.25 -3.25,3.25c-1.79493,0 -3.25,-1.45507 -3.25,-3.25z" fill="#bfa47a" stroke-width="0.5"/><path d="M357.70248,359.55684c0,-1.79493 1.45507,-3.25 3.25,-3.25c1.79493,0 3.25,1.45507 3.25,3.25c0,1.79493 -1.45507,3.25 -3.25,3.25c-1.79493,0 -3.25,-1.45507 -3.25,-3.25z" fill="#bfa47a" stroke-width="0.5"/><path d="M353.70248,319.55684c0,-1.79493 1.45507,-3.25 3.25,-3.25c1.79493,0 3.25,1.45507 3.25,3.25c0,1.79493 -1.45507,3.25 -3.25,3.25c-1.79493,0 -3.25,-1.45507 -3.25,-3.25z" fill="#bfa47a" stroke-width="0.5"/><path d="M401.70248,320.55684c0,-1.79493 1.45507,-3.25 3.25,-3.25c1.79493,0 3.25,1.45507 3.25,3.25c0,1.79493 -1.45507,3.25 -3.25,3.25c-1.79493,0 -3.25,-1.45507 -3.25,-3.25z" fill="#bfa47a" stroke-width="0.5"/><path d="M409.70248,273.55684c0,-1.79493 1.45507,-3.25 3.25,-3.25c1.79493,0 3.25,1.45507 3.25,3.25c0,1.79493 -1.45507,3.25 -3.25,3.25c-1.79493,0 -3.25,-1.45507 -3.25,-3.25z" fill="#bfa47a" stroke-width="0.5"/><path d="M358.70248,272.55684c0,-1.79493 1.45507,-3.25 3.25,-3.25c1.79493,0 3.25,1.45507 3.25,3.25c0,1.79493 -1.45507,3.25 -3.25,3.25c-1.79493,0 -3.25,-1.45507 -3.25,-3.25z" fill="#bfa47a" stroke-width="0.5"/><path d="M342.70248,229.55684c0,-1.79493 1.45507,-3.25 3.25,-3.25c1.79493,0 3.25,1.45507 3.25,3.25c0,1.79493 -1.45507,3.25 -3.25,3.25c-1.79493,0 -3.25,-1.45507 -3.25,-3.25z" fill="#bfa47a" stroke-width="0.5"/><path d="M393.70248,228.55684c0,-1.79493 1.45507,-3.25 3.25,-3.25c1.79493,0 3.25,1.45507 3.25,3.25c0,1.79493 -1.45507,3.25 -3.25,3.25c-1.79493,0 -3.25,-1.45507 -3.25,-3.25z" fill="#bfa47a" stroke-width="0.5"/><path d="M375.70248,293.55684c0,-1.79493 1.45507,-3.25 3.25,-3.25c1.79493,0 3.25,1.45507 3.25,3.25c0,1.79493 -1.45507,3.25 -3.25,3.25c-1.79493,0 -3.25,-1.45507 -3.25,-3.25z" fill="#bfa47a" stroke-width="0.5"/><path d="M435.70248,233.55684c0,-1.79493 1.45507,-3.25 3.25,-3.25c1.79493,0 3.25,1.45507 3.25,3.25c0,1.79493 -1.45507,3.25 -3.25,3.25c-1.79493,0 -3.25,-1.45507 -3.25,-3.25z" fill="#bfa47a" stroke-width="0.5"/><path d="M472.70248,244.55684c0,-1.79493 1.45507,-3.25 3.25,-3.25c1.79493,0 3.25,1.45507 3.25,3.25c0,1.79493 -1.45507,3.25 -3.25,3.25c-1.79493,0 -3.25,-1.45507 -3.25,-3.25z" fill="#bfa47a" stroke-width="0.5"/><path d="M431.70248,288.55684c0,-1.79493 1.45507,-3.25 3.25,-3.25c1.79493,0 3.25,1.45507 3.25,3.25c0,1.79493 -1.45507,3.25 -3.25,3.25c-1.79493,0 -3.25,-1.45507 -3.25,-3.25z" fill="#bfa47a" stroke-width="0.5"/><path d="M470.70248,366.55684c0,-1.79493 1.45507,-3.25 3.25,-3.25c1.79493,0 3.25,1.45507 3.25,3.25c0,1.79493 -1.45507,3.25 -3.25,3.25c-1.79493,0 -3.25,-1.45507 -3.25,-3.25z" fill="#bfa47a" stroke-width="0.5"/><path d="M495.70248,300.55684c0,-1.79493 1.45507,-3.25 3.25,-3.25c1.79493,0 3.25,1.45507 3.25,3.25c0,1.79493 -1.45507,3.25 -3.25,3.25c-1.79493,0 -3.25,-1.45507 -3.25,-3.25z" fill="#bfa47a" stroke-width="0.5"/><path d="M427.70248,331.55684c0,-1.79493 1.45507,-3.25 3.25,-3.25c1.79493,0 3.25,1.45507 3.25,3.25c0,1.79493 -1.45507,3.25 -3.25,3.25c-1.79493,0 -3.25,-1.45507 -3.25,-3.25z" fill="#bfa47a" stroke-width="0.5"/><path d="M408.70248,366.55684c0,-1.79493 1.45507,-3.25 3.25,-3.25c1.79493,0 3.25,1.45507 3.25,3.25c0,1.79493 -1.45507,3.25 -3.25,3.25c-1.79493,0 -3.25,-1.45507 -3.25,-3.25z" fill="#bfa47a" stroke-width="0.5"/><path d="M466.70248,319.55684c0,-1.79493 1.45507,-3.25 3.25,-3.25c1.79493,0 3.25,1.45507 3.25,3.25c0,1.79493 -1.45507,3.25 -3.25,3.25c-1.79493,0 -3.25,-1.45507 -3.25,-3.25z" fill="#bfa47a" stroke-width="0.5"/><path d="M466.70248,269.55684c0,-1.79493 1.45507,-3.25 3.25,-3.25c1.79493,0 3.25,1.45507 3.25,3.25c0,1.79493 -1.45507,3.25 -3.25,3.25c-1.79493,0 -3.25,-1.45507 -3.25,-3.25z" fill="#bfa47a" stroke-width="0.5"/><path d="M497.70248,239.55684c0,-1.79493 1.45507,-3.25 3.25,-3.25c1.79493,0 3.25,1.45507 3.25,3.25c0,1.79493 -1.45507,3.25 -3.25,3.25c-1.79493,0 -3.25,-1.45507 -3.25,-3.25z" fill="#bfa47a" stroke-width="0.5"/><path d="M458.70248,213.55684c0,-1.79493 1.45507,-3.25 3.25,-3.25c1.79493,0 3.25,1.45507 3.25,3.25c0,1.79493 -1.45507,3.25 -3.25,3.25c-1.79493,0 -3.25,-1.45507 -3.25,-3.25z" fill="#bfa47a" stroke-width="0.5"/></g></g></svg>