<svg version="1.1" xmlns="http://www.w3.org/2000/svg" xmlns:xlink="http://www.w3.org/1999/xlink" width="631.99999" height="587.30847" viewBox="0,0,631.99999,587.30847"><g transform="translate(49.72564,117.49563)"><g data-paper-data="{&quot;isPaintingLayer&quot;:true}" fill-rule="nonzero" stroke="none" stroke-linecap="butt" stroke-linejoin="miter" stroke-miterlimit="10" stroke-dasharray="" stroke-dashoffset="0" style="mix-blend-mode: normal"><path d="" data-paper-data="{&quot;index&quot;:null}" fill="#ceb184" stroke-width="0"/><path d="" data-paper-data="{&quot;index&quot;:null}" fill="#e2c291" stroke-width="0"/><path d="" data-paper-data="{&quot;index&quot;:null}" fill="#bfa47a" stroke-width="0.5"/><path d="" data-paper-data="{&quot;index&quot;:null}" fill="#bfa47a" stroke-width="0.5"/><path d="" data-paper-data="{&quot;index&quot;:null}" fill="#bfa47a" stroke-width="0.5"/><path d="" data-paper-data="{&quot;index&quot;:null}" fill="#bfa47a" stroke-width="0.5"/><path d="" data-paper-data="{&quot;index&quot;:null}" fill="#bfa47a" stroke-width="0.5"/><path d="" data-paper-data="{&quot;index&quot;:null}" fill="#bfa47a" stroke-width="0.5"/><path d="" data-paper-data="{&quot;index&quot;:null}" fill="#bfa47a" stroke-width="0.5"/><path d="" data-paper-data="{&quot;index&quot;:null}" fill="#bfa47a" stroke-width="0.5"/><path d="" data-paper-data="{&quot;index&quot;:null}" fill="#bfa47a" stroke-width="0.5"/><path d="" data-paper-data="{&quot;index&quot;:null}" fill="#bfa47a" stroke-width="0.5"/><path d="" data-paper-data="{&quot;index&quot;:null}" fill="#bfa47a" stroke-width="0.5"/><path d="" data-paper-data="{&quot;index&quot;:null}" fill="#bfa47a" stroke-width="0.5"/><path d="" data-paper-data="{&quot;index&quot;:null}" fill="#bfa47a" stroke-width="0.5"/><path d="" data-paper-data="{&quot;index&quot;:null}" fill="#bfa47a" stroke-width="0.5"/><path d="" data-paper-data="{&quot;index&quot;:null}" fill="#bfa47a" stroke-width="0.5"/><path d="" data-paper-data="{&quot;index&quot;:null}" fill="#bfa47a" stroke-width="0.5"/><path d="" data-paper-data="{&quot;index&quot;:null}" fill="#bfa47a" stroke-width="0.5"/><path d="" data-paper-data="{&quot;index&quot;:null}" fill="#bfa47a" stroke-width="0.5"/><path d="" data-paper-data="{&quot;index&quot;:null}" fill="#bfa47a" stroke-width="0.5"/><path d="" data-paper-data="{&quot;index&quot;:null}" fill="#bfa47a" stroke-width="0.5"/><path d="" data-paper-data="{&quot;index&quot;:null}" fill="#bfa47a" stroke-width="0.5"/><path d="" data-paper-data="{&quot;index&quot;:null}" fill="#bfa47a" stroke-width="0.5"/><path d="" data-paper-data="{&quot;index&quot;:null}" fill="#bfa47a" stroke-width="0.5"/><path d="" data-paper-data="{&quot;index&quot;:null}" fill="#bfa47a" stroke-width="0.5"/><path d="" data-paper-data="{&quot;index&quot;:null}" fill="#bfa47a" stroke-width="0.5"/><path d="" data-paper-data="{&quot;index&quot;:null}" fill="#bfa47a" stroke-width="0.5"/><path d="" data-paper-data="{&quot;index&quot;:null}" fill="#bfa47a" stroke-width="0.5"/><path d="" data-paper-data="{&quot;index&quot;:null}" fill="#bfa47a" stroke-width="0.5"/><path d="" data-paper-data="{&quot;index&quot;:null}" fill="#bfa47a" stroke-width="0.5"/><path d="" data-paper-data="{&quot;index&quot;:null}" fill="#bfa47a" stroke-width="0.5"/><path d="" data-paper-data="{&quot;index&quot;:null}" fill="#bfa47a" stroke-width="0.5"/><path d="" data-paper-data="{&quot;index&quot;:null}" fill="#bfa47a" stroke-width="0.5"/><path d="" data-paper-data="{&quot;index&quot;:null}" fill="#bfa47a" stroke-width="0.5"/><path d="" data-paper-data="{&quot;index&quot;:null}" fill="#bfa47a" stroke-width="0.5"/><path d="" data-paper-data="{&quot;index&quot;:null}" fill="#bfa47a" stroke-width="0.5"/><path d="" data-paper-data="{&quot;index&quot;:null}" fill="#bfa47a" stroke-width="0.5"/><path d="" data-paper-data="{&quot;index&quot;:null}" fill="#bfa47a" stroke-width="0.5"/><path d="" data-paper-data="{&quot;index&quot;:null}" fill="#bfa47a" stroke-width="0.5"/><path d="" data-paper-data="{&quot;index&quot;:null}" fill="#bfa47a" stroke-width="0.5"/><g><path d="M579.27438,-94.93882l-30,135c0,0 -63.24792,19.27354 -111.86064,12.42327c-41.19551,-5.80507 -120.3659,0.9643 -198.79515,-1.4549c-48.92859,-1.50923 -95.12553,-13.92426 -139.13288,-12.70193c-76.444,2.12327 -134.21134,14.73356 -134.21134,14.73356l-15,-148z" data-paper-data="{&quot;index&quot;:null}" fill="#ceb184" stroke-width="0"/><path d="M581.27438,-103.93882l-30,135c0,0 -63.24792,19.27354 -111.86064,12.42327c-41.19551,-5.80507 -120.3659,0.9643 -198.79515,-1.4549c-48.92859,-1.50923 -95.12553,-13.92426 -139.13288,-12.70193c-76.444,2.12327 -134.21134,14.73356 -134.21134,14.73356l-15,-148z" data-paper-data="{&quot;index&quot;:null}" fill="#e2c291" stroke-width="0"/><path d="M581.27438,-111.93881l-30,135c0,0 -63.24792,19.27354 -111.86064,12.42327c-41.19551,-5.80507 -120.3659,0.96429 -198.79515,-1.45491c-48.9286,-1.50923 -95.12554,-13.92426 -139.13288,-12.70193c-76.44398,2.12328 -134.21133,14.73357 -134.21133,14.73357l-15,-148z" data-paper-data="{&quot;index&quot;:null}" fill="#ffdaa2" stroke-width="0"/><path d="M-6.55801,-8.49563c1.79493,0 3.25,1.45507 3.25,3.25c0,1.79493 -1.45507,3.25 -3.25,3.25c-1.79493,0 -3.25,-1.45507 -3.25,-3.25c0,-1.79493 1.45507,-3.25 3.25,-3.25z" data-paper-data="{&quot;index&quot;:null}" fill="#bfa47a" stroke-width="0.5"/><path d="M8.44199,-50.49563c1.79493,0 3.25,1.45507 3.25,3.25c0,1.79493 -1.45507,3.25 -3.25,3.25c-1.79493,0 -3.25,-1.45507 -3.25,-3.25c0,-1.79493 1.45507,-3.25 3.25,-3.25z" data-paper-data="{&quot;index&quot;:null}" fill="#bfa47a" stroke-width="0.5"/><path d="M45.44199,-25.49563c1.79493,0 3.25,1.45507 3.25,3.25c0,1.79493 -1.45507,3.25 -3.25,3.25c-1.79493,0 -3.25,-1.45507 -3.25,-3.25c0,-1.79493 1.45507,-3.25 3.25,-3.25z" data-paper-data="{&quot;index&quot;:null}" fill="#bfa47a" stroke-width="0.5"/><path d="M82.44199,-66.49563c1.79493,0 3.25,1.45507 3.25,3.25c0,1.79493 -1.45507,3.25 -3.25,3.25c-1.79493,0 -3.25,-1.45507 -3.25,-3.25c0,-1.79493 1.45507,-3.25 3.25,-3.25z" data-paper-data="{&quot;index&quot;:null}" fill="#bfa47a" stroke-width="0.5"/><path d="M-9.55801,-117.49563c1.79493,0 3.25,1.45507 3.25,3.25c0,1.79493 -1.45507,3.25 -3.25,3.25c-1.79493,0 -3.25,-1.45507 -3.25,-3.25c0,-1.79493 1.45507,-3.25 3.25,-3.25z" data-paper-data="{&quot;index&quot;:null}" fill="#bfa47a" stroke-width="0.5"/><path d="M100.44199,-23.49563c1.79493,0 3.25,1.45507 3.25,3.25c0,1.79493 -1.45507,3.25 -3.25,3.25c-1.79493,0 -3.25,-1.45507 -3.25,-3.25c0,-1.79493 1.45507,-3.25 3.25,-3.25z" data-paper-data="{&quot;index&quot;:null}" fill="#bfa47a" stroke-width="0.5"/><path d="M79.44199,6.50437c1.79493,0 3.25,1.45507 3.25,3.25c0,1.79493 -1.45507,3.25 -3.25,3.25c-1.79493,0 -3.25,-1.45507 -3.25,-3.25c0,-1.79493 1.45507,-3.25 3.25,-3.25z" data-paper-data="{&quot;index&quot;:null}" fill="#bfa47a" stroke-width="0.5"/><path d="M51.44199,-67.49563c1.79493,0 3.25,1.45507 3.25,3.25c0,1.79493 -1.45507,3.25 -3.25,3.25c-1.79493,0 -3.25,-1.45507 -3.25,-3.25c0,-1.79493 1.45507,-3.25 3.25,-3.25z" data-paper-data="{&quot;index&quot;:null}" fill="#bfa47a" stroke-width="0.5"/><path d="M28.44199,11.50437c1.79493,0 3.25,1.45507 3.25,3.25c0,1.79493 -1.45507,3.25 -3.25,3.25c-1.79493,0 -3.25,-1.45507 -3.25,-3.25c0,-1.79493 1.45507,-3.25 3.25,-3.25z" data-paper-data="{&quot;index&quot;:null}" fill="#bfa47a" stroke-width="0.5"/><path d="M133.44198,-86.49563c1.79493,0 3.25,1.45507 3.25,3.25c0,1.79493 -1.45507,3.25 -3.25,3.25c-1.79493,0 -3.25,-1.45507 -3.25,-3.25c0,-1.79493 1.45507,-3.25 3.25,-3.25z" data-paper-data="{&quot;index&quot;:null}" fill="#bfa47a" stroke-width="0.5"/><path d="M154.44198,-60.49563c1.79493,0 3.25,1.45507 3.25,3.25c0,1.79493 -1.45507,3.25 -3.25,3.25c-1.79493,0 -3.25,-1.45507 -3.25,-3.25c0,-1.79493 1.45507,-3.25 3.25,-3.25z" data-paper-data="{&quot;index&quot;:null}" fill="#bfa47a" stroke-width="0.5"/><path d="M122.44197,-38.49563c1.79493,0 3.25,1.45507 3.25,3.25c0,1.79493 -1.45507,3.25 -3.25,3.25c-1.79493,0 -3.25,-1.45507 -3.25,-3.25c0,-1.79493 1.45507,-3.25 3.25,-3.25z" data-paper-data="{&quot;index&quot;:null}" fill="#bfa47a" stroke-width="0.5"/><path d="M165.44198,-9.49563c1.79493,0 3.25,1.45507 3.25,3.25c0,1.79493 -1.45507,3.25 -3.25,3.25c-1.79493,0 -3.25,-1.45507 -3.25,-3.25c0,-1.79493 1.45507,-3.25 3.25,-3.25z" data-paper-data="{&quot;index&quot;:null}" fill="#bfa47a" stroke-width="0.5"/><path d="M212.44199,-22.49563c1.79493,0 3.25,1.45507 3.25,3.25c0,1.79493 -1.45507,3.25 -3.25,3.25c-1.79493,0 -3.25,-1.45507 -3.25,-3.25c0,-1.79493 1.45507,-3.25 3.25,-3.25z" data-paper-data="{&quot;index&quot;:null}" fill="#bfa47a" stroke-width="0.5"/><path d="M129.44198,5.50437c1.79493,0 3.25,1.45507 3.25,3.25c0,1.79493 -1.45507,3.25 -3.25,3.25c-1.79493,0 -3.25,-1.45507 -3.25,-3.25c0,-1.79493 1.45507,-3.25 3.25,-3.25z" data-paper-data="{&quot;index&quot;:null}" fill="#bfa47a" stroke-width="0.5"/><path d="M192.44199,-56.49563c1.79493,0 3.25,1.45507 3.25,3.25c0,1.79493 -1.45507,3.25 -3.25,3.25c-1.79493,0 -3.25,-1.45507 -3.25,-3.25c0,-1.79493 1.45507,-3.25 3.25,-3.25z" data-paper-data="{&quot;index&quot;:null}" fill="#bfa47a" stroke-width="0.5"/><path d="M249.44199,-54.49563c1.79493,0 3.25,1.45507 3.25,3.25c0,1.79493 -1.45507,3.25 -3.25,3.25c-1.79493,0 -3.25,-1.45507 -3.25,-3.25c0,-1.79493 1.45507,-3.25 3.25,-3.25z" data-paper-data="{&quot;index&quot;:null}" fill="#bfa47a" stroke-width="0.5"/><path d="M225.44199,-76.49563c1.79493,0 3.25,1.45507 3.25,3.25c0,1.79493 -1.45507,3.25 -3.25,3.25c-1.79493,0 -3.25,-1.45507 -3.25,-3.25c0,-1.79493 1.45507,-3.25 3.25,-3.25z" data-paper-data="{&quot;index&quot;:null}" fill="#bfa47a" stroke-width="0.5"/><path d="M171.44199,-97.49563c1.79493,0 3.25,1.45507 3.25,3.25c0,1.79493 -1.45507,3.25 -3.25,3.25c-1.79493,0 -3.25,-1.45507 -3.25,-3.25c0,-1.79493 1.45507,-3.25 3.25,-3.25z" data-paper-data="{&quot;index&quot;:null}" fill="#bfa47a" stroke-width="0.5"/><path d="M209.44199,16.50437c1.79493,0 3.25,1.45507 3.25,3.25c0,1.79493 -1.45507,3.25 -3.25,3.25c-1.79493,0 -3.25,-1.45507 -3.25,-3.25c0,-1.79493 1.45507,-3.25 3.25,-3.25z" data-paper-data="{&quot;index&quot;:null}" fill="#bfa47a" stroke-width="0.5"/><path d="M259.44199,3.50437c1.79493,0 3.25,1.45507 3.25,3.25c0,1.79493 -1.45507,3.25 -3.25,3.25c-1.79493,0 -3.25,-1.45507 -3.25,-3.25c0,-1.79493 1.45507,-3.25 3.25,-3.25z" data-paper-data="{&quot;index&quot;:null}" fill="#bfa47a" stroke-width="0.5"/><path d="M284.44199,-38.49563c1.79493,0 3.25,1.45507 3.25,3.25c0,1.79493 -1.45507,3.25 -3.25,3.25c-1.79493,0 -3.25,-1.45507 -3.25,-3.25c0,-1.79493 1.45507,-3.25 3.25,-3.25z" data-paper-data="{&quot;index&quot;:null}" fill="#bfa47a" stroke-width="0.5"/><path d="M276.44199,-88.49563c1.79493,0 3.25,1.45507 3.25,3.25c0,1.79493 -1.45507,3.25 -3.25,3.25c-1.79493,0 -3.25,-1.45507 -3.25,-3.25c0,-1.79493 1.45507,-3.25 3.25,-3.25z" data-paper-data="{&quot;index&quot;:null}" fill="#bfa47a" stroke-width="0.5"/><path d="M311.44199,-65.49563c1.79493,0 3.25,1.45507 3.25,3.25c0,1.79493 -1.45507,3.25 -3.25,3.25c-1.79493,0 -3.25,-1.45507 -3.25,-3.25c0,-1.79493 1.45507,-3.25 3.25,-3.25z" data-paper-data="{&quot;index&quot;:null}" fill="#bfa47a" stroke-width="0.5"/><path d="M312.44199,-32.49563c1.79493,0 3.25,1.45507 3.25,3.25c0,1.79493 -1.45507,3.25 -3.25,3.25c-1.79493,0 -3.25,-1.45507 -3.25,-3.25c0,-1.79493 1.45507,-3.25 3.25,-3.25z" data-paper-data="{&quot;index&quot;:null}" fill="#bfa47a" stroke-width="0.5"/><path d="M286.44199,8.50437c1.79493,0 3.25,1.45507 3.25,3.25c0,1.79493 -1.45507,3.25 -3.25,3.25c-1.79493,0 -3.25,-1.45507 -3.25,-3.25c0,-1.79493 1.45507,-3.25 3.25,-3.25z" data-paper-data="{&quot;index&quot;:null}" fill="#bfa47a" stroke-width="0.5"/><path d="M334.44199,16.50437c1.79493,0 3.25,1.45507 3.25,3.25c0,1.79493 -1.45507,3.25 -3.25,3.25c-1.79493,0 -3.25,-1.45507 -3.25,-3.25c0,-1.79493 1.45507,-3.25 3.25,-3.25z" data-paper-data="{&quot;index&quot;:null}" fill="#bfa47a" stroke-width="0.5"/><path d="M379.44199,-42.49563c1.79493,0 3.25,1.45507 3.25,3.25c0,1.79493 -1.45507,3.25 -3.25,3.25c-1.79493,0 -3.25,-1.45507 -3.25,-3.25c0,-1.79493 1.45507,-3.25 3.25,-3.25z" data-paper-data="{&quot;index&quot;:null}" fill="#bfa47a" stroke-width="0.5"/><path d="M357.44199,-80.49563c1.79493,0 3.25,1.45507 3.25,3.25c0,1.79493 -1.45507,3.25 -3.25,3.25c-1.79493,0 -3.25,-1.45507 -3.25,-3.25c0,-1.79493 1.45507,-3.25 3.25,-3.25z" data-paper-data="{&quot;index&quot;:null}" fill="#bfa47a" stroke-width="0.5"/><path d="M399.44199,-69.49563c1.79493,0 3.25,1.45507 3.25,3.25c0,1.79493 -1.45507,3.25 -3.25,3.25c-1.79493,0 -3.25,-1.45507 -3.25,-3.25c0,-1.79493 1.45507,-3.25 3.25,-3.25z" data-paper-data="{&quot;index&quot;:null}" fill="#bfa47a" stroke-width="0.5"/><path d="M422.44199,-43.49563c1.79493,0 3.25,1.45507 3.25,3.25c0,1.79493 -1.45507,3.25 -3.25,3.25c-1.79493,0 -3.25,-1.45507 -3.25,-3.25c0,-1.79493 1.45507,-3.25 3.25,-3.25z" data-paper-data="{&quot;index&quot;:null}" fill="#bfa47a" stroke-width="0.5"/><path d="M402.44199,-3.49563c1.79493,0 3.25,1.45507 3.25,3.25c0,1.79493 -1.45507,3.25 -3.25,3.25c-1.79493,0 -3.25,-1.45507 -3.25,-3.25c0,-1.79493 1.45507,-3.25 3.25,-3.25z" data-paper-data="{&quot;index&quot;:null}" fill="#bfa47a" stroke-width="0.5"/><path d="M352.44199,-33.49563c1.79493,0 3.25,1.45507 3.25,3.25c0,1.79493 -1.45507,3.25 -3.25,3.25c-1.79493,0 -3.25,-1.45507 -3.25,-3.25c0,-1.79493 1.45507,-3.25 3.25,-3.25z" data-paper-data="{&quot;index&quot;:null}" fill="#bfa47a" stroke-width="0.5"/><path d="M426.44199,7.50437c1.79493,0 3.25,1.45507 3.25,3.25c0,1.79493 -1.45507,3.25 -3.25,3.25c-1.79493,0 -3.25,-1.45507 -3.25,-3.25c0,-1.79493 1.45507,-3.25 3.25,-3.25z" data-paper-data="{&quot;index&quot;:null}" fill="#bfa47a" stroke-width="0.5"/><path d="M481.442,-38.49563c1.79493,0 3.25,1.45507 3.25,3.25c0,1.79493 -1.45507,3.25 -3.25,3.25c-1.79493,0 -3.25,-1.45507 -3.25,-3.25c0,-1.79493 1.45507,-3.25 3.25,-3.25z" data-paper-data="{&quot;index&quot;:null}" fill="#bfa47a" stroke-width="0.5"/><path d="M451.44199,-68.49563c1.79493,0 3.25,1.45507 3.25,3.25c0,1.79493 -1.45507,3.25 -3.25,3.25c-1.79493,0 -3.25,-1.45507 -3.25,-3.25c0,-1.79493 1.45507,-3.25 3.25,-3.25z" data-paper-data="{&quot;index&quot;:null}" fill="#bfa47a" stroke-width="0.5"/><path d="M449.44199,-112.49563c1.79493,0 3.25,1.45507 3.25,3.25c0,1.79493 -1.45507,3.25 -3.25,3.25c-1.79493,0 -3.25,-1.45507 -3.25,-3.25c0,-1.79493 1.45507,-3.25 3.25,-3.25z" data-paper-data="{&quot;index&quot;:null}" fill="#bfa47a" stroke-width="0.5"/><path d="M445.44199,-28.49563c1.79493,0 3.25,1.45507 3.25,3.25c0,1.79493 -1.45507,3.25 -3.25,3.25c-1.79493,0 -3.25,-1.45507 -3.25,-3.25c0,-1.79493 1.45507,-3.25 3.25,-3.25z" data-paper-data="{&quot;index&quot;:null}" fill="#bfa47a" stroke-width="0.5"/><path d="M462.442,-3.49563c1.79493,0 3.25,1.45507 3.25,3.25c0,1.79493 -1.45507,3.25 -3.25,3.25c-1.79493,0 -3.25,-1.45507 -3.25,-3.25c0,-1.79493 1.45507,-3.25 3.25,-3.25z" data-paper-data="{&quot;index&quot;:null}" fill="#bfa47a" stroke-width="0.5"/><path d="M370.44199,16.50437c1.79493,0 3.25,1.45507 3.25,3.25c0,1.79493 -1.45507,3.25 -3.25,3.25c-1.79493,0 -3.25,-1.45507 -3.25,-3.25c0,-1.79493 1.45507,-3.25 3.25,-3.25z" data-paper-data="{&quot;index&quot;:null}" fill="#bfa47a" stroke-width="0.5"/></g><g data-paper-data="{&quot;index&quot;:null}"><path d="M-46.72566,447.25603l30,-135c0,0 63.24792,-19.27354 111.86064,-12.42327c41.19551,5.80507 120.3659,-0.9643 198.79515,1.4549c48.92859,1.50923 95.12553,13.92426 139.13288,12.70193c76.444,-2.12327 134.21134,-14.73356 134.21134,-14.73356l15,148z" data-paper-data="{&quot;index&quot;:null}" fill="#ceb184" stroke-width="0"/><path d="M-48.72566,456.25603l30,-135c0,0 63.24792,-19.27354 111.86064,-12.42327c41.19551,5.80507 120.3659,-0.9643 198.79515,1.4549c48.92859,1.50923 95.12553,13.92426 139.13288,12.70193c76.444,-2.12327 134.21134,-14.73356 134.21134,-14.73356l15,148z" data-paper-data="{&quot;index&quot;:null}" fill="#e2c291" stroke-width="0"/><path d="M-48.72566,464.25602l30,-135c0,0 63.24792,-19.27354 111.86064,-12.42327c41.19551,5.80507 120.3659,-0.96429 198.79515,1.45491c48.9286,1.50923 95.12554,13.92426 139.13288,12.70193c76.44398,-2.12328 134.21133,-14.73357 134.21133,-14.73357l15,148z" data-paper-data="{&quot;index&quot;:null}" fill="#ffdaa2" stroke-width="0"/><path d="M539.10671,360.81284c-1.79493,0 -3.25,-1.45507 -3.25,-3.25c0,-1.79493 1.45507,-3.25 3.25,-3.25c1.79493,0 3.25,1.45507 3.25,3.25c0,1.79493 -1.45507,3.25 -3.25,3.25z" data-paper-data="{&quot;index&quot;:null}" fill="#bfa47a" stroke-width="0.5"/><path d="M524.10671,402.81284c-1.79493,0 -3.25,-1.45507 -3.25,-3.25c0,-1.79493 1.45507,-3.25 3.25,-3.25c1.79493,0 3.25,1.45507 3.25,3.25c0,1.79493 -1.45507,3.25 -3.25,3.25z" data-paper-data="{&quot;index&quot;:null}" fill="#bfa47a" stroke-width="0.5"/><path d="M487.10671,377.81284c-1.79493,0 -3.25,-1.45507 -3.25,-3.25c0,-1.79493 1.45507,-3.25 3.25,-3.25c1.79493,0 3.25,1.45507 3.25,3.25c0,1.79493 -1.45507,3.25 -3.25,3.25z" data-paper-data="{&quot;index&quot;:null}" fill="#bfa47a" stroke-width="0.5"/><path d="M450.10671,418.81284c-1.79493,0 -3.25,-1.45507 -3.25,-3.25c0,-1.79493 1.45507,-3.25 3.25,-3.25c1.79493,0 3.25,1.45507 3.25,3.25c0,1.79493 -1.45507,3.25 -3.25,3.25z" data-paper-data="{&quot;index&quot;:null}" fill="#bfa47a" stroke-width="0.5"/><path d="M542.10671,469.81284c-1.79493,0 -3.25,-1.45507 -3.25,-3.25c0,-1.79493 1.45507,-3.25 3.25,-3.25c1.79493,0 3.25,1.45507 3.25,3.25c0,1.79493 -1.45507,3.25 -3.25,3.25z" data-paper-data="{&quot;index&quot;:null}" fill="#bfa47a" stroke-width="0.5"/><path d="M432.10671,375.81284c-1.79493,0 -3.25,-1.45507 -3.25,-3.25c0,-1.79493 1.45507,-3.25 3.25,-3.25c1.79493,0 3.25,1.45507 3.25,3.25c0,1.79493 -1.45507,3.25 -3.25,3.25z" data-paper-data="{&quot;index&quot;:null}" fill="#bfa47a" stroke-width="0.5"/><path d="M453.10671,345.81284c-1.79493,0 -3.25,-1.45507 -3.25,-3.25c0,-1.79493 1.45507,-3.25 3.25,-3.25c1.79493,0 3.25,1.45507 3.25,3.25c0,1.79493 -1.45507,3.25 -3.25,3.25z" data-paper-data="{&quot;index&quot;:null}" fill="#bfa47a" stroke-width="0.5"/><path d="M481.10671,419.81284c-1.79493,0 -3.25,-1.45507 -3.25,-3.25c0,-1.79493 1.45507,-3.25 3.25,-3.25c1.79493,0 3.25,1.45507 3.25,3.25c0,1.79493 -1.45507,3.25 -3.25,3.25z" data-paper-data="{&quot;index&quot;:null}" fill="#bfa47a" stroke-width="0.5"/><path d="M504.10671,340.81284c-1.79493,0 -3.25,-1.45507 -3.25,-3.25c0,-1.79493 1.45507,-3.25 3.25,-3.25c1.79493,0 3.25,1.45507 3.25,3.25c0,1.79493 -1.45507,3.25 -3.25,3.25z" data-paper-data="{&quot;index&quot;:null}" fill="#bfa47a" stroke-width="0.5"/><path d="M399.10671,438.81284c-1.79493,0 -3.25,-1.45507 -3.25,-3.25c0,-1.79493 1.45507,-3.25 3.25,-3.25c1.79493,0 3.25,1.45507 3.25,3.25c0,1.79493 -1.45507,3.25 -3.25,3.25z" data-paper-data="{&quot;index&quot;:null}" fill="#bfa47a" stroke-width="0.5"/><path d="M378.10671,412.81284c-1.79493,0 -3.25,-1.45507 -3.25,-3.25c0,-1.79493 1.45507,-3.25 3.25,-3.25c1.79493,0 3.25,1.45507 3.25,3.25c0,1.79493 -1.45507,3.25 -3.25,3.25z" data-paper-data="{&quot;index&quot;:null}" fill="#bfa47a" stroke-width="0.5"/><path d="M410.10673,390.81284c-1.79493,0 -3.25,-1.45507 -3.25,-3.25c0,-1.79493 1.45507,-3.25 3.25,-3.25c1.79493,0 3.25,1.45507 3.25,3.25c0,1.79493 -1.45507,3.25 -3.25,3.25z" data-paper-data="{&quot;index&quot;:null}" fill="#bfa47a" stroke-width="0.5"/><path d="M367.10671,361.81284c-1.79493,0 -3.25,-1.45507 -3.25,-3.25c0,-1.79493 1.45507,-3.25 3.25,-3.25c1.79493,0 3.25,1.45507 3.25,3.25c0,1.79493 -1.45507,3.25 -3.25,3.25z" data-paper-data="{&quot;index&quot;:null}" fill="#bfa47a" stroke-width="0.5"/><path d="M320.10671,374.81284c-1.79493,0 -3.25,-1.45507 -3.25,-3.25c0,-1.79493 1.45507,-3.25 3.25,-3.25c1.79493,0 3.25,1.45507 3.25,3.25c0,1.79493 -1.45507,3.25 -3.25,3.25z" data-paper-data="{&quot;index&quot;:null}" fill="#bfa47a" stroke-width="0.5"/><path d="M403.10671,346.81284c-1.79493,0 -3.25,-1.45507 -3.25,-3.25c0,-1.79493 1.45507,-3.25 3.25,-3.25c1.79493,0 3.25,1.45507 3.25,3.25c0,1.79493 -1.45507,3.25 -3.25,3.25z" data-paper-data="{&quot;index&quot;:null}" fill="#bfa47a" stroke-width="0.5"/><path d="M340.10671,408.81284c-1.79493,0 -3.25,-1.45507 -3.25,-3.25c0,-1.79493 1.45507,-3.25 3.25,-3.25c1.79493,0 3.25,1.45507 3.25,3.25c0,1.79493 -1.45507,3.25 -3.25,3.25z" data-paper-data="{&quot;index&quot;:null}" fill="#bfa47a" stroke-width="0.5"/><path d="M283.10671,406.81284c-1.79493,0 -3.25,-1.45507 -3.25,-3.25c0,-1.79493 1.45507,-3.25 3.25,-3.25c1.79493,0 3.25,1.45507 3.25,3.25c0,1.79493 -1.45507,3.25 -3.25,3.25z" data-paper-data="{&quot;index&quot;:null}" fill="#bfa47a" stroke-width="0.5"/><path d="M307.10671,428.81284c-1.79493,0 -3.25,-1.45507 -3.25,-3.25c0,-1.79493 1.45507,-3.25 3.25,-3.25c1.79493,0 3.25,1.45507 3.25,3.25c0,1.79493 -1.45507,3.25 -3.25,3.25z" data-paper-data="{&quot;index&quot;:null}" fill="#bfa47a" stroke-width="0.5"/><path d="M361.10671,449.81284c-1.79493,0 -3.25,-1.45507 -3.25,-3.25c0,-1.79493 1.45507,-3.25 3.25,-3.25c1.79493,0 3.25,1.45507 3.25,3.25c0,1.79493 -1.45507,3.25 -3.25,3.25z" data-paper-data="{&quot;index&quot;:null}" fill="#bfa47a" stroke-width="0.5"/><path d="M323.10671,335.81284c-1.79493,0 -3.25,-1.45507 -3.25,-3.25c0,-1.79493 1.45507,-3.25 3.25,-3.25c1.79493,0 3.25,1.45507 3.25,3.25c0,1.79493 -1.45507,3.25 -3.25,3.25z" data-paper-data="{&quot;index&quot;:null}" fill="#bfa47a" stroke-width="0.5"/><path d="M273.10673,348.81284c-1.79493,0 -3.25,-1.45507 -3.25,-3.25c0,-1.79493 1.45507,-3.25 3.25,-3.25c1.79493,0 3.25,1.45507 3.25,3.25c0,1.79493 -1.45507,3.25 -3.25,3.25z" data-paper-data="{&quot;index&quot;:null}" fill="#bfa47a" stroke-width="0.5"/><path d="M248.10673,390.81284c-1.79493,0 -3.25,-1.45507 -3.25,-3.25c0,-1.79493 1.45507,-3.25 3.25,-3.25c1.79493,0 3.25,1.45507 3.25,3.25c0,1.79493 -1.45507,3.25 -3.25,3.25z" data-paper-data="{&quot;index&quot;:null}" fill="#bfa47a" stroke-width="0.5"/><path d="M256.10673,440.81284c-1.79493,0 -3.25,-1.45507 -3.25,-3.25c0,-1.79493 1.45507,-3.25 3.25,-3.25c1.79493,0 3.25,1.45507 3.25,3.25c0,1.79493 -1.45507,3.25 -3.25,3.25z" data-paper-data="{&quot;index&quot;:null}" fill="#bfa47a" stroke-width="0.5"/><path d="M221.10673,417.81284c-1.79493,0 -3.25,-1.45507 -3.25,-3.25c0,-1.79493 1.45507,-3.25 3.25,-3.25c1.79493,0 3.25,1.45507 3.25,3.25c0,1.79493 -1.45507,3.25 -3.25,3.25z" data-paper-data="{&quot;index&quot;:null}" fill="#bfa47a" stroke-width="0.5"/><path d="M220.10673,384.81284c-1.79493,0 -3.25,-1.45507 -3.25,-3.25c0,-1.79493 1.45507,-3.25 3.25,-3.25c1.79493,0 3.25,1.45507 3.25,3.25c0,1.79493 -1.45507,3.25 -3.25,3.25z" data-paper-data="{&quot;index&quot;:null}" fill="#bfa47a" stroke-width="0.5"/><path d="M246.10673,343.81284c-1.79493,0 -3.25,-1.45507 -3.25,-3.25c0,-1.79493 1.45507,-3.25 3.25,-3.25c1.79493,0 3.25,1.45507 3.25,3.25c0,1.79493 -1.45507,3.25 -3.25,3.25z" data-paper-data="{&quot;index&quot;:null}" fill="#bfa47a" stroke-width="0.5"/><path d="M198.10673,335.81284c-1.79493,0 -3.25,-1.45507 -3.25,-3.25c0,-1.79493 1.45507,-3.25 3.25,-3.25c1.79493,0 3.25,1.45507 3.25,3.25c0,1.79493 -1.45507,3.25 -3.25,3.25z" data-paper-data="{&quot;index&quot;:null}" fill="#bfa47a" stroke-width="0.5"/><path d="M153.10673,394.81284c-1.79493,0 -3.25,-1.45507 -3.25,-3.25c0,-1.79493 1.45507,-3.25 3.25,-3.25c1.79493,0 3.25,1.45507 3.25,3.25c0,1.79493 -1.45507,3.25 -3.25,3.25z" data-paper-data="{&quot;index&quot;:null}" fill="#bfa47a" stroke-width="0.5"/><path d="M175.10673,432.81284c-1.79493,0 -3.25,-1.45507 -3.25,-3.25c0,-1.79493 1.45507,-3.25 3.25,-3.25c1.79493,0 3.25,1.45507 3.25,3.25c0,1.79493 -1.45507,3.25 -3.25,3.25z" data-paper-data="{&quot;index&quot;:null}" fill="#bfa47a" stroke-width="0.5"/><path d="M133.10673,421.81284c-1.79493,0 -3.25,-1.45507 -3.25,-3.25c0,-1.79493 1.45507,-3.25 3.25,-3.25c1.79493,0 3.25,1.45507 3.25,3.25c0,1.79493 -1.45507,3.25 -3.25,3.25z" data-paper-data="{&quot;index&quot;:null}" fill="#bfa47a" stroke-width="0.5"/><path d="M110.10673,395.81284c-1.79493,0 -3.25,-1.45507 -3.25,-3.25c0,-1.79493 1.45507,-3.25 3.25,-3.25c1.79493,0 3.25,1.45507 3.25,3.25c0,1.79493 -1.45507,3.25 -3.25,3.25z" data-paper-data="{&quot;index&quot;:null}" fill="#bfa47a" stroke-width="0.5"/><path d="M130.10673,355.81284c-1.79493,0 -3.25,-1.45507 -3.25,-3.25c0,-1.79493 1.45507,-3.25 3.25,-3.25c1.79493,0 3.25,1.45507 3.25,3.25c0,1.79493 -1.45507,3.25 -3.25,3.25z" data-paper-data="{&quot;index&quot;:null}" fill="#bfa47a" stroke-width="0.5"/><path d="M180.10673,385.81284c-1.79493,0 -3.25,-1.45507 -3.25,-3.25c0,-1.79493 1.45507,-3.25 3.25,-3.25c1.79493,0 3.25,1.45507 3.25,3.25c0,1.79493 -1.45507,3.25 -3.25,3.25z" data-paper-data="{&quot;index&quot;:null}" fill="#bfa47a" stroke-width="0.5"/><path d="M106.10673,344.81284c-1.79493,0 -3.25,-1.45507 -3.25,-3.25c0,-1.79493 1.45507,-3.25 3.25,-3.25c1.79493,0 3.25,1.45507 3.25,3.25c0,1.79493 -1.45507,3.25 -3.25,3.25z" data-paper-data="{&quot;index&quot;:null}" fill="#bfa47a" stroke-width="0.5"/><path d="M51.10671,390.81284c-1.79493,0 -3.25,-1.45507 -3.25,-3.25c0,-1.79493 1.45507,-3.25 3.25,-3.25c1.79493,0 3.25,1.45507 3.25,3.25c0,1.79493 -1.45507,3.25 -3.25,3.25z" data-paper-data="{&quot;index&quot;:null}" fill="#bfa47a" stroke-width="0.5"/><path d="M81.10673,420.81284c-1.79493,0 -3.25,-1.45507 -3.25,-3.25c0,-1.79493 1.45507,-3.25 3.25,-3.25c1.79493,0 3.25,1.45507 3.25,3.25c0,1.79493 -1.45507,3.25 -3.25,3.25z" data-paper-data="{&quot;index&quot;:null}" fill="#bfa47a" stroke-width="0.5"/><path d="M83.10673,464.81284c-1.79493,0 -3.25,-1.45507 -3.25,-3.25c0,-1.79493 1.45507,-3.25 3.25,-3.25c1.79493,0 3.25,1.45507 3.25,3.25c0,1.79493 -1.45507,3.25 -3.25,3.25z" data-paper-data="{&quot;index&quot;:null}" fill="#bfa47a" stroke-width="0.5"/><path d="M87.10673,380.81284c-1.79493,0 -3.25,-1.45507 -3.25,-3.25c0,-1.79493 1.45507,-3.25 3.25,-3.25c1.79493,0 3.25,1.45507 3.25,3.25c0,1.79493 -1.45507,3.25 -3.25,3.25z" data-paper-data="{&quot;index&quot;:null}" fill="#bfa47a" stroke-width="0.5"/><path d="M70.10671,355.81284c-1.79493,0 -3.25,-1.45507 -3.25,-3.25c0,-1.79493 1.45507,-3.25 3.25,-3.25c1.79493,0 3.25,1.45507 3.25,3.25c0,1.79493 -1.45507,3.25 -3.25,3.25z" data-paper-data="{&quot;index&quot;:null}" fill="#bfa47a" stroke-width="0.5"/><path d="M162.10673,335.81284c-1.79493,0 -3.25,-1.45507 -3.25,-3.25c0,-1.79493 1.45507,-3.25 3.25,-3.25c1.79493,0 3.25,1.45507 3.25,3.25c0,1.79493 -1.45507,3.25 -3.25,3.25z" data-paper-data="{&quot;index&quot;:null}" fill="#bfa47a" stroke-width="0.5"/></g></g></g></svg>