<svg version="1.1" xmlns="http://www.w3.org/2000/svg" xmlns:xlink="http://www.w3.org/1999/xlink" width="499.33202" height="386.55075" viewBox="0,0,499.33202,386.55075"><g transform="translate(76.72623,-74.23408)"><g data-paper-data="{&quot;isPaintingLayer&quot;:true}" fill-rule="nonzero" stroke-linecap="butt" stroke-linejoin="miter" stroke-miterlimit="10" stroke-dasharray="" stroke-dashoffset="0" style="mix-blend-mode: normal"><path d="M352.70248,87.55684c0,-1.79493 1.45507,-3.25 3.25,-3.25c1.79493,0 3.25,1.45507 3.25,3.25c0,1.79493 -1.45507,3.25 -3.25,3.25c-1.79493,0 -3.25,-1.45507 -3.25,-3.25z" fill="#bfa47a" stroke="none" stroke-width="0.5"/><path d="M-57.71533,445.53482l24.78366,-111.52644c0,0 52.25048,-15.9223 92.4105,-10.26313c14.49778,2.04295 34.68875,2.20076 58.10029,1.8633c17.77005,-0.25614 6.00292,-68.53958 26.40261,-68.75857c3.13601,-0.03366 54.60215,-3.2733 63.89253,-1.01024c15.02928,3.66101 -7.92597,-89.08342 5.09398,-88.68182c9.57236,0.29527 52.76571,-3.84829 70.34492,-1.12127c30.53641,4.73704 -10.4121,-71.87915 17.33376,-72.64981c9.04418,-0.25121 40.85904,-2.40177 62.38761,-3.90276c11.92141,-0.83117 21.26393,7.62243 21.93163,18.16794c2.77009,43.75003 21.39352,337.8828 21.39352,337.8828z" data-paper-data="{&quot;index&quot;:null}" fill="#e2c291" stroke="#ceb184" stroke-width="30.5"/><path d="M-59.07235,444.17781l24.78366,-111.52644c0,0 52.25048,-15.9223 92.4105,-10.26313c14.49778,2.04295 34.68875,2.20076 58.10029,1.8633c17.77005,-0.25614 6.00292,-68.53958 26.40261,-68.75857c3.13601,-0.03366 54.60215,-3.2733 63.89253,-1.01024c15.02928,3.66101 -7.92597,-89.08342 5.09398,-88.68182c9.57236,0.29527 52.76571,-3.84829 70.34492,-1.12127c30.53641,4.73704 -10.4121,-71.87915 17.33376,-72.64981c9.34901,-0.25967 44.35874,-2.5489 66.7471,-4.05223c11.2633,-0.75631 19.82703,6.01572 20.42559,14.88119c2.7479,40.69987 23.04457,341.319 23.04457,341.319z" data-paper-data="{&quot;index&quot;:null}" fill="#e2c291" stroke="#e2c291" stroke-width="15.5"/><path d="M-61.21515,444.17781l24.78366,-111.52644c0,0 52.25048,-15.9223 92.4105,-10.26313c14.49778,2.04295 34.68875,2.20076 58.10029,1.8633c17.77005,-0.25614 6.00292,-68.53958 26.40261,-68.75857c3.13601,-0.03366 54.60215,-3.2733 63.89253,-1.01024c15.02928,3.66101 -7.92597,-89.08342 5.09398,-88.68182c9.57236,0.29527 52.76571,-3.84829 70.34492,-1.12127c30.53641,4.73704 -10.4121,-71.87915 17.33376,-72.64981c9.25822,-0.25715 43.6812,-2.50463 66.09133,-4.00821c11.60456,-0.7786 20.4877,6.04431 21.09108,14.98119c2.75722,40.83785 23.03485,341.17499 23.03485,341.17499z" data-paper-data="{&quot;index&quot;:null}" fill="#ffdaa2" stroke="none" stroke-width="0"/><path d="M285.83125,175.58431c0,-1.92309 1.55897,-3.48206 3.48206,-3.48206c1.92309,0 3.48206,1.55897 3.48206,3.48206c0,1.92309 -1.55897,3.48206 -3.48206,3.48206c-1.92309,0 -3.48206,-1.55897 -3.48206,-3.48206z" fill="#bfa47a" stroke="none" stroke-width="0.5"/><path d="M350.11545,150.94203c0,-1.92309 1.55897,-3.48206 3.48206,-3.48206c1.92309,0 3.48206,1.55897 3.48206,3.48206c0,1.92309 -1.55897,3.48206 -3.48206,3.48206c-1.92309,0 -3.48206,-1.55897 -3.48206,-3.48206z" fill="#bfa47a" stroke="none" stroke-width="0.5"/><path d="M343.68703,230.22587c0,-1.92309 1.55897,-3.48206 3.48206,-3.48206c1.92309,0 3.48206,1.55897 3.48206,3.48206c0,1.92309 -1.55897,3.48206 -3.48206,3.48206c-1.92309,0 -3.48206,-1.55897 -3.48206,-3.48206z" fill="#bfa47a" stroke="none" stroke-width="0.5"/><path d="M350.11545,284.86744c0,-1.92309 1.55897,-3.48206 3.48206,-3.48206c1.92309,0 3.48206,1.55897 3.48206,3.48206c0,1.92309 -1.55897,3.48206 -3.48206,3.48206c-1.92309,0 -3.48206,-1.55897 -3.48206,-3.48206z" fill="#bfa47a" stroke="none" stroke-width="0.5"/><path d="M287.97406,338.4376c0,-1.92309 1.55897,-3.48206 3.48206,-3.48206c1.92309,0 3.48206,1.55897 3.48206,3.48206c0,1.92309 -1.55897,3.48206 -3.48206,3.48206c-1.92309,0 -3.48206,-1.55897 -3.48206,-3.48206z" fill="#bfa47a" stroke="none" stroke-width="0.5"/><path d="M266.54599,279.51042c0,-1.92309 1.55897,-3.48206 3.48206,-3.48206c1.92309,0 3.48206,1.55897 3.48206,3.48206c0,1.92309 -1.55897,3.48206 -3.48206,3.48206c-1.92309,0 -3.48206,-1.55897 -3.48206,-3.48206z" fill="#bfa47a" stroke="none" stroke-width="0.5"/><path d="M171.1911,337.3662c0,-1.92309 1.55897,-3.48206 3.48206,-3.48206c1.92309,0 3.48206,1.55897 3.48206,3.48206c0,1.92309 -1.55897,3.48206 -3.48206,3.48206c-1.92309,0 -3.48206,-1.55897 -3.48206,-3.48206z" fill="#bfa47a" stroke="none" stroke-width="0.5"/><path d="M239.76091,392.00777c0,-1.92309 1.55897,-3.48206 3.48206,-3.48206c1.92309,0 3.48206,1.55897 3.48206,3.48206c0,1.92309 -1.55897,3.48206 -3.48206,3.48206c-1.92309,0 -3.48206,-1.55897 -3.48206,-3.48206z" fill="#bfa47a" stroke="none" stroke-width="0.5"/><path d="M246.18933,311.65252c0,-1.92309 1.55897,-3.48206 3.48206,-3.48206c1.92309,0 3.48206,1.55897 3.48206,3.48206c0,1.92309 -1.55897,3.48206 -3.48206,3.48206c-1.92309,0 -3.48206,-1.55897 -3.48206,-3.48206z" fill="#bfa47a" stroke="none" stroke-width="0.5"/><path d="M149.76304,284.86744c0,-1.92309 1.55897,-3.48206 3.48206,-3.48206c1.92309,0 3.48206,1.55897 3.48206,3.48206c0,1.92309 -1.55897,3.48206 -3.48206,3.48206c-1.92309,0 -3.48206,-1.55897 -3.48206,-3.48206z" fill="#bfa47a" stroke="none" stroke-width="0.5"/><path d="M209.76162,330.93778c0,-1.92309 1.55897,-3.48206 3.48206,-3.48206c1.92309,0 3.48206,1.55897 3.48206,3.48206c0,1.92309 -1.55897,3.48206 -3.48206,3.48206c-1.92309,0 -3.48206,-1.55897 -3.48206,-3.48206z" fill="#bfa47a" stroke="none" stroke-width="0.5"/><path d="M118.69234,381.29373c0,-1.92309 1.55897,-3.48206 3.48206,-3.48206c1.92309,0 3.48206,1.55897 3.48206,3.48206c0,1.92309 -1.55897,3.48206 -3.48206,3.48206c-1.92309,0 -3.48206,-1.55897 -3.48206,-3.48206z" fill="#bfa47a" stroke="none" stroke-width="0.5"/><path d="M58.69376,365.22268c0,-1.92309 1.55897,-3.48206 3.48206,-3.48206c1.92309,0 3.48206,1.55897 3.48206,3.48206c0,1.92309 -1.55897,3.48206 -3.48206,3.48206c-1.92309,0 -3.48206,-1.55897 -3.48206,-3.48206z" fill="#bfa47a" stroke="none" stroke-width="0.5"/><path d="M-20.59008,388.79356c0,-1.92309 1.55897,-3.48206 3.48206,-3.48206c1.92309,0 3.48206,1.55897 3.48206,3.48206c0,1.92309 -1.55897,3.48206 -3.48206,3.48206c-1.92309,0 -3.48206,-1.55897 -3.48206,-3.48206z" fill="#bfa47a" stroke="none" stroke-width="0.5"/><path d="M45.83692,409.15022c0,-1.92309 1.55897,-3.48206 3.48206,-3.48206c1.92309,0 3.48206,1.55897 3.48206,3.48206c0,1.92309 -1.55897,3.48206 -3.48206,3.48206c-1.92309,0 -3.48206,-1.55897 -3.48206,-3.48206z" fill="#bfa47a" stroke="none" stroke-width="0.5"/><path d="M99.40709,337.3662c0,-1.92309 1.55897,-3.48206 3.48206,-3.48206c1.92309,0 3.48206,1.55897 3.48206,3.48206c0,1.92309 -1.55897,3.48206 -3.48206,3.48206c-1.92309,0 -3.48206,-1.55897 -3.48206,-3.48206z" fill="#bfa47a" stroke="none" stroke-width="0.5"/><path d="M-13.09026,339.50901c0,-1.92309 1.55897,-3.48206 3.48206,-3.48206c1.92309,0 3.48206,1.55897 3.48206,3.48206c0,1.92309 -1.55897,3.48206 -3.48206,3.48206c-1.92309,0 -3.48206,-1.55897 -3.48206,-3.48206z" fill="#bfa47a" stroke="none" stroke-width="0.5"/><path d="M24.40886,370.5797c0,-1.92309 1.55897,-3.48206 3.48206,-3.48206c1.92309,0 3.48206,1.55897 3.48206,3.48206c0,1.92309 -1.55897,3.48206 -3.48206,3.48206c-1.92309,0 -3.48206,-1.55897 -3.48206,-3.48206z" fill="#bfa47a" stroke="none" stroke-width="0.5"/><path d="M178.69093,277.36762c0,-1.92309 1.55897,-3.48206 3.48206,-3.48206c1.92309,0 3.48206,1.55897 3.48206,3.48206c0,1.92309 -1.55897,3.48206 -3.48206,3.48206c-1.92309,0 -3.48206,-1.55897 -3.48206,-3.48206z" fill="#bfa47a" stroke="none" stroke-width="0.5"/><path d="M251.54635,276.29621c0,-1.92309 1.55897,-3.48206 3.48206,-3.48206c1.92309,0 3.48206,1.55897 3.48206,3.48206c0,1.92309 -1.55897,3.48206 -3.48206,3.48206c-1.92309,0 -3.48206,-1.55897 -3.48206,-3.48206z" fill="#bfa47a" stroke="none" stroke-width="0.5"/><path d="M246.18933,230.22587c0,-1.92309 1.55897,-3.48206 3.48206,-3.48206c1.92309,0 3.48206,1.55897 3.48206,3.48206c0,1.92309 -1.55897,3.48206 -3.48206,3.48206c-1.92309,0 -3.48206,-1.55897 -3.48206,-3.48206z" fill="#bfa47a" stroke="none" stroke-width="0.5"/><path d="M224.76127,176.65571c0,-1.92309 1.55897,-3.48206 3.48206,-3.48206c1.92309,0 3.48206,1.55897 3.48206,3.48206c0,1.92309 -1.55897,3.48206 -3.48206,3.48206c-1.92309,0 -3.48206,-1.55897 -3.48206,-3.48206z" fill="#bfa47a" stroke="none" stroke-width="0.5"/><path d="M314.75914,116.65713c0,-1.92309 1.55897,-3.48206 3.48206,-3.48206c1.92309,0 3.48206,1.55897 3.48206,3.48206c0,1.92309 -1.55897,3.48206 -3.48206,3.48206c-1.92309,0 -3.48206,-1.55897 -3.48206,-3.48206z" fill="#bfa47a" stroke="none" stroke-width="0.5"/><path d="M382.25755,185.22694c0,-1.92309 1.55897,-3.48206 3.48206,-3.48206c1.92309,0 3.48206,1.55897 3.48206,3.48206c0,1.92309 -1.55897,3.48206 -3.48206,3.48206c-1.92309,0 -3.48206,-1.55897 -3.48206,-3.48206z" fill="#bfa47a" stroke="none" stroke-width="0.5"/><path d="M327.61598,345.93743c0,-1.92309 1.55897,-3.48206 3.48206,-3.48206c1.92309,0 3.48206,1.55897 3.48206,3.48206c0,1.92309 -1.55897,3.48206 -3.48206,3.48206c-1.92309,0 -3.48206,-1.55897 -3.48206,-3.48206z" fill="#bfa47a" stroke="none" stroke-width="0.5"/><path d="M313.68774,377.00812c0,-1.92309 1.55897,-3.48206 3.48206,-3.48206c1.92309,0 3.48206,1.55897 3.48206,3.48206c0,1.92309 -1.55897,3.48206 -3.48206,3.48206c-1.92309,0 -3.48206,-1.55897 -3.48206,-3.48206z" fill="#bfa47a" stroke="none" stroke-width="0.5"/><path d="M307.25932,281.65323c0,-1.92309 1.55897,-3.48206 3.48206,-3.48206c1.92309,0 3.48206,1.55897 3.48206,3.48206c0,1.92309 -1.55897,3.48206 -3.48206,3.48206c-1.92309,0 -3.48206,-1.55897 -3.48206,-3.48206z" fill="#bfa47a" stroke="none" stroke-width="0.5"/><path d="M299.75949,198.08378c0,-1.92309 1.55897,-3.48206 3.48206,-3.48206c1.92309,0 3.48206,1.55897 3.48206,3.48206c0,1.92309 -1.55897,3.48206 -3.48206,3.48206c-1.92309,0 -3.48206,-1.55897 -3.48206,-3.48206z" fill="#bfa47a" stroke="none" stroke-width="0.5"/><path d="M290.11687,225.94026c0,-1.92309 1.55897,-3.48206 3.48206,-3.48206c1.92309,0 3.48206,1.55897 3.48206,3.48206c0,1.92309 -1.55897,3.48206 -3.48206,3.48206c-1.92309,0 -3.48206,-1.55897 -3.48206,-3.48206z" fill="#bfa47a" stroke="none" stroke-width="0.5"/><path d="" fill="#bfa47a" stroke="none" stroke-width="0.5"/><path d="" fill="#bfa47a" stroke="none" stroke-width="0.5"/><path d="M194.76198,382.36514c0,-1.92309 1.55897,-3.48206 3.48206,-3.48206c1.92309,0 3.48206,1.55897 3.48206,3.48206c0,1.92309 -1.55897,3.48206 -3.48206,3.48206c-1.92309,0 -3.48206,-1.55897 -3.48206,-3.48206z" fill="#bfa47a" stroke="none" stroke-width="0.5"/></g></g></svg>