<svg version="1.1" xmlns="http://www.w3.org/2000/svg" xmlns:xlink="http://www.w3.org/1999/xlink" width="652.5309" height="183.27399" viewBox="0,0,652.5309,183.27399"><g transform="translate(79.19181,-205.79586)"><g data-paper-data="{&quot;isPaintingLayer&quot;:true}" fill-rule="nonzero" stroke-linecap="butt" stroke-linejoin="miter" stroke-miterlimit="10" stroke-dasharray="" stroke-dashoffset="0" style="mix-blend-mode: normal"><path d="" data-paper-data="{&quot;index&quot;:null}" fill="#ceb184" stroke="none" stroke-width="0"/><path d="" data-paper-data="{&quot;index&quot;:null}" fill="#e2c291" stroke="none" stroke-width="0"/><path d="" data-paper-data="{&quot;index&quot;:null}" fill="#bfa47a" stroke="none" stroke-width="0.5"/><path d="" data-paper-data="{&quot;index&quot;:null}" fill="#bfa47a" stroke="none" stroke-width="0.5"/><path d="" data-paper-data="{&quot;index&quot;:null}" fill="#bfa47a" stroke="none" stroke-width="0.5"/><path d="" data-paper-data="{&quot;index&quot;:null}" fill="#bfa47a" stroke="none" stroke-width="0.5"/><path d="" data-paper-data="{&quot;index&quot;:null}" fill="#bfa47a" stroke="none" stroke-width="0.5"/><path d="" data-paper-data="{&quot;index&quot;:null}" fill="#bfa47a" stroke="none" stroke-width="0.5"/><path d="" data-paper-data="{&quot;index&quot;:null}" fill="#bfa47a" stroke="none" stroke-width="0.5"/><path d="" data-paper-data="{&quot;index&quot;:null}" fill="#bfa47a" stroke="none" stroke-width="0.5"/><path d="" data-paper-data="{&quot;index&quot;:null}" fill="#bfa47a" stroke="none" stroke-width="0.5"/><path d="" data-paper-data="{&quot;index&quot;:null}" fill="#bfa47a" stroke="none" stroke-width="0.5"/><path d="" data-paper-data="{&quot;index&quot;:null}" fill="#bfa47a" stroke="none" stroke-width="0.5"/><path d="" data-paper-data="{&quot;index&quot;:null}" fill="#bfa47a" stroke="none" stroke-width="0.5"/><path d="" data-paper-data="{&quot;index&quot;:null}" fill="#bfa47a" stroke="none" stroke-width="0.5"/><path d="" data-paper-data="{&quot;index&quot;:null}" fill="#bfa47a" stroke="none" stroke-width="0.5"/><path d="" data-paper-data="{&quot;index&quot;:null}" fill="#bfa47a" stroke="none" stroke-width="0.5"/><path d="" data-paper-data="{&quot;index&quot;:null}" fill="#bfa47a" stroke="none" stroke-width="0.5"/><path d="" data-paper-data="{&quot;index&quot;:null}" fill="#bfa47a" stroke="none" stroke-width="0.5"/><path d="" data-paper-data="{&quot;index&quot;:null}" fill="#bfa47a" stroke="none" stroke-width="0.5"/><path d="" data-paper-data="{&quot;index&quot;:null}" fill="#bfa47a" stroke="none" stroke-width="0.5"/><path d="" data-paper-data="{&quot;index&quot;:null}" fill="#bfa47a" stroke="none" stroke-width="0.5"/><path d="" data-paper-data="{&quot;index&quot;:null}" fill="#bfa47a" stroke="none" stroke-width="0.5"/><path d="" data-paper-data="{&quot;index&quot;:null}" fill="#bfa47a" stroke="none" stroke-width="0.5"/><path d="" data-paper-data="{&quot;index&quot;:null}" fill="#bfa47a" stroke="none" stroke-width="0.5"/><path d="" data-paper-data="{&quot;index&quot;:null}" fill="#bfa47a" stroke="none" stroke-width="0.5"/><path d="" data-paper-data="{&quot;index&quot;:null}" fill="#bfa47a" stroke="none" stroke-width="0.5"/><path d="" data-paper-data="{&quot;index&quot;:null}" fill="#bfa47a" stroke="none" stroke-width="0.5"/><path d="" data-paper-data="{&quot;index&quot;:null}" fill="#bfa47a" stroke="none" stroke-width="0.5"/><path d="" data-paper-data="{&quot;index&quot;:null}" fill="#bfa47a" stroke="none" stroke-width="0.5"/><path d="" data-paper-data="{&quot;index&quot;:null}" fill="#bfa47a" stroke="none" stroke-width="0.5"/><path d="" data-paper-data="{&quot;index&quot;:null}" fill="#bfa47a" stroke="none" stroke-width="0.5"/><path d="" data-paper-data="{&quot;index&quot;:null}" fill="#bfa47a" stroke="none" stroke-width="0.5"/><path d="" data-paper-data="{&quot;index&quot;:null}" fill="#bfa47a" stroke="none" stroke-width="0.5"/><path d="" data-paper-data="{&quot;index&quot;:null}" fill="#bfa47a" stroke="none" stroke-width="0.5"/><path d="" data-paper-data="{&quot;index&quot;:null}" fill="#bfa47a" stroke="none" stroke-width="0.5"/><path d="" data-paper-data="{&quot;index&quot;:null}" fill="#bfa47a" stroke="none" stroke-width="0.5"/><path d="" data-paper-data="{&quot;index&quot;:null}" fill="#bfa47a" stroke="none" stroke-width="0.5"/><path d="" data-paper-data="{&quot;index&quot;:null}" fill="#bfa47a" stroke="none" stroke-width="0.5"/><path d="" data-paper-data="{&quot;index&quot;:null}" fill="#bfa47a" stroke="none" stroke-width="0.5"/><path d="" data-paper-data="{&quot;index&quot;:null}" fill="#bfa47a" stroke="none" stroke-width="0.5"/><path d="M-66.72565,379.06983l30,-135c0,0 63.24792,-19.27354 111.86064,-12.42327c41.19551,5.80507 34.3659,76.03571 112.79515,78.45491c48.9286,1.50923 38.12554,-89.07574 82.13288,-90.29807c36.582,-1.01609 95.6349,80.5204 153.53187,83.44202c63.08807,3.18357 123.67946,-72.17558 123.67946,-72.17558l15,148z" data-paper-data="{&quot;index&quot;:null}" fill="#ceb184" stroke="#ceb184" stroke-width="20"/><path d="" data-paper-data="{&quot;index&quot;:null}" fill="#ceb184" stroke="none" stroke-width="0"/><path d="" data-paper-data="{&quot;index&quot;:null}" fill="#e2c291" stroke="none" stroke-width="0"/><path d="" data-paper-data="{&quot;index&quot;:null}" fill="#bfa47a" stroke="none" stroke-width="0.5"/><path d="" data-paper-data="{&quot;index&quot;:null}" fill="#bfa47a" stroke="none" stroke-width="0.5"/><path d="" data-paper-data="{&quot;index&quot;:null}" fill="#bfa47a" stroke="none" stroke-width="0.5"/><path d="" data-paper-data="{&quot;index&quot;:null}" fill="#bfa47a" stroke="none" stroke-width="0.5"/><path d="" data-paper-data="{&quot;index&quot;:null}" fill="#bfa47a" stroke="none" stroke-width="0.5"/><path d="" data-paper-data="{&quot;index&quot;:null}" fill="#bfa47a" stroke="none" stroke-width="0.5"/><path d="" data-paper-data="{&quot;index&quot;:null}" fill="#bfa47a" stroke="none" stroke-width="0.5"/><path d="" data-paper-data="{&quot;index&quot;:null}" fill="#bfa47a" stroke="none" stroke-width="0.5"/><path d="" data-paper-data="{&quot;index&quot;:null}" fill="#bfa47a" stroke="none" stroke-width="0.5"/><path d="" data-paper-data="{&quot;index&quot;:null}" fill="#bfa47a" stroke="none" stroke-width="0.5"/><path d="" data-paper-data="{&quot;index&quot;:null}" fill="#bfa47a" stroke="none" stroke-width="0.5"/><path d="" data-paper-data="{&quot;index&quot;:null}" fill="#bfa47a" stroke="none" stroke-width="0.5"/><path d="" data-paper-data="{&quot;index&quot;:null}" fill="#bfa47a" stroke="none" stroke-width="0.5"/><path d="" data-paper-data="{&quot;index&quot;:null}" fill="#bfa47a" stroke="none" stroke-width="0.5"/><path d="" data-paper-data="{&quot;index&quot;:null}" fill="#bfa47a" stroke="none" stroke-width="0.5"/><path d="" data-paper-data="{&quot;index&quot;:null}" fill="#bfa47a" stroke="none" stroke-width="0.5"/><path d="" data-paper-data="{&quot;index&quot;:null}" fill="#bfa47a" stroke="none" stroke-width="0.5"/><path d="" data-paper-data="{&quot;index&quot;:null}" fill="#bfa47a" stroke="none" stroke-width="0.5"/><path d="" data-paper-data="{&quot;index&quot;:null}" fill="#bfa47a" stroke="none" stroke-width="0.5"/><path d="" data-paper-data="{&quot;index&quot;:null}" fill="#bfa47a" stroke="none" stroke-width="0.5"/><path d="" data-paper-data="{&quot;index&quot;:null}" fill="#bfa47a" stroke="none" stroke-width="0.5"/><path d="" data-paper-data="{&quot;index&quot;:null}" fill="#bfa47a" stroke="none" stroke-width="0.5"/><path d="" data-paper-data="{&quot;index&quot;:null}" fill="#bfa47a" stroke="none" stroke-width="0.5"/><path d="" data-paper-data="{&quot;index&quot;:null}" fill="#bfa47a" stroke="none" stroke-width="0.5"/><path d="" data-paper-data="{&quot;index&quot;:null}" fill="#bfa47a" stroke="none" stroke-width="0.5"/><path d="" data-paper-data="{&quot;index&quot;:null}" fill="#bfa47a" stroke="none" stroke-width="0.5"/><path d="" data-paper-data="{&quot;index&quot;:null}" fill="#bfa47a" stroke="none" stroke-width="0.5"/><path d="" data-paper-data="{&quot;index&quot;:null}" fill="#bfa47a" stroke="none" stroke-width="0.5"/><path d="" data-paper-data="{&quot;index&quot;:null}" fill="#bfa47a" stroke="none" stroke-width="0.5"/><path d="" data-paper-data="{&quot;index&quot;:null}" fill="#bfa47a" stroke="none" stroke-width="0.5"/><path d="" data-paper-data="{&quot;index&quot;:null}" fill="#bfa47a" stroke="none" stroke-width="0.5"/><path d="" data-paper-data="{&quot;index&quot;:null}" fill="#bfa47a" stroke="none" stroke-width="0.5"/><path d="" data-paper-data="{&quot;index&quot;:null}" fill="#bfa47a" stroke="none" stroke-width="0.5"/><path d="" data-paper-data="{&quot;index&quot;:null}" fill="#bfa47a" stroke="none" stroke-width="0.5"/><path d="" data-paper-data="{&quot;index&quot;:null}" fill="#bfa47a" stroke="none" stroke-width="0.5"/><path d="" data-paper-data="{&quot;index&quot;:null}" fill="#bfa47a" stroke="none" stroke-width="0.5"/><path d="" data-paper-data="{&quot;index&quot;:null}" fill="#bfa47a" stroke="none" stroke-width="0.5"/><path d="" data-paper-data="{&quot;index&quot;:null}" fill="#bfa47a" stroke="none" stroke-width="0.5"/><path d="" data-paper-data="{&quot;index&quot;:null}" fill="#bfa47a" stroke="none" stroke-width="0.5"/><path d="" data-paper-data="{&quot;index&quot;:null}" fill="#ceb184" stroke="none" stroke-width="0"/><path d="" data-paper-data="{&quot;index&quot;:null}" fill="#e2c291" stroke="none" stroke-width="0"/><path d="" data-paper-data="{&quot;index&quot;:null}" fill="#bfa47a" stroke="none" stroke-width="0.5"/><path d="" data-paper-data="{&quot;index&quot;:null}" fill="#bfa47a" stroke="none" stroke-width="0.5"/><path d="" data-paper-data="{&quot;index&quot;:null}" fill="#bfa47a" stroke="none" stroke-width="0.5"/><path d="" data-paper-data="{&quot;index&quot;:null}" fill="#bfa47a" stroke="none" stroke-width="0.5"/><path d="" data-paper-data="{&quot;index&quot;:null}" fill="#bfa47a" stroke="none" stroke-width="0.5"/><path d="" data-paper-data="{&quot;index&quot;:null}" fill="#bfa47a" stroke="none" stroke-width="0.5"/><path d="" data-paper-data="{&quot;index&quot;:null}" fill="#bfa47a" stroke="none" stroke-width="0.5"/><path d="" data-paper-data="{&quot;index&quot;:null}" fill="#bfa47a" stroke="none" stroke-width="0.5"/><path d="" data-paper-data="{&quot;index&quot;:null}" fill="#bfa47a" stroke="none" stroke-width="0.5"/><path d="" data-paper-data="{&quot;index&quot;:null}" fill="#bfa47a" stroke="none" stroke-width="0.5"/><path d="" data-paper-data="{&quot;index&quot;:null}" fill="#bfa47a" stroke="none" stroke-width="0.5"/><path d="" data-paper-data="{&quot;index&quot;:null}" fill="#bfa47a" stroke="none" stroke-width="0.5"/><path d="" data-paper-data="{&quot;index&quot;:null}" fill="#bfa47a" stroke="none" stroke-width="0.5"/><path d="" data-paper-data="{&quot;index&quot;:null}" fill="#bfa47a" stroke="none" stroke-width="0.5"/><path d="" data-paper-data="{&quot;index&quot;:null}" fill="#bfa47a" stroke="none" stroke-width="0.5"/><path d="" data-paper-data="{&quot;index&quot;:null}" fill="#bfa47a" stroke="none" stroke-width="0.5"/><path d="" data-paper-data="{&quot;index&quot;:null}" fill="#bfa47a" stroke="none" stroke-width="0.5"/><path d="" data-paper-data="{&quot;index&quot;:null}" fill="#bfa47a" stroke="none" stroke-width="0.5"/><path d="" data-paper-data="{&quot;index&quot;:null}" fill="#bfa47a" stroke="none" stroke-width="0.5"/><path d="" data-paper-data="{&quot;index&quot;:null}" fill="#bfa47a" stroke="none" stroke-width="0.5"/><path d="" data-paper-data="{&quot;index&quot;:null}" fill="#bfa47a" stroke="none" stroke-width="0.5"/><path d="" data-paper-data="{&quot;index&quot;:null}" fill="#bfa47a" stroke="none" stroke-width="0.5"/><path d="" data-paper-data="{&quot;index&quot;:null}" fill="#bfa47a" stroke="none" stroke-width="0.5"/><path d="" data-paper-data="{&quot;index&quot;:null}" fill="#bfa47a" stroke="none" stroke-width="0.5"/><path d="" data-paper-data="{&quot;index&quot;:null}" fill="#bfa47a" stroke="none" stroke-width="0.5"/><path d="" data-paper-data="{&quot;index&quot;:null}" fill="#bfa47a" stroke="none" stroke-width="0.5"/><path d="" data-paper-data="{&quot;index&quot;:null}" fill="#bfa47a" stroke="none" stroke-width="0.5"/><path d="" data-paper-data="{&quot;index&quot;:null}" fill="#bfa47a" stroke="none" stroke-width="0.5"/><path d="" data-paper-data="{&quot;index&quot;:null}" fill="#bfa47a" stroke="none" stroke-width="0.5"/><path d="" data-paper-data="{&quot;index&quot;:null}" fill="#bfa47a" stroke="none" stroke-width="0.5"/><path d="" data-paper-data="{&quot;index&quot;:null}" fill="#bfa47a" stroke="none" stroke-width="0.5"/><path d="" data-paper-data="{&quot;index&quot;:null}" fill="#bfa47a" stroke="none" stroke-width="0.5"/><path d="" data-paper-data="{&quot;index&quot;:null}" fill="#bfa47a" stroke="none" stroke-width="0.5"/><path d="" data-paper-data="{&quot;index&quot;:null}" fill="#bfa47a" stroke="none" stroke-width="0.5"/><path d="" data-paper-data="{&quot;index&quot;:null}" fill="#bfa47a" stroke="none" stroke-width="0.5"/><path d="" data-paper-data="{&quot;index&quot;:null}" fill="#bfa47a" stroke="none" stroke-width="0.5"/><path d="" data-paper-data="{&quot;index&quot;:null}" fill="#bfa47a" stroke="none" stroke-width="0.5"/><path d="" data-paper-data="{&quot;index&quot;:null}" fill="#bfa47a" stroke="none" stroke-width="0.5"/><path d="" data-paper-data="{&quot;index&quot;:null}" fill="#bfa47a" stroke="none" stroke-width="0.5"/><path d="M-65.72565,381.06982l30,-135c0,0 18.90772,-5.76175 43.99304,-9.86498c20.79465,-3.4014 45.83435,-5.66311 67.8676,-2.55829c41.19551,5.80507 34.3659,76.03571 112.79515,78.45491c48.9286,1.50923 38.12554,-89.07574 82.13288,-90.29807c36.582,-1.01609 95.6349,80.5204 153.53187,83.44202c63.08806,3.18357 123.67946,-72.17559 123.67946,-72.17559l15,148z" data-paper-data="{&quot;index&quot;:null}" fill="#ffdaa2" stroke="#e2c291" stroke-width="7.5"/><path d="M4.94648,342.1862c0,-1.38071 1.11929,-2.5 2.5,-2.5c1.38071,0 2.5,1.11929 2.5,2.5c0,1.38071 -1.11929,2.5 -2.5,2.5c-1.38071,0 -2.5,-1.11929 -2.5,-2.5z" fill="#bfa47a" stroke="none" stroke-width="0.5"/><path d="M44.94648,305.1862c0,-1.38071 1.11929,-2.5 2.5,-2.5c1.38071,0 2.5,1.11929 2.5,2.5c0,1.38071 -1.11929,2.5 -2.5,2.5c-1.38071,0 -2.5,-1.11929 -2.5,-2.5z" fill="#bfa47a" stroke="none" stroke-width="0.5"/><path d="M-9.80352,290.1862c0,-1.79493 1.45507,-3.25 3.25,-3.25c1.79493,0 3.25,1.45507 3.25,3.25c0,1.79493 -1.45507,3.25 -3.25,3.25c-1.79493,0 -3.25,-1.45507 -3.25,-3.25z" fill="#bfa47a" stroke="none" stroke-width="0.5"/><path d="M45.94648,332.1862c0,-1.38071 1.11929,-2.5 2.5,-2.5c1.38071,0 2.5,1.11929 2.5,2.5c0,1.38071 -1.11929,2.5 -2.5,2.5c-1.38071,0 -2.5,-1.11929 -2.5,-2.5z" fill="#bfa47a" stroke="none" stroke-width="0.5"/><path d="M119.94648,346.1862c0,-1.38071 1.11929,-2.5 2.5,-2.5c1.38071,0 2.5,1.11929 2.5,2.5c0,1.38071 -1.11929,2.5 -2.5,2.5c-1.38071,0 -2.5,-1.11929 -2.5,-2.5z" fill="#bfa47a" stroke="none" stroke-width="0.5"/><path d="M81.94648,288.1862c0,-1.38071 1.11929,-2.5 2.5,-2.5c1.38071,0 2.5,1.11929 2.5,2.5c0,1.38071 -1.11929,2.5 -2.5,2.5c-1.38071,0 -2.5,-1.11929 -2.5,-2.5z" fill="#bfa47a" stroke="none" stroke-width="0.5"/><path d="M81.94648,346.1862c0,-1.38071 1.11929,-2.5 2.5,-2.5c1.38071,0 2.5,1.11929 2.5,2.5c0,1.38071 -1.11929,2.5 -2.5,2.5c-1.38071,0 -2.5,-1.11929 -2.5,-2.5z" fill="#bfa47a" stroke="none" stroke-width="0.5"/><path d="M61.19648,262.1862c0,-1.79493 1.45507,-3.25 3.25,-3.25c1.09793,0 2.06869,0.54443 2.65707,1.37804c0.51702,0.45801 0.84293,1.12693 0.84293,1.87197c0,0.74505 -0.32592,1.41398 -0.84296,1.87199c-0.58838,0.83359 -1.55913,1.378 -2.65704,1.378c-1.79493,0 -3.25,-1.45507 -3.25,-3.25z" fill="#bfa47a" stroke="none" stroke-width="0.5"/><path d="M10.19648,251.1862c0,-1.79493 1.45507,-3.25 3.25,-3.25c1.79493,0 3.25,1.45507 3.25,3.25c0,1.79493 -1.45507,3.25 -3.25,3.25c-1.79493,0 -3.25,-1.45507 -3.25,-3.25z" fill="#bfa47a" stroke="none" stroke-width="0.5"/><path d="M169.19648,347.1862c0,-1.79493 1.45507,-3.25 3.25,-3.25c1.79493,0 3.25,1.45507 3.25,3.25c0,1.79493 -1.45507,3.25 -3.25,3.25c-1.79493,0 -3.25,-1.45507 -3.25,-3.25z" fill="#bfa47a" stroke="none" stroke-width="0.5"/><path d="M241.19648,342.1862c0,-1.79493 1.45507,-3.25 3.25,-3.25c1.79493,0 3.25,1.45507 3.25,3.25c0,1.79493 -1.45507,3.25 -3.25,3.25c-1.79493,0 -3.25,-1.45507 -3.25,-3.25z" fill="#bfa47a" stroke="none" stroke-width="0.5"/><path d="M300.19648,368.1862c0,-1.79493 1.45507,-3.25 3.25,-3.25c1.79493,0 3.25,1.45507 3.25,3.25c0,1.79493 -1.45507,3.25 -3.25,3.25c-1.79493,0 -3.25,-1.45507 -3.25,-3.25z" fill="#bfa47a" stroke="none" stroke-width="0.5"/><path d="M302.19648,289.1862c0,-1.79493 1.45507,-3.25 3.25,-3.25c1.79493,0 3.25,1.45507 3.25,3.25c0,1.79493 -1.45507,3.25 -3.25,3.25c-1.79493,0 -3.25,-1.45507 -3.25,-3.25z" fill="#bfa47a" stroke="none" stroke-width="0.5"/><path d="M257.19648,292.1862c0,-1.79493 1.45507,-3.25 3.25,-3.25c1.79493,0 3.25,1.45507 3.25,3.25c0,1.79493 -1.45507,3.25 -3.25,3.25c-1.79493,0 -3.25,-1.45507 -3.25,-3.25z" fill="#bfa47a" stroke="none" stroke-width="0.5"/><path d="M312.19648,327.1862c0,-1.79493 1.45507,-3.25 3.25,-3.25c1.79493,0 3.25,1.45507 3.25,3.25c0,1.79493 -1.45507,3.25 -3.25,3.25c-1.79493,0 -3.25,-1.45507 -3.25,-3.25z" fill="#bfa47a" stroke="none" stroke-width="0.5"/><path d="M372.19648,327.1862c0,-1.79493 1.45507,-3.25 3.25,-3.25c1.79493,0 3.25,1.45507 3.25,3.25c0,1.79493 -1.45507,3.25 -3.25,3.25c-1.79493,0 -3.25,-1.45507 -3.25,-3.25z" fill="#bfa47a" stroke="none" stroke-width="0.5"/><path d="M427.19648,343.1862c0,-1.79493 1.45507,-3.25 3.25,-3.25c1.79493,0 3.25,1.45507 3.25,3.25c0,1.79493 -1.45507,3.25 -3.25,3.25c-1.79493,0 -3.25,-1.45507 -3.25,-3.25z" fill="#bfa47a" stroke="none" stroke-width="0.5"/><path d="M473.19648,332.1862c0,-1.79493 1.45507,-3.25 3.25,-3.25c1.79493,0 3.25,1.45507 3.25,3.25c0,1.79493 -1.45507,3.25 -3.25,3.25c-1.79493,0 -3.25,-1.45507 -3.25,-3.25z" fill="#bfa47a" stroke="none" stroke-width="0.5"/><path d="M403.19648,366.1862c0,-1.79493 1.45507,-3.25 3.25,-3.25c1.79493,0 3.25,1.45507 3.25,3.25c0,1.79493 -1.45507,3.25 -3.25,3.25c-1.79493,0 -3.25,-1.45507 -3.25,-3.25z" fill="#bfa47a" stroke="none" stroke-width="0.5"/><path d="M340.19648,358.1862c0,-1.79493 1.45507,-3.25 3.25,-3.25c1.79493,0 3.25,1.45507 3.25,3.25c0,1.79493 -1.45507,3.25 -3.25,3.25c-1.79493,0 -3.25,-1.45507 -3.25,-3.25z" fill="#bfa47a" stroke="none" stroke-width="0.5"/><path d="M340.19648,302.1862c0,-1.79493 1.45507,-3.25 3.25,-3.25c1.79493,0 3.25,1.45507 3.25,3.25c0,1.79493 -1.45507,3.25 -3.25,3.25c-1.79493,0 -3.25,-1.45507 -3.25,-3.25z" fill="#bfa47a" stroke="none" stroke-width="0.5"/><path d="M281.19648,255.1862c0,-1.79493 1.45507,-3.25 3.25,-3.25c1.79493,0 3.25,1.45507 3.25,3.25c0,1.79493 -1.45507,3.25 -3.25,3.25c-1.79493,0 -3.25,-1.45507 -3.25,-3.25z" fill="#bfa47a" stroke="none" stroke-width="0.5"/><path d="M252.19648,264.1862c0,-1.79493 1.45507,-3.25 3.25,-3.25c1.79493,0 3.25,1.45507 3.25,3.25c0,1.79493 -1.45507,3.25 -3.25,3.25c-1.79493,0 -3.25,-1.45507 -3.25,-3.25z" fill="#bfa47a" stroke="none" stroke-width="0.5"/><path d="M222.19648,334.1862c0,-1.79493 1.45507,-3.25 3.25,-3.25c1.79493,0 3.25,1.45507 3.25,3.25c0,1.79493 -1.45507,3.25 -3.25,3.25c-1.79493,0 -3.25,-1.45507 -3.25,-3.25z" fill="#bfa47a" stroke="none" stroke-width="0.5"/><path d="M430.19648,316.1862c0,-1.79493 1.45507,-3.25 3.25,-3.25c1.79493,0 3.25,1.45507 3.25,3.25c0,1.79493 -1.45507,3.25 -3.25,3.25c-1.79493,0 -3.25,-1.45507 -3.25,-3.25z" fill="#bfa47a" stroke="none" stroke-width="0.5"/><path d="M470.19648,367.1862c0,-1.79493 1.45507,-3.25 3.25,-3.25c1.79493,0 3.25,1.45507 3.25,3.25c0,1.79493 -1.45507,3.25 -3.25,3.25c-1.79493,0 -3.25,-1.45507 -3.25,-3.25z" fill="#bfa47a" stroke="none" stroke-width="0.5"/></g></g></svg>