<svg version="1.1" xmlns="http://www.w3.org/2000/svg" xmlns:xlink="http://www.w3.org/1999/xlink" width="635" height="235" viewBox="0,0,635,235"><g transform="translate(46.21516,-240.43183)"><g data-paper-data="{&quot;isPaintingLayer&quot;:true}" fill-rule="nonzero" stroke="none" stroke-linecap="butt" stroke-linejoin="miter" stroke-miterlimit="10" stroke-dasharray="" stroke-dashoffset="0" style="mix-blend-mode: normal"><path d="M-42.21516,461.43184l15,-148c0,0 36.18847,-60.7037 101.38647,-47.88054c53.01665,10.42732 116.65196,25.88054 158.61353,25.88054c44.08092,0 92.92243,-27.20722 154.28873,-35.97706c95.34309,-13.62546 171.71127,-15.02294 171.71127,-15.02294l28,221z" fill="#ceb184" stroke-width="0"/><path d="M-46.21516,468.43184l15,-148c0,0 36.18847,-60.7037 101.38647,-47.88054c53.01665,10.42732 116.65196,25.88054 158.61353,25.88054c44.08092,0 92.92243,-27.20722 154.28873,-35.97706c95.34309,-13.62546 171.71127,-15.02294 171.71127,-15.02294l28,221z" fill="#e2c291" stroke-width="0"/><path d="M4.53483,315.43183c0,-1.79493 1.45507,-3.25 3.25,-3.25c1.79493,0 3.25,1.45507 3.25,3.25c0,1.79493 -1.45507,3.25 -3.25,3.25c-1.79493,0 -3.25,-1.45507 -3.25,-3.25z" fill="#bfa47a" stroke-width="0.5"/><path d="M34.53484,387.43185c0,-1.79493 1.45507,-3.25 3.25,-3.25c1.79493,0 3.25,1.45507 3.25,3.25c0,1.79493 -1.45507,3.25 -3.25,3.25c-1.79493,0 -3.25,-1.45507 -3.25,-3.25z" fill="#bfa47a" stroke-width="0.5"/><path d="M121.53484,343.43185c0,-1.79493 1.45507,-3.25 3.25,-3.25c1.79493,0 3.25,1.45507 3.25,3.25c0,1.79493 -1.45507,3.25 -3.25,3.25c-1.79493,0 -3.25,-1.45507 -3.25,-3.25z" fill="#bfa47a" stroke-width="0.5"/><path d="M155.53484,321.43183c0,-1.79493 1.45507,-3.25 3.25,-3.25c1.79493,0 3.25,1.45507 3.25,3.25c0,1.79493 -1.45507,3.25 -3.25,3.25c-1.79493,0 -3.25,-1.45507 -3.25,-3.25z" fill="#bfa47a" stroke-width="0.5"/><path d="M217.53484,351.43185c0,-1.79493 1.45507,-3.25 3.25,-3.25c1.79493,0 3.25,1.45507 3.25,3.25c0,1.79493 -1.45507,3.25 -3.25,3.25c-1.79493,0 -3.25,-1.45507 -3.25,-3.25z" fill="#bfa47a" stroke-width="0.5"/><path d="M278.53484,393.43185c0,-1.79493 1.45507,-3.25 3.25,-3.25c1.79493,0 3.25,1.45507 3.25,3.25c0,1.79493 -1.45507,3.25 -3.25,3.25c-1.79493,0 -3.25,-1.45507 -3.25,-3.25z" fill="#bfa47a" stroke-width="0.5"/><path d="M352.53484,343.43185c0,-1.79493 1.45507,-3.25 3.25,-3.25c1.79493,0 3.25,1.45507 3.25,3.25c0,1.79493 -1.45507,3.25 -3.25,3.25c-1.79493,0 -3.25,-1.45507 -3.25,-3.25z" fill="#bfa47a" stroke-width="0.5"/><path d="M442.53484,343.43185c0,-1.79493 1.45507,-3.25 3.25,-3.25c1.79493,0 3.25,1.45507 3.25,3.25c0,1.79493 -1.45507,3.25 -3.25,3.25c-1.79493,0 -3.25,-1.45507 -3.25,-3.25z" fill="#bfa47a" stroke-width="0.5"/><path d="M492.53484,394.43185c0,-1.79493 1.45507,-3.25 3.25,-3.25c1.79493,0 3.25,1.45507 3.25,3.25c0,1.79493 -1.45507,3.25 -3.25,3.25c-1.79493,0 -3.25,-1.45507 -3.25,-3.25z" fill="#bfa47a" stroke-width="0.5"/><path d="M500.53484,319.43183c0,-1.79493 1.45507,-3.25 3.25,-3.25c1.79493,0 3.25,1.45507 3.25,3.25c0,1.79493 -1.45507,3.25 -3.25,3.25c-1.79493,0 -3.25,-1.45507 -3.25,-3.25z" fill="#bfa47a" stroke-width="0.5"/><path d="M398.53484,319.43183c0,-1.79493 1.45507,-3.25 3.25,-3.25c1.79493,0 3.25,1.45507 3.25,3.25c0,1.79493 -1.45507,3.25 -3.25,3.25c-1.79493,0 -3.25,-1.45507 -3.25,-3.25z" fill="#bfa47a" stroke-width="0.5"/><path d="M401.53484,410.43185c0,-1.79493 1.45507,-3.25 3.25,-3.25c1.79493,0 3.25,1.45507 3.25,3.25c0,1.79493 -1.45507,3.25 -3.25,3.25c-1.79493,0 -3.25,-1.45507 -3.25,-3.25z" fill="#bfa47a" stroke-width="0.5"/><path d="M297.53484,319.43183c0,-1.79493 1.45507,-3.25 3.25,-3.25c1.79493,0 3.25,1.45507 3.25,3.25c0,1.79493 -1.45507,3.25 -3.25,3.25c-1.79493,0 -3.25,-1.45507 -3.25,-3.25z" fill="#bfa47a" stroke-width="0.5"/><path d="M207.53485,378.43185c0,-1.79493 1.45507,-3.25 3.25,-3.25c1.79493,0 3.25,1.45507 3.25,3.25c0,1.79493 -1.45507,3.25 -3.25,3.25c-1.79493,0 -3.25,-1.45507 -3.25,-3.25z" fill="#bfa47a" stroke-width="0.5"/><path d="M233.53484,315.43183c0,-1.79493 1.45507,-3.25 3.25,-3.25c1.79493,0 3.25,1.45507 3.25,3.25c0,1.79493 -1.45507,3.25 -3.25,3.25c-1.79493,0 -3.25,-1.45507 -3.25,-3.25z" fill="#bfa47a" stroke-width="0.5"/><path d="M155.53484,366.43185c0,-1.79493 1.45507,-3.25 3.25,-3.25c1.79493,0 3.25,1.45507 3.25,3.25c0,1.79493 -1.45507,3.25 -3.25,3.25c-1.79493,0 -3.25,-1.45507 -3.25,-3.25z" fill="#bfa47a" stroke-width="0.5"/><path d="M53.53484,332.43183c0,-1.79493 1.45507,-3.25 3.25,-3.25c1.79493,0 3.25,1.45507 3.25,3.25c0,1.79493 -1.45507,3.25 -3.25,3.25c-1.79493,0 -3.25,-1.45507 -3.25,-3.25z" fill="#bfa47a" stroke-width="0.5"/><path d="M108.53484,316.43183c0,-1.79493 1.45507,-3.25 3.25,-3.25c1.79493,0 3.25,1.45507 3.25,3.25c0,1.79493 -1.45507,3.25 -3.25,3.25c-1.79493,0 -3.25,-1.45507 -3.25,-3.25z" fill="#bfa47a" stroke-width="0.5"/><path d="M23.53484,368.43185c0,-1.79493 1.45507,-3.25 3.25,-3.25c1.79493,0 3.25,1.45507 3.25,3.25c0,1.79493 -1.45507,3.25 -3.25,3.25c-1.79493,0 -3.25,-1.45507 -3.25,-3.25z" fill="#bfa47a" stroke-width="0.5"/><path d="M-40.21516,475.43184l15,-148c0,0 36.18847,-60.7037 101.38647,-47.88054c53.01665,10.42732 116.65196,25.88054 158.61353,25.88054c44.08092,0 92.92243,-27.20722 154.28873,-35.97706c95.34309,-13.62546 171.71127,-15.02294 171.71127,-15.02294l28,221z" fill="#ffdaa2" stroke-width="0"/><path d="M15.53483,314.43183c0,-1.79493 1.45507,-3.25 3.25,-3.25c1.79493,0 3.25,1.45507 3.25,3.25c0,1.79493 -1.45507,3.25 -3.25,3.25c-1.79493,0 -3.25,-1.45507 -3.25,-3.25z" data-paper-data="{&quot;index&quot;:null}" fill="#bfa47a" stroke-width="0.5"/><path d="M450.53483,281.43183c0,-1.79493 1.45507,-3.25 3.25,-3.25c1.79493,0 3.25,1.45507 3.25,3.25c0,1.79493 -1.45507,3.25 -3.25,3.25c-1.79493,0 -3.25,-1.45507 -3.25,-3.25z" data-paper-data="{&quot;index&quot;:null}" fill="#bfa47a" stroke-width="0.5"/><path d="M132.53483,342.43183c0,-1.79493 1.45507,-3.25 3.25,-3.25c1.79493,0 3.25,1.45507 3.25,3.25c0,1.79493 -1.45507,3.25 -3.25,3.25c-1.79493,0 -3.25,-1.45507 -3.25,-3.25z" data-paper-data="{&quot;index&quot;:null}" fill="#bfa47a" stroke-width="0.5"/><path d="M166.53483,320.43183c0,-1.79493 1.45507,-3.25 3.25,-3.25c1.79493,0 3.25,1.45507 3.25,3.25c0,1.79493 -1.45507,3.25 -3.25,3.25c-1.79493,0 -3.25,-1.45507 -3.25,-3.25z" data-paper-data="{&quot;index&quot;:null}" fill="#bfa47a" stroke-width="0.5"/><path d="M228.53483,350.43183c0,-1.79493 1.45507,-3.25 3.25,-3.25c1.79493,0 3.25,1.45507 3.25,3.25c0,1.79493 -1.45507,3.25 -3.25,3.25c-1.79493,0 -3.25,-1.45507 -3.25,-3.25z" data-paper-data="{&quot;index&quot;:null}" fill="#bfa47a" stroke-width="0.5"/><path d="M289.53483,392.43183c0,-1.79493 1.45507,-3.25 3.25,-3.25c1.79493,0 3.25,1.45507 3.25,3.25c0,1.79493 -1.45507,3.25 -3.25,3.25c-1.79493,0 -3.25,-1.45507 -3.25,-3.25z" data-paper-data="{&quot;index&quot;:null}" fill="#bfa47a" stroke-width="0.5"/><path d="M363.53483,342.43183c0,-1.79493 1.45507,-3.25 3.25,-3.25c1.79493,0 3.25,1.45507 3.25,3.25c0,1.79493 -1.45507,3.25 -3.25,3.25c-1.79493,0 -3.25,-1.45507 -3.25,-3.25z" data-paper-data="{&quot;index&quot;:null}" fill="#bfa47a" stroke-width="0.5"/><path d="M453.53483,342.43183c0,-1.79493 1.45507,-3.25 3.25,-3.25c1.79493,0 3.25,1.45507 3.25,3.25c0,1.79493 -1.45507,3.25 -3.25,3.25c-1.79493,0 -3.25,-1.45507 -3.25,-3.25z" data-paper-data="{&quot;index&quot;:null}" fill="#bfa47a" stroke-width="0.5"/><path d="M503.53483,393.43183c0,-1.79493 1.45507,-3.25 3.25,-3.25c1.79493,0 3.25,1.45507 3.25,3.25c0,1.79493 -1.45507,3.25 -3.25,3.25c-1.79493,0 -3.25,-1.45507 -3.25,-3.25z" data-paper-data="{&quot;index&quot;:null}" fill="#bfa47a" stroke-width="0.5"/><path d="M511.53483,318.43183c0,-1.79493 1.45507,-3.25 3.25,-3.25c1.79493,0 3.25,1.45507 3.25,3.25c0,1.79493 -1.45507,3.25 -3.25,3.25c-1.79493,0 -3.25,-1.45507 -3.25,-3.25z" data-paper-data="{&quot;index&quot;:null}" fill="#bfa47a" stroke-width="0.5"/><path d="M409.53483,318.43183c0,-1.79493 1.45507,-3.25 3.25,-3.25c1.79493,0 3.25,1.45507 3.25,3.25c0,1.79493 -1.45507,3.25 -3.25,3.25c-1.79493,0 -3.25,-1.45507 -3.25,-3.25z" data-paper-data="{&quot;index&quot;:null}" fill="#bfa47a" stroke-width="0.5"/><path d="M412.53483,409.43183c0,-1.79493 1.45507,-3.25 3.25,-3.25c1.79493,0 3.25,1.45507 3.25,3.25c0,1.79493 -1.45507,3.25 -3.25,3.25c-1.79493,0 -3.25,-1.45507 -3.25,-3.25z" data-paper-data="{&quot;index&quot;:null}" fill="#bfa47a" stroke-width="0.5"/><path d="M308.53483,318.43183c0,-1.79493 1.45507,-3.25 3.25,-3.25c1.79493,0 3.25,1.45507 3.25,3.25c0,1.79493 -1.45507,3.25 -3.25,3.25c-1.79493,0 -3.25,-1.45507 -3.25,-3.25z" data-paper-data="{&quot;index&quot;:null}" fill="#bfa47a" stroke-width="0.5"/><path d="M218.53483,377.43183c0,-1.79493 1.45507,-3.25 3.25,-3.25c1.79493,0 3.25,1.45507 3.25,3.25c0,1.79493 -1.45507,3.25 -3.25,3.25c-1.79493,0 -3.25,-1.45507 -3.25,-3.25z" data-paper-data="{&quot;index&quot;:null}" fill="#bfa47a" stroke-width="0.5"/><path d="M244.53483,314.43183c0,-1.79493 1.45507,-3.25 3.25,-3.25c1.79493,0 3.25,1.45507 3.25,3.25c0,1.79493 -1.45507,3.25 -3.25,3.25c-1.79493,0 -3.25,-1.45507 -3.25,-3.25z" data-paper-data="{&quot;index&quot;:null}" fill="#bfa47a" stroke-width="0.5"/><path d="M166.53483,365.43183c0,-1.79493 1.45507,-3.25 3.25,-3.25c1.79493,0 3.25,1.45507 3.25,3.25c0,1.79493 -1.45507,3.25 -3.25,3.25c-1.79493,0 -3.25,-1.45507 -3.25,-3.25z" data-paper-data="{&quot;index&quot;:null}" fill="#bfa47a" stroke-width="0.5"/><path d="M64.53483,331.43183c0,-1.79493 1.45507,-3.25 3.25,-3.25c1.79493,0 3.25,1.45507 3.25,3.25c0,1.79493 -1.45507,3.25 -3.25,3.25c-1.79493,0 -3.25,-1.45507 -3.25,-3.25z" data-paper-data="{&quot;index&quot;:null}" fill="#bfa47a" stroke-width="0.5"/><path d="M119.53483,315.43183c0,-1.79493 1.45507,-3.25 3.25,-3.25c1.79493,0 3.25,1.45507 3.25,3.25c0,1.79493 -1.45507,3.25 -3.25,3.25c-1.79493,0 -3.25,-1.45507 -3.25,-3.25z" data-paper-data="{&quot;index&quot;:null}" fill="#bfa47a" stroke-width="0.5"/><path d="M34.53483,367.43183c0,-1.79493 1.45507,-3.25 3.25,-3.25c1.79493,0 3.25,1.45507 3.25,3.25c0,1.79493 -1.45507,3.25 -3.25,3.25c-1.79493,0 -3.25,-1.45507 -3.25,-3.25z" data-paper-data="{&quot;index&quot;:null}" fill="#bfa47a" stroke-width="0.5"/></g></g></svg>