<svg version="1.1" xmlns="http://www.w3.org/2000/svg" xmlns:xlink="http://www.w3.org/1999/xlink" width="633.00901" height="605.30847" viewBox="0,0,633.00901,605.30847"><g transform="translate(48.72565,135.49563)"><g data-paper-data="{&quot;isPaintingLayer&quot;:true}" fill-rule="nonzero" stroke="none" stroke-linecap="butt" stroke-linejoin="miter" stroke-miterlimit="10" stroke-dasharray="" stroke-dashoffset="0" style="mix-blend-mode: normal"><path d="M584.28336,-112.93882l-15,148c0,0 -57.76734,-12.61029 -134.21134,-14.73356c-44.00735,-1.22233 -90.20429,11.1927 -139.13288,12.70193c-78.42925,2.4192 -157.59964,-4.35017 -198.79515,1.4549c-48.61272,6.85027 -111.86064,-12.42327 -111.86064,-12.42327l-30,-135z" data-paper-data="{&quot;index&quot;:null}" fill="#ceb184" stroke-width="0"/><path d="M582.28336,-121.93882l-15,148c0,0 -57.76734,-12.61029 -134.21134,-14.73356c-44.00735,-1.22233 -90.20429,11.1927 -139.13288,12.70193c-78.42925,2.4192 -157.59964,-4.35017 -198.79515,1.4549c-48.61272,6.85027 -111.86064,-12.42327 -111.86064,-12.42327l-30,-135z" data-paper-data="{&quot;index&quot;:null}" fill="#e2c291" stroke-width="0"/><path d="M582.28335,-129.93881l-15,148c0,0 -57.76735,-12.61029 -134.21133,-14.73357c-44.00734,-1.22233 -90.20428,11.1927 -139.13288,12.70193c-78.42925,2.4192 -157.59964,-4.35016 -198.79515,1.45491c-48.61272,6.85027 -111.86064,-12.42327 -111.86064,-12.42327l-30,-135z" data-paper-data="{&quot;index&quot;:null}" fill="#ffdaa2" stroke-width="0"/><path d="M544.36572,-23.24563c0,1.79493 -1.45507,3.25 -3.25,3.25c-1.79493,0 -3.25,-1.45507 -3.25,-3.25c0,-1.79493 1.45507,-3.25 3.25,-3.25c1.79493,0 3.25,1.45507 3.25,3.25z" data-paper-data="{&quot;index&quot;:null}" fill="#bfa47a" stroke-width="0.5"/><path d="M529.36572,-65.24563c0,1.79493 -1.45507,3.25 -3.25,3.25c-1.79493,0 -3.25,-1.45507 -3.25,-3.25c0,-1.79493 1.45507,-3.25 3.25,-3.25c1.79493,0 3.25,1.45507 3.25,3.25z" data-paper-data="{&quot;index&quot;:null}" fill="#bfa47a" stroke-width="0.5"/><path d="M492.36572,-40.24563c0,1.79493 -1.45507,3.25 -3.25,3.25c-1.79493,0 -3.25,-1.45507 -3.25,-3.25c0,-1.79493 1.45507,-3.25 3.25,-3.25c1.79493,0 3.25,1.45507 3.25,3.25z" data-paper-data="{&quot;index&quot;:null}" fill="#bfa47a" stroke-width="0.5"/><path d="M455.36572,-81.24563c0,1.79493 -1.45507,3.25 -3.25,3.25c-1.79493,0 -3.25,-1.45507 -3.25,-3.25c0,-1.79493 1.45507,-3.25 3.25,-3.25c1.79493,0 3.25,1.45507 3.25,3.25z" data-paper-data="{&quot;index&quot;:null}" fill="#bfa47a" stroke-width="0.5"/><path d="M547.36572,-132.24563c0,1.79493 -1.45507,3.25 -3.25,3.25c-1.79493,0 -3.25,-1.45507 -3.25,-3.25c0,-1.79493 1.45507,-3.25 3.25,-3.25c1.79493,0 3.25,1.45507 3.25,3.25z" data-paper-data="{&quot;index&quot;:null}" fill="#bfa47a" stroke-width="0.5"/><path d="M437.36572,-38.24563c0,1.79493 -1.45507,3.25 -3.25,3.25c-1.79493,0 -3.25,-1.45507 -3.25,-3.25c0,-1.79493 1.45507,-3.25 3.25,-3.25c1.79493,0 3.25,1.45507 3.25,3.25z" data-paper-data="{&quot;index&quot;:null}" fill="#bfa47a" stroke-width="0.5"/><path d="M458.36572,-8.24563c0,1.79493 -1.45507,3.25 -3.25,3.25c-1.79493,0 -3.25,-1.45507 -3.25,-3.25c0,-1.79493 1.45507,-3.25 3.25,-3.25c1.79493,0 3.25,1.45507 3.25,3.25z" data-paper-data="{&quot;index&quot;:null}" fill="#bfa47a" stroke-width="0.5"/><path d="M486.36572,-82.24563c0,1.79493 -1.45507,3.25 -3.25,3.25c-1.79493,0 -3.25,-1.45507 -3.25,-3.25c0,-1.79493 1.45507,-3.25 3.25,-3.25c1.79493,0 3.25,1.45507 3.25,3.25z" data-paper-data="{&quot;index&quot;:null}" fill="#bfa47a" stroke-width="0.5"/><path d="M509.36572,-3.24563c0,1.79493 -1.45507,3.25 -3.25,3.25c-1.79493,0 -3.25,-1.45507 -3.25,-3.25c0,-1.79493 1.45507,-3.25 3.25,-3.25c1.79493,0 3.25,1.45507 3.25,3.25z" data-paper-data="{&quot;index&quot;:null}" fill="#bfa47a" stroke-width="0.5"/><path d="M404.36572,-101.24563c0,1.79493 -1.45507,3.25 -3.25,3.25c-1.79493,0 -3.25,-1.45507 -3.25,-3.25c0,-1.79493 1.45507,-3.25 3.25,-3.25c1.79493,0 3.25,1.45507 3.25,3.25z" data-paper-data="{&quot;index&quot;:null}" fill="#bfa47a" stroke-width="0.5"/><path d="M383.36572,-75.24563c0,1.79493 -1.45507,3.25 -3.25,3.25c-1.79493,0 -3.25,-1.45507 -3.25,-3.25c0,-1.79493 1.45507,-3.25 3.25,-3.25c1.79493,0 3.25,1.45507 3.25,3.25z" data-paper-data="{&quot;index&quot;:null}" fill="#bfa47a" stroke-width="0.5"/><path d="M415.36574,-53.24563c0,1.79493 -1.45507,3.25 -3.25,3.25c-1.79493,0 -3.25,-1.45507 -3.25,-3.25c0,-1.79493 1.45507,-3.25 3.25,-3.25c1.79493,0 3.25,1.45507 3.25,3.25z" data-paper-data="{&quot;index&quot;:null}" fill="#bfa47a" stroke-width="0.5"/><path d="M372.36572,-24.24563c0,1.79493 -1.45507,3.25 -3.25,3.25c-1.79493,0 -3.25,-1.45507 -3.25,-3.25c0,-1.79493 1.45507,-3.25 3.25,-3.25c1.79493,0 3.25,1.45507 3.25,3.25z" data-paper-data="{&quot;index&quot;:null}" fill="#bfa47a" stroke-width="0.5"/><path d="M325.36572,-37.24563c0,1.79493 -1.45507,3.25 -3.25,3.25c-1.79493,0 -3.25,-1.45507 -3.25,-3.25c0,-1.79493 1.45507,-3.25 3.25,-3.25c1.79493,0 3.25,1.45507 3.25,3.25z" data-paper-data="{&quot;index&quot;:null}" fill="#bfa47a" stroke-width="0.5"/><path d="M408.36572,-9.24563c0,1.79493 -1.45507,3.25 -3.25,3.25c-1.79493,0 -3.25,-1.45507 -3.25,-3.25c0,-1.79493 1.45507,-3.25 3.25,-3.25c1.79493,0 3.25,1.45507 3.25,3.25z" data-paper-data="{&quot;index&quot;:null}" fill="#bfa47a" stroke-width="0.5"/><path d="M345.36572,-71.24563c0,1.79493 -1.45507,3.25 -3.25,3.25c-1.79493,0 -3.25,-1.45507 -3.25,-3.25c0,-1.79493 1.45507,-3.25 3.25,-3.25c1.79493,0 3.25,1.45507 3.25,3.25z" data-paper-data="{&quot;index&quot;:null}" fill="#bfa47a" stroke-width="0.5"/><path d="M288.36572,-69.24563c0,1.79493 -1.45507,3.25 -3.25,3.25c-1.79493,0 -3.25,-1.45507 -3.25,-3.25c0,-1.79493 1.45507,-3.25 3.25,-3.25c1.79493,0 3.25,1.45507 3.25,3.25z" data-paper-data="{&quot;index&quot;:null}" fill="#bfa47a" stroke-width="0.5"/><path d="M312.36572,-91.24563c0,1.79493 -1.45507,3.25 -3.25,3.25c-1.79493,0 -3.25,-1.45507 -3.25,-3.25c0,-1.79493 1.45507,-3.25 3.25,-3.25c1.79493,0 3.25,1.45507 3.25,3.25z" data-paper-data="{&quot;index&quot;:null}" fill="#bfa47a" stroke-width="0.5"/><path d="M366.36572,-112.24563c0,1.79493 -1.45507,3.25 -3.25,3.25c-1.79493,0 -3.25,-1.45507 -3.25,-3.25c0,-1.79493 1.45507,-3.25 3.25,-3.25c1.79493,0 3.25,1.45507 3.25,3.25z" data-paper-data="{&quot;index&quot;:null}" fill="#bfa47a" stroke-width="0.5"/><path d="M328.36572,1.75437c0,1.79493 -1.45507,3.25 -3.25,3.25c-1.79493,0 -3.25,-1.45507 -3.25,-3.25c0,-1.79493 1.45507,-3.25 3.25,-3.25c1.79493,0 3.25,1.45507 3.25,3.25z" data-paper-data="{&quot;index&quot;:null}" fill="#bfa47a" stroke-width="0.5"/><path d="M278.36574,-11.24563c0,1.79493 -1.45507,3.25 -3.25,3.25c-1.79493,0 -3.25,-1.45507 -3.25,-3.25c0,-1.79493 1.45507,-3.25 3.25,-3.25c1.79493,0 3.25,1.45507 3.25,3.25z" data-paper-data="{&quot;index&quot;:null}" fill="#bfa47a" stroke-width="0.5"/><path d="M253.36574,-53.24563c0,1.79493 -1.45507,3.25 -3.25,3.25c-1.79493,0 -3.25,-1.45507 -3.25,-3.25c0,-1.79493 1.45507,-3.25 3.25,-3.25c1.79493,0 3.25,1.45507 3.25,3.25z" data-paper-data="{&quot;index&quot;:null}" fill="#bfa47a" stroke-width="0.5"/><path d="M261.36574,-103.24563c0,1.79493 -1.45507,3.25 -3.25,3.25c-1.79493,0 -3.25,-1.45507 -3.25,-3.25c0,-1.79493 1.45507,-3.25 3.25,-3.25c1.79493,0 3.25,1.45507 3.25,3.25z" data-paper-data="{&quot;index&quot;:null}" fill="#bfa47a" stroke-width="0.5"/><path d="M226.36574,-80.24563c0,1.79493 -1.45507,3.25 -3.25,3.25c-1.79493,0 -3.25,-1.45507 -3.25,-3.25c0,-1.79493 1.45507,-3.25 3.25,-3.25c1.79493,0 3.25,1.45507 3.25,3.25z" data-paper-data="{&quot;index&quot;:null}" fill="#bfa47a" stroke-width="0.5"/><path d="M225.36574,-47.24563c0,1.79493 -1.45507,3.25 -3.25,3.25c-1.79493,0 -3.25,-1.45507 -3.25,-3.25c0,-1.79493 1.45507,-3.25 3.25,-3.25c1.79493,0 3.25,1.45507 3.25,3.25z" data-paper-data="{&quot;index&quot;:null}" fill="#bfa47a" stroke-width="0.5"/><path d="M251.36574,-6.24563c0,1.79493 -1.45507,3.25 -3.25,3.25c-1.79493,0 -3.25,-1.45507 -3.25,-3.25c0,-1.79493 1.45507,-3.25 3.25,-3.25c1.79493,0 3.25,1.45507 3.25,3.25z" data-paper-data="{&quot;index&quot;:null}" fill="#bfa47a" stroke-width="0.5"/><path d="M203.36574,1.75437c0,1.79493 -1.45507,3.25 -3.25,3.25c-1.79493,0 -3.25,-1.45507 -3.25,-3.25c0,-1.79493 1.45507,-3.25 3.25,-3.25c1.79493,0 3.25,1.45507 3.25,3.25z" data-paper-data="{&quot;index&quot;:null}" fill="#bfa47a" stroke-width="0.5"/><path d="M158.36574,-57.24563c0,1.79493 -1.45507,3.25 -3.25,3.25c-1.79493,0 -3.25,-1.45507 -3.25,-3.25c0,-1.79493 1.45507,-3.25 3.25,-3.25c1.79493,0 3.25,1.45507 3.25,3.25z" data-paper-data="{&quot;index&quot;:null}" fill="#bfa47a" stroke-width="0.5"/><path d="M180.36574,-95.24563c0,1.79493 -1.45507,3.25 -3.25,3.25c-1.79493,0 -3.25,-1.45507 -3.25,-3.25c0,-1.79493 1.45507,-3.25 3.25,-3.25c1.79493,0 3.25,1.45507 3.25,3.25z" data-paper-data="{&quot;index&quot;:null}" fill="#bfa47a" stroke-width="0.5"/><path d="M138.36574,-84.24563c0,1.79493 -1.45507,3.25 -3.25,3.25c-1.79493,0 -3.25,-1.45507 -3.25,-3.25c0,-1.79493 1.45507,-3.25 3.25,-3.25c1.79493,0 3.25,1.45507 3.25,3.25z" data-paper-data="{&quot;index&quot;:null}" fill="#bfa47a" stroke-width="0.5"/><path d="M115.36574,-58.24563c0,1.79493 -1.45507,3.25 -3.25,3.25c-1.79493,0 -3.25,-1.45507 -3.25,-3.25c0,-1.79493 1.45507,-3.25 3.25,-3.25c1.79493,0 3.25,1.45507 3.25,3.25z" data-paper-data="{&quot;index&quot;:null}" fill="#bfa47a" stroke-width="0.5"/><path d="M135.36574,-18.24563c0,1.79493 -1.45507,3.25 -3.25,3.25c-1.79493,0 -3.25,-1.45507 -3.25,-3.25c0,-1.79493 1.45507,-3.25 3.25,-3.25c1.79493,0 3.25,1.45507 3.25,3.25z" data-paper-data="{&quot;index&quot;:null}" fill="#bfa47a" stroke-width="0.5"/><path d="M185.36574,-48.24563c0,1.79493 -1.45507,3.25 -3.25,3.25c-1.79493,0 -3.25,-1.45507 -3.25,-3.25c0,-1.79493 1.45507,-3.25 3.25,-3.25c1.79493,0 3.25,1.45507 3.25,3.25z" data-paper-data="{&quot;index&quot;:null}" fill="#bfa47a" stroke-width="0.5"/><path d="M111.36574,-7.24563c0,1.79493 -1.45507,3.25 -3.25,3.25c-1.79493,0 -3.25,-1.45507 -3.25,-3.25c0,-1.79493 1.45507,-3.25 3.25,-3.25c1.79493,0 3.25,1.45507 3.25,3.25z" data-paper-data="{&quot;index&quot;:null}" fill="#bfa47a" stroke-width="0.5"/><path d="M56.36572,-53.24563c0,1.79493 -1.45507,3.25 -3.25,3.25c-1.79493,0 -3.25,-1.45507 -3.25,-3.25c0,-1.79493 1.45507,-3.25 3.25,-3.25c1.79493,0 3.25,1.45507 3.25,3.25z" data-paper-data="{&quot;index&quot;:null}" fill="#bfa47a" stroke-width="0.5"/><path d="M86.36574,-83.24563c0,1.79493 -1.45507,3.25 -3.25,3.25c-1.79493,0 -3.25,-1.45507 -3.25,-3.25c0,-1.79493 1.45507,-3.25 3.25,-3.25c1.79493,0 3.25,1.45507 3.25,3.25z" data-paper-data="{&quot;index&quot;:null}" fill="#bfa47a" stroke-width="0.5"/><path d="M88.36574,-127.24563c0,1.79493 -1.45507,3.25 -3.25,3.25c-1.79493,0 -3.25,-1.45507 -3.25,-3.25c0,-1.79493 1.45507,-3.25 3.25,-3.25c1.79493,0 3.25,1.45507 3.25,3.25z" data-paper-data="{&quot;index&quot;:null}" fill="#bfa47a" stroke-width="0.5"/><path d="M92.36574,-43.24563c0,1.79493 -1.45507,3.25 -3.25,3.25c-1.79493,0 -3.25,-1.45507 -3.25,-3.25c0,-1.79493 1.45507,-3.25 3.25,-3.25c1.79493,0 3.25,1.45507 3.25,3.25z" data-paper-data="{&quot;index&quot;:null}" fill="#bfa47a" stroke-width="0.5"/><path d="M75.36572,-18.24563c0,1.79493 -1.45507,3.25 -3.25,3.25c-1.79493,0 -3.25,-1.45507 -3.25,-3.25c0,-1.79493 1.45507,-3.25 3.25,-3.25c1.79493,0 3.25,1.45507 3.25,3.25z" data-paper-data="{&quot;index&quot;:null}" fill="#bfa47a" stroke-width="0.5"/><path d="M167.36574,1.75437c0,1.79493 -1.45507,3.25 -3.25,3.25c-1.79493,0 -3.25,-1.45507 -3.25,-3.25c0,-1.79493 1.45507,-3.25 3.25,-3.25c1.79493,0 3.25,1.45507 3.25,3.25z" data-paper-data="{&quot;index&quot;:null}" fill="#bfa47a" stroke-width="0.5"/><g><path d="M-48.72565,447.25603l15,-148c0,0 57.76734,12.61029 134.21134,14.73356c44.00735,1.22233 90.20429,-11.1927 139.13288,-12.70193c78.42925,-2.4192 157.59964,4.35017 198.79515,-1.4549c48.61272,-6.85027 111.86064,12.42327 111.86064,12.42327l30,135z" data-paper-data="{&quot;index&quot;:null}" fill="#ceb184" stroke-width="0"/><path d="M-46.72565,456.25603l15,-148c0,0 57.76734,12.61029 134.21134,14.73356c44.00735,1.22233 90.20429,-11.1927 139.13288,-12.70193c78.42925,-2.4192 157.59964,4.35017 198.79515,-1.4549c48.61272,-6.85027 111.86064,12.42327 111.86064,12.42327l30,135z" data-paper-data="{&quot;index&quot;:null}" fill="#e2c291" stroke-width="0"/><path d="M-46.72564,464.25602l15,-148c0,0 57.76735,12.61029 134.21133,14.73357c44.00734,1.22233 90.20428,-11.1927 139.13288,-12.70193c78.42925,-2.4192 157.59964,4.35016 198.79515,-1.45491c48.61272,-6.85027 111.86064,12.42327 111.86064,12.42327l30,135z" data-paper-data="{&quot;index&quot;:null}" fill="#ffdaa2" stroke-width="0"/><path d="M-8.80801,357.56284c0,-1.79493 1.45507,-3.25 3.25,-3.25c1.79493,0 3.25,1.45507 3.25,3.25c0,1.79493 -1.45507,3.25 -3.25,3.25c-1.79493,0 -3.25,-1.45507 -3.25,-3.25z" data-paper-data="{&quot;index&quot;:null}" fill="#bfa47a" stroke-width="0.5"/><path d="M6.19199,399.56284c0,-1.79493 1.45507,-3.25 3.25,-3.25c1.79493,0 3.25,1.45507 3.25,3.25c0,1.79493 -1.45507,3.25 -3.25,3.25c-1.79493,0 -3.25,-1.45507 -3.25,-3.25z" data-paper-data="{&quot;index&quot;:null}" fill="#bfa47a" stroke-width="0.5"/><path d="M43.19199,374.56284c0,-1.79493 1.45507,-3.25 3.25,-3.25c1.79493,0 3.25,1.45507 3.25,3.25c0,1.79493 -1.45507,3.25 -3.25,3.25c-1.79493,0 -3.25,-1.45507 -3.25,-3.25z" data-paper-data="{&quot;index&quot;:null}" fill="#bfa47a" stroke-width="0.5"/><path d="M80.19199,415.56284c0,-1.79493 1.45507,-3.25 3.25,-3.25c1.79493,0 3.25,1.45507 3.25,3.25c0,1.79493 -1.45507,3.25 -3.25,3.25c-1.79493,0 -3.25,-1.45507 -3.25,-3.25z" data-paper-data="{&quot;index&quot;:null}" fill="#bfa47a" stroke-width="0.5"/><path d="M-11.80801,466.56284c0,-1.79493 1.45507,-3.25 3.25,-3.25c1.79493,0 3.25,1.45507 3.25,3.25c0,1.79493 -1.45507,3.25 -3.25,3.25c-1.79493,0 -3.25,-1.45507 -3.25,-3.25z" data-paper-data="{&quot;index&quot;:null}" fill="#bfa47a" stroke-width="0.5"/><path d="M98.19199,372.56284c0,-1.79493 1.45507,-3.25 3.25,-3.25c1.79493,0 3.25,1.45507 3.25,3.25c0,1.79493 -1.45507,3.25 -3.25,3.25c-1.79493,0 -3.25,-1.45507 -3.25,-3.25z" data-paper-data="{&quot;index&quot;:null}" fill="#bfa47a" stroke-width="0.5"/><path d="M77.19199,342.56284c0,-1.79493 1.45507,-3.25 3.25,-3.25c1.79493,0 3.25,1.45507 3.25,3.25c0,1.79493 -1.45507,3.25 -3.25,3.25c-1.79493,0 -3.25,-1.45507 -3.25,-3.25z" data-paper-data="{&quot;index&quot;:null}" fill="#bfa47a" stroke-width="0.5"/><path d="M49.19199,416.56284c0,-1.79493 1.45507,-3.25 3.25,-3.25c1.79493,0 3.25,1.45507 3.25,3.25c0,1.79493 -1.45507,3.25 -3.25,3.25c-1.79493,0 -3.25,-1.45507 -3.25,-3.25z" data-paper-data="{&quot;index&quot;:null}" fill="#bfa47a" stroke-width="0.5"/><path d="M26.19199,337.56284c0,-1.79493 1.45507,-3.25 3.25,-3.25c1.79493,0 3.25,1.45507 3.25,3.25c0,1.79493 -1.45507,3.25 -3.25,3.25c-1.79493,0 -3.25,-1.45507 -3.25,-3.25z" data-paper-data="{&quot;index&quot;:null}" fill="#bfa47a" stroke-width="0.5"/><path d="M131.19199,435.56284c0,-1.79493 1.45507,-3.25 3.25,-3.25c1.79493,0 3.25,1.45507 3.25,3.25c0,1.79493 -1.45507,3.25 -3.25,3.25c-1.79493,0 -3.25,-1.45507 -3.25,-3.25z" data-paper-data="{&quot;index&quot;:null}" fill="#bfa47a" stroke-width="0.5"/><path d="M152.19199,409.56284c0,-1.79493 1.45507,-3.25 3.25,-3.25c1.79493,0 3.25,1.45507 3.25,3.25c0,1.79493 -1.45507,3.25 -3.25,3.25c-1.79493,0 -3.25,-1.45507 -3.25,-3.25z" data-paper-data="{&quot;index&quot;:null}" fill="#bfa47a" stroke-width="0.5"/><path d="M120.19197,387.56284c0,-1.79493 1.45507,-3.25 3.25,-3.25c1.79493,0 3.25,1.45507 3.25,3.25c0,1.79493 -1.45507,3.25 -3.25,3.25c-1.79493,0 -3.25,-1.45507 -3.25,-3.25z" data-paper-data="{&quot;index&quot;:null}" fill="#bfa47a" stroke-width="0.5"/><path d="M163.19199,358.56284c0,-1.79493 1.45507,-3.25 3.25,-3.25c1.79493,0 3.25,1.45507 3.25,3.25c0,1.79493 -1.45507,3.25 -3.25,3.25c-1.79493,0 -3.25,-1.45507 -3.25,-3.25z" data-paper-data="{&quot;index&quot;:null}" fill="#bfa47a" stroke-width="0.5"/><path d="M210.19199,371.56284c0,-1.79493 1.45507,-3.25 3.25,-3.25c1.79493,0 3.25,1.45507 3.25,3.25c0,1.79493 -1.45507,3.25 -3.25,3.25c-1.79493,0 -3.25,-1.45507 -3.25,-3.25z" data-paper-data="{&quot;index&quot;:null}" fill="#bfa47a" stroke-width="0.5"/><path d="M127.19199,343.56284c0,-1.79493 1.45507,-3.25 3.25,-3.25c1.79493,0 3.25,1.45507 3.25,3.25c0,1.79493 -1.45507,3.25 -3.25,3.25c-1.79493,0 -3.25,-1.45507 -3.25,-3.25z" data-paper-data="{&quot;index&quot;:null}" fill="#bfa47a" stroke-width="0.5"/><path d="M190.19199,405.56284c0,-1.79493 1.45507,-3.25 3.25,-3.25c1.79493,0 3.25,1.45507 3.25,3.25c0,1.79493 -1.45507,3.25 -3.25,3.25c-1.79493,0 -3.25,-1.45507 -3.25,-3.25z" data-paper-data="{&quot;index&quot;:null}" fill="#bfa47a" stroke-width="0.5"/><path d="M247.19199,403.56284c0,-1.79493 1.45507,-3.25 3.25,-3.25c1.79493,0 3.25,1.45507 3.25,3.25c0,1.79493 -1.45507,3.25 -3.25,3.25c-1.79493,0 -3.25,-1.45507 -3.25,-3.25z" data-paper-data="{&quot;index&quot;:null}" fill="#bfa47a" stroke-width="0.5"/><path d="M223.19199,425.56284c0,-1.79493 1.45507,-3.25 3.25,-3.25c1.79493,0 3.25,1.45507 3.25,3.25c0,1.79493 -1.45507,3.25 -3.25,3.25c-1.79493,0 -3.25,-1.45507 -3.25,-3.25z" data-paper-data="{&quot;index&quot;:null}" fill="#bfa47a" stroke-width="0.5"/><path d="M169.19199,446.56284c0,-1.79493 1.45507,-3.25 3.25,-3.25c1.79493,0 3.25,1.45507 3.25,3.25c0,1.79493 -1.45507,3.25 -3.25,3.25c-1.79493,0 -3.25,-1.45507 -3.25,-3.25z" data-paper-data="{&quot;index&quot;:null}" fill="#bfa47a" stroke-width="0.5"/><path d="M207.19199,332.56284c0,-1.79493 1.45507,-3.25 3.25,-3.25c1.79493,0 3.25,1.45507 3.25,3.25c0,1.79493 -1.45507,3.25 -3.25,3.25c-1.79493,0 -3.25,-1.45507 -3.25,-3.25z" data-paper-data="{&quot;index&quot;:null}" fill="#bfa47a" stroke-width="0.5"/><path d="M257.19197,345.56284c0,-1.79493 1.45507,-3.25 3.25,-3.25c1.79493,0 3.25,1.45507 3.25,3.25c0,1.79493 -1.45507,3.25 -3.25,3.25c-1.79493,0 -3.25,-1.45507 -3.25,-3.25z" data-paper-data="{&quot;index&quot;:null}" fill="#bfa47a" stroke-width="0.5"/><path d="M282.19197,387.56284c0,-1.79493 1.45507,-3.25 3.25,-3.25c1.79493,0 3.25,1.45507 3.25,3.25c0,1.79493 -1.45507,3.25 -3.25,3.25c-1.79493,0 -3.25,-1.45507 -3.25,-3.25z" data-paper-data="{&quot;index&quot;:null}" fill="#bfa47a" stroke-width="0.5"/><path d="M274.19197,437.56284c0,-1.79493 1.45507,-3.25 3.25,-3.25c1.79493,0 3.25,1.45507 3.25,3.25c0,1.79493 -1.45507,3.25 -3.25,3.25c-1.79493,0 -3.25,-1.45507 -3.25,-3.25z" data-paper-data="{&quot;index&quot;:null}" fill="#bfa47a" stroke-width="0.5"/><path d="M309.19197,414.56284c0,-1.79493 1.45507,-3.25 3.25,-3.25c1.79493,0 3.25,1.45507 3.25,3.25c0,1.79493 -1.45507,3.25 -3.25,3.25c-1.79493,0 -3.25,-1.45507 -3.25,-3.25z" data-paper-data="{&quot;index&quot;:null}" fill="#bfa47a" stroke-width="0.5"/><path d="M310.19197,381.56284c0,-1.79493 1.45507,-3.25 3.25,-3.25c1.79493,0 3.25,1.45507 3.25,3.25c0,1.79493 -1.45507,3.25 -3.25,3.25c-1.79493,0 -3.25,-1.45507 -3.25,-3.25z" data-paper-data="{&quot;index&quot;:null}" fill="#bfa47a" stroke-width="0.5"/><path d="M284.19197,340.56284c0,-1.79493 1.45507,-3.25 3.25,-3.25c1.79493,0 3.25,1.45507 3.25,3.25c0,1.79493 -1.45507,3.25 -3.25,3.25c-1.79493,0 -3.25,-1.45507 -3.25,-3.25z" data-paper-data="{&quot;index&quot;:null}" fill="#bfa47a" stroke-width="0.5"/><path d="M332.19197,332.56284c0,-1.79493 1.45507,-3.25 3.25,-3.25c1.79493,0 3.25,1.45507 3.25,3.25c0,1.79493 -1.45507,3.25 -3.25,3.25c-1.79493,0 -3.25,-1.45507 -3.25,-3.25z" data-paper-data="{&quot;index&quot;:null}" fill="#bfa47a" stroke-width="0.5"/><path d="M377.19197,391.56284c0,-1.79493 1.45507,-3.25 3.25,-3.25c1.79493,0 3.25,1.45507 3.25,3.25c0,1.79493 -1.45507,3.25 -3.25,3.25c-1.79493,0 -3.25,-1.45507 -3.25,-3.25z" data-paper-data="{&quot;index&quot;:null}" fill="#bfa47a" stroke-width="0.5"/><path d="M355.19197,429.56284c0,-1.79493 1.45507,-3.25 3.25,-3.25c1.79493,0 3.25,1.45507 3.25,3.25c0,1.79493 -1.45507,3.25 -3.25,3.25c-1.79493,0 -3.25,-1.45507 -3.25,-3.25z" data-paper-data="{&quot;index&quot;:null}" fill="#bfa47a" stroke-width="0.5"/><path d="M397.19197,418.56284c0,-1.79493 1.45507,-3.25 3.25,-3.25c1.79493,0 3.25,1.45507 3.25,3.25c0,1.79493 -1.45507,3.25 -3.25,3.25c-1.79493,0 -3.25,-1.45507 -3.25,-3.25z" data-paper-data="{&quot;index&quot;:null}" fill="#bfa47a" stroke-width="0.5"/><path d="M420.19197,392.56284c0,-1.79493 1.45507,-3.25 3.25,-3.25c1.79493,0 3.25,1.45507 3.25,3.25c0,1.79493 -1.45507,3.25 -3.25,3.25c-1.79493,0 -3.25,-1.45507 -3.25,-3.25z" data-paper-data="{&quot;index&quot;:null}" fill="#bfa47a" stroke-width="0.5"/><path d="M400.19197,352.56284c0,-1.79493 1.45507,-3.25 3.25,-3.25c1.79493,0 3.25,1.45507 3.25,3.25c0,1.79493 -1.45507,3.25 -3.25,3.25c-1.79493,0 -3.25,-1.45507 -3.25,-3.25z" data-paper-data="{&quot;index&quot;:null}" fill="#bfa47a" stroke-width="0.5"/><path d="M350.19197,382.56284c0,-1.79493 1.45507,-3.25 3.25,-3.25c1.79493,0 3.25,1.45507 3.25,3.25c0,1.79493 -1.45507,3.25 -3.25,3.25c-1.79493,0 -3.25,-1.45507 -3.25,-3.25z" data-paper-data="{&quot;index&quot;:null}" fill="#bfa47a" stroke-width="0.5"/><path d="M424.19197,341.56284c0,-1.79493 1.45507,-3.25 3.25,-3.25c1.79493,0 3.25,1.45507 3.25,3.25c0,1.79493 -1.45507,3.25 -3.25,3.25c-1.79493,0 -3.25,-1.45507 -3.25,-3.25z" data-paper-data="{&quot;index&quot;:null}" fill="#bfa47a" stroke-width="0.5"/><path d="M479.19199,387.56284c0,-1.79493 1.45507,-3.25 3.25,-3.25c1.79493,0 3.25,1.45507 3.25,3.25c0,1.79493 -1.45507,3.25 -3.25,3.25c-1.79493,0 -3.25,-1.45507 -3.25,-3.25z" data-paper-data="{&quot;index&quot;:null}" fill="#bfa47a" stroke-width="0.5"/><path d="M449.19197,417.56284c0,-1.79493 1.45507,-3.25 3.25,-3.25c1.79493,0 3.25,1.45507 3.25,3.25c0,1.79493 -1.45507,3.25 -3.25,3.25c-1.79493,0 -3.25,-1.45507 -3.25,-3.25z" data-paper-data="{&quot;index&quot;:null}" fill="#bfa47a" stroke-width="0.5"/><path d="M447.19197,461.56284c0,-1.79493 1.45507,-3.25 3.25,-3.25c1.79493,0 3.25,1.45507 3.25,3.25c0,1.79493 -1.45507,3.25 -3.25,3.25c-1.79493,0 -3.25,-1.45507 -3.25,-3.25z" data-paper-data="{&quot;index&quot;:null}" fill="#bfa47a" stroke-width="0.5"/><path d="M443.19197,377.56284c0,-1.79493 1.45507,-3.25 3.25,-3.25c1.79493,0 3.25,1.45507 3.25,3.25c0,1.79493 -1.45507,3.25 -3.25,3.25c-1.79493,0 -3.25,-1.45507 -3.25,-3.25z" data-paper-data="{&quot;index&quot;:null}" fill="#bfa47a" stroke-width="0.5"/><path d="M460.19199,352.56284c0,-1.79493 1.45507,-3.25 3.25,-3.25c1.79493,0 3.25,1.45507 3.25,3.25c0,1.79493 -1.45507,3.25 -3.25,3.25c-1.79493,0 -3.25,-1.45507 -3.25,-3.25z" data-paper-data="{&quot;index&quot;:null}" fill="#bfa47a" stroke-width="0.5"/><path d="M368.19197,332.56284c0,-1.79493 1.45507,-3.25 3.25,-3.25c1.79493,0 3.25,1.45507 3.25,3.25c0,1.79493 -1.45507,3.25 -3.25,3.25c-1.79493,0 -3.25,-1.45507 -3.25,-3.25z" data-paper-data="{&quot;index&quot;:null}" fill="#bfa47a" stroke-width="0.5"/></g></g></g></svg>