<svg version="1.1" xmlns="http://www.w3.org/2000/svg" xmlns:xlink="http://www.w3.org/1999/xlink" width="802.00002" height="228.45526" viewBox="0,0,802.00002,228.45526"><g transform="translate(174.21512,-184.7948)"><g data-paper-data="{&quot;isPaintingLayer&quot;:true}" fill-rule="nonzero" stroke="none" stroke-linecap="butt" stroke-linejoin="miter" stroke-miterlimit="10" stroke-dasharray="" stroke-dashoffset="0" style="mix-blend-mode: normal"><path d="M397.61729,391.25009c0,-1.247 -2.58693,-110.42923 16.03026,-154.68049c4.73848,-11.26292 17.39714,-21.31951 24.13738,-21.31951c41.96157,0 29.59688,-18.45322 82.61353,-28.88054c65.198,-12.82316 90.38647,56.88054 90.38647,56.88054l15,148z" data-paper-data="{&quot;index&quot;:null}" fill="#ceb184" stroke-width="0"/><path d="M407.61727,398.25008c0,-1.33835 -5.23567,-127.00612 14.92051,-163.29269c3.40415,-6.12837 10.44698,-12.7073 15.24713,-12.7073c41.96157,0 29.59688,-18.45322 82.61353,-28.88054c65.198,-12.82316 90.38647,56.88054 90.38647,56.88054l15,148z" data-paper-data="{&quot;index&quot;:null}" fill="#e2c291" stroke-width="0"/><path d="" data-paper-data="{&quot;index&quot;:null}" fill="#ceb184" stroke-width="0"/><path d="" data-paper-data="{&quot;index&quot;:null}" fill="#e2c291" stroke-width="0"/><path d="" data-paper-data="{&quot;index&quot;:null}" fill="#bfa47a" stroke-width="0.5"/><path d="" data-paper-data="{&quot;index&quot;:null}" fill="#bfa47a" stroke-width="0.5"/><path d="" data-paper-data="{&quot;index&quot;:null}" fill="#bfa47a" stroke-width="0.5"/><path d="" data-paper-data="{&quot;index&quot;:null}" fill="#bfa47a" stroke-width="0.5"/><path d="" data-paper-data="{&quot;index&quot;:null}" fill="#bfa47a" stroke-width="0.5"/><path d="" data-paper-data="{&quot;index&quot;:null}" fill="#bfa47a" stroke-width="0.5"/><path d="" data-paper-data="{&quot;index&quot;:null}" fill="#bfa47a" stroke-width="0.5"/><path d="" data-paper-data="{&quot;index&quot;:null}" fill="#bfa47a" stroke-width="0.5"/><path d="" data-paper-data="{&quot;index&quot;:null}" fill="#bfa47a" stroke-width="0.5"/><path d="" data-paper-data="{&quot;index&quot;:null}" fill="#bfa47a" stroke-width="0.5"/><path d="" data-paper-data="{&quot;index&quot;:null}" fill="#bfa47a" stroke-width="0.5"/><path d="" data-paper-data="{&quot;index&quot;:null}" fill="#bfa47a" stroke-width="0.5"/><path d="" data-paper-data="{&quot;index&quot;:null}" fill="#bfa47a" stroke-width="0.5"/><path d="" data-paper-data="{&quot;index&quot;:null}" fill="#bfa47a" stroke-width="0.5"/><path d="" data-paper-data="{&quot;index&quot;:null}" fill="#bfa47a" stroke-width="0.5"/><path d="" data-paper-data="{&quot;index&quot;:null}" fill="#bfa47a" stroke-width="0.5"/><path d="" data-paper-data="{&quot;index&quot;:null}" fill="#bfa47a" stroke-width="0.5"/><path d="" data-paper-data="{&quot;index&quot;:null}" fill="#bfa47a" stroke-width="0.5"/><path d="" data-paper-data="{&quot;index&quot;:null}" fill="#bfa47a" stroke-width="0.5"/><path d="" data-paper-data="{&quot;index&quot;:null}" fill="#bfa47a" stroke-width="0.5"/><path d="" data-paper-data="{&quot;index&quot;:null}" fill="#bfa47a" stroke-width="0.5"/><path d="" data-paper-data="{&quot;index&quot;:null}" fill="#bfa47a" stroke-width="0.5"/><path d="" data-paper-data="{&quot;index&quot;:null}" fill="#bfa47a" stroke-width="0.5"/><path d="" data-paper-data="{&quot;index&quot;:null}" fill="#bfa47a" stroke-width="0.5"/><path d="" data-paper-data="{&quot;index&quot;:null}" fill="#bfa47a" stroke-width="0.5"/><path d="" data-paper-data="{&quot;index&quot;:null}" fill="#bfa47a" stroke-width="0.5"/><path d="" data-paper-data="{&quot;index&quot;:null}" fill="#bfa47a" stroke-width="0.5"/><path d="" data-paper-data="{&quot;index&quot;:null}" fill="#bfa47a" stroke-width="0.5"/><path d="" data-paper-data="{&quot;index&quot;:null}" fill="#bfa47a" stroke-width="0.5"/><path d="" data-paper-data="{&quot;index&quot;:null}" fill="#bfa47a" stroke-width="0.5"/><path d="" data-paper-data="{&quot;index&quot;:null}" fill="#bfa47a" stroke-width="0.5"/><path d="" data-paper-data="{&quot;index&quot;:null}" fill="#bfa47a" stroke-width="0.5"/><path d="" data-paper-data="{&quot;index&quot;:null}" fill="#bfa47a" stroke-width="0.5"/><path d="" data-paper-data="{&quot;index&quot;:null}" fill="#bfa47a" stroke-width="0.5"/><path d="" data-paper-data="{&quot;index&quot;:null}" fill="#bfa47a" stroke-width="0.5"/><path d="" data-paper-data="{&quot;index&quot;:null}" fill="#bfa47a" stroke-width="0.5"/><path d="" data-paper-data="{&quot;index&quot;:null}" fill="#bfa47a" stroke-width="0.5"/><path d="" data-paper-data="{&quot;index&quot;:null}" fill="#bfa47a" stroke-width="0.5"/><path d="" data-paper-data="{&quot;index&quot;:null}" fill="#bfa47a" stroke-width="0.5"/><path d="M409.61727,408.25007c0,-1.5644 0,-3.12879 0,-4.69319c0,0 0,-1.14812 -0.38903,-2.66631c15.36911,-52.15617 -2.66556,-168.6405 30.55666,-168.6405c41.96157,0 29.59688,-18.45322 82.61353,-28.88054c65.198,-12.82316 90.38647,56.88054 90.38647,56.88054l15,148z" data-paper-data="{&quot;index&quot;:null}" fill="#ffdaa2" stroke-width="0"/><path d="M579.61729,279.80685c-1.79493,0 -3.25,-1.45507 -3.25,-3.25c0,-1.79493 1.45507,-3.25 3.25,-3.25c1.79493,0 3.25,1.45507 3.25,3.25c0,1.79493 -1.45507,3.25 -3.25,3.25z" data-paper-data="{&quot;index&quot;:null}" fill="#bfa47a" stroke-width="0.5"/><path d="M499.61729,288.80686c-1.79493,0 -3.25,-1.45507 -3.25,-3.25c0,-1.79493 1.45507,-3.25 3.25,-3.25c1.79493,0 3.25,1.45507 3.25,3.25c0,1.79493 -1.45507,3.25 -3.25,3.25z" data-paper-data="{&quot;index&quot;:null}" fill="#bfa47a" stroke-width="0.5"/><path d="M454.61729,272.80686c-1.79493,0 -3.25,-1.45507 -3.25,-3.25c0,-1.79493 1.45507,-3.25 3.25,-3.25c1.79493,0 3.25,1.45507 3.25,3.25c0,1.79493 -1.45507,3.25 -3.25,3.25z" data-paper-data="{&quot;index&quot;:null}" fill="#bfa47a" stroke-width="0.5"/><path d="M505.61729,325.80686c-1.79493,0 -3.25,-1.45507 -3.25,-3.25c0,-1.79493 1.45507,-3.25 3.25,-3.25c1.79493,0 3.25,1.45507 3.25,3.25c0,1.79493 -1.45507,3.25 -3.25,3.25z" data-paper-data="{&quot;index&quot;:null}" fill="#bfa47a" stroke-width="0.5"/><path d="M576.61729,319.80686c-1.79493,0 -3.25,-1.45507 -3.25,-3.25c0,-1.79493 1.45507,-3.25 3.25,-3.25c1.79493,0 3.25,1.45507 3.25,3.25c0,1.79493 -1.45507,3.25 -3.25,3.25z" data-paper-data="{&quot;index&quot;:null}" fill="#bfa47a" stroke-width="0.5"/><path d="M571.61729,367.80686c-1.79493,0 -3.25,-1.45507 -3.25,-3.25c0,-1.79493 1.45507,-3.25 3.25,-3.25c1.79493,0 3.25,1.45507 3.25,3.25c0,1.79493 -1.45507,3.25 -3.25,3.25z" data-paper-data="{&quot;index&quot;:null}" fill="#bfa47a" stroke-width="0.5"/><path d="M498.61729,365.80686c-1.79493,0 -3.25,-1.45507 -3.25,-3.25c0,-1.79493 1.45507,-3.25 3.25,-3.25c1.79493,0 3.25,1.45507 3.25,3.25c0,1.79493 -1.45507,3.25 -3.25,3.25z" data-paper-data="{&quot;index&quot;:null}" fill="#bfa47a" stroke-width="0.5"/><path d="M483.61729,395.80686c-1.79493,0 -3.25,-1.45507 -3.25,-3.25c0,-1.79493 1.45507,-3.25 3.25,-3.25c1.79493,0 3.25,1.45507 3.25,3.25c0,1.79493 -1.45507,3.25 -3.25,3.25z" data-paper-data="{&quot;index&quot;:null}" fill="#bfa47a" stroke-width="0.5"/><path d="M455.61729,381.80686c-1.79493,0 -3.25,-1.45507 -3.25,-3.25c0,-1.79493 1.45507,-3.25 3.25,-3.25c1.79493,0 3.25,1.45507 3.25,3.25c0,1.79493 -1.45507,3.25 -3.25,3.25z" data-paper-data="{&quot;index&quot;:null}" fill="#bfa47a" stroke-width="0.5"/><path d="M464.61729,330.80686c-1.79493,0 -3.25,-1.45507 -3.25,-3.25c0,-1.79493 1.45507,-3.25 3.25,-3.25c1.79493,0 3.25,1.45507 3.25,3.25c0,1.79493 -1.45507,3.25 -3.25,3.25z" data-paper-data="{&quot;index&quot;:null}" fill="#bfa47a" stroke-width="0.5"/><path d="M439.61729,323.80686c-1.79493,0 -3.25,-1.45507 -3.25,-3.25c0,-1.79493 1.45507,-3.25 3.25,-3.25c1.79493,0 3.25,1.45507 3.25,3.25c0,1.79493 -1.45507,3.25 -3.25,3.25z" data-paper-data="{&quot;index&quot;:null}" fill="#bfa47a" stroke-width="0.5"/><path d="M443.61729,303.80686c-1.79493,0 -3.25,-1.45507 -3.25,-3.25c0,-1.79493 1.45507,-3.25 3.25,-3.25c1.79493,0 3.25,1.45507 3.25,3.25c0,1.79493 -1.45507,3.25 -3.25,3.25z" data-paper-data="{&quot;index&quot;:null}" fill="#bfa47a" stroke-width="0.5"/><path d="M533.61729,303.80686c-1.79493,0 -3.25,-1.45507 -3.25,-3.25c0,-1.79493 1.45507,-3.25 3.25,-3.25c1.79493,0 3.25,1.45507 3.25,3.25c0,1.79493 -1.45507,3.25 -3.25,3.25z" data-paper-data="{&quot;index&quot;:null}" fill="#bfa47a" stroke-width="0.5"/><path d="M544.61729,368.80686c-1.79493,0 -3.25,-1.45507 -3.25,-3.25c0,-1.79493 1.45507,-3.25 3.25,-3.25c1.79493,0 3.25,1.45507 3.25,3.25c0,1.79493 -1.45507,3.25 -3.25,3.25z" data-paper-data="{&quot;index&quot;:null}" fill="#bfa47a" stroke-width="0.5"/><path d="M526.61729,399.80686c-1.79493,0 -3.25,-1.45507 -3.25,-3.25c0,-1.79493 1.45507,-3.25 3.25,-3.25c1.79493,0 3.25,1.45507 3.25,3.25c0,1.79493 -1.45507,3.25 -3.25,3.25z" data-paper-data="{&quot;index&quot;:null}" fill="#bfa47a" stroke-width="0.5"/><path d="M484.70248,249.55684c0,-1.79493 1.45507,-3.25 3.25,-3.25c1.79493,0 3.25,1.45507 3.25,3.25c0,1.79493 -1.45507,3.25 -3.25,3.25c-1.79493,0 -3.25,-1.45507 -3.25,-3.25z" fill="#bfa47a" stroke-width="0.5"/><path d="M552.70248,255.55684c0,-1.79493 1.45507,-3.25 3.25,-3.25c1.79493,0 3.25,1.45507 3.25,3.25c0,1.79493 -1.45507,3.25 -3.25,3.25c-1.79493,0 -3.25,-1.45507 -3.25,-3.25z" fill="#bfa47a" stroke-width="0.5"/><path d="M518.70248,223.55684c0,-1.79493 1.45507,-3.25 3.25,-3.25c1.79493,0 3.25,1.45507 3.25,3.25c0,1.79493 -1.45507,3.25 -3.25,3.25c-1.79493,0 -3.25,-1.45507 -3.25,-3.25z" fill="#bfa47a" stroke-width="0.5"/><path d="M443.70248,239.55684c0,-1.79493 1.45507,-3.25 3.25,-3.25c1.79493,0 3.25,1.45507 3.25,3.25c0,1.79493 -1.45507,3.25 -3.25,3.25c-1.79493,0 -3.25,-1.45507 -3.25,-3.25z" fill="#bfa47a" stroke-width="0.5"/><path d="M427.70248,351.55684c0,-1.79493 1.45507,-3.25 3.25,-3.25c1.79493,0 3.25,1.45507 3.25,3.25c0,1.79493 -1.45507,3.25 -3.25,3.25c-1.79493,0 -3.25,-1.45507 -3.25,-3.25z" fill="#bfa47a" stroke-width="0.5"/><path d="M468.70248,233.55684c0,-1.79493 1.45507,-3.25 3.25,-3.25c1.79493,0 3.25,1.45507 3.25,3.25c0,1.79493 -1.45507,3.25 -3.25,3.25c-1.79493,0 -3.25,-1.45507 -3.25,-3.25z" fill="#bfa47a" stroke-width="0.5"/><path d="M471.70248,294.55684c0,-1.79493 1.45507,-3.25 3.25,-3.25c1.79493,0 3.25,1.45507 3.25,3.25c0,1.79493 -1.45507,3.25 -3.25,3.25c-1.79493,0 -3.25,-1.45507 -3.25,-3.25z" fill="#bfa47a" stroke-width="0.5"/><path d="M419.70248,269.55684c0,-1.79493 1.45507,-3.25 3.25,-3.25c1.79493,0 3.25,1.45507 3.25,3.25c0,1.79493 -1.45507,3.25 -3.25,3.25c-1.79493,0 -3.25,-1.45507 -3.25,-3.25z" fill="#bfa47a" stroke-width="0.5"/><g><path d="M101.61725,389.55689c-0.58641,1.19745 -17.02002,2.66681 -17,4c0.00862,0.57419 0.03095,1.13769 0.0634,1.69319h-258.89577l100,-199c0,0 73.04211,53.32443 132.13538,23.54856c13.16208,-6.6321 44.30032,-4.50537 45.49592,17.92885z" data-paper-data="{&quot;index&quot;:null}" fill="#ceb184" stroke-width="0"/><path d="M99.05688,390.61539c-0.2858,0.93001 -271.272,12.63469 -271.272,12.63469l100,-199c0,0 73.04211,53.32443 132.13538,23.54856c13.16208,-6.6321 36.30032,-4.50537 37.49592,17.92885c0,0 -7.07593,101.41568 1.6407,144.8879z" data-paper-data="{&quot;index&quot;:null}" fill="#e2c291" stroke-width="0"/><path d="M88.41619,255.72747c1.89136,35.48964 -10.07593,101.41568 -1.35931,144.8879c-0.2858,0.93 -0.43963,1.91779 -0.43963,2.9415v4c-0.58641,1.19746 -0.02001,2.66682 0,4c0.00862,0.5742 0.03095,1.13769 0.0634,1.69319h-258.89577l100,-199c0,0 73.04211,53.32443 132.13538,23.54856c13.16208,-6.6321 27.30032,-4.50537 28.49592,17.92885z" data-paper-data="{&quot;index&quot;:null}" fill="#ffdaa2" stroke-width="0"/><path d="M53.61727,394.80686c-1.79493,0 -3.25,-1.45507 -3.25,-3.25c0,-1.79493 1.45507,-3.25 3.25,-3.25c1.79493,0 3.25,1.45507 3.25,3.25c0,1.79493 -1.45507,3.25 -3.25,3.25z" data-paper-data="{&quot;index&quot;:null}" fill="#bfa47a" stroke-width="0.5"/><path d="M57.61727,354.80686c-1.79493,0 -3.25,-1.45507 -3.25,-3.25c0,-1.79493 1.45507,-3.25 3.25,-3.25c1.79493,0 3.25,1.45507 3.25,3.25c0,1.79493 -1.45507,3.25 -3.25,3.25z" data-paper-data="{&quot;index&quot;:null}" fill="#bfa47a" stroke-width="0.5"/><path d="M9.61727,355.80686c-1.79493,0 -3.25,-1.45507 -3.25,-3.25c0,-1.79493 1.45507,-3.25 3.25,-3.25c1.79493,0 3.25,1.45507 3.25,3.25c0,1.79493 -1.45507,3.25 -3.25,3.25z" data-paper-data="{&quot;index&quot;:null}" fill="#bfa47a" stroke-width="0.5"/><path d="M1.61727,308.80686c-1.79493,0 -3.25,-1.45507 -3.25,-3.25c0,-1.79493 1.45507,-3.25 3.25,-3.25c1.79493,0 3.25,1.45507 3.25,3.25c0,1.79493 -1.45507,3.25 -3.25,3.25z" data-paper-data="{&quot;index&quot;:null}" fill="#bfa47a" stroke-width="0.5"/><path d="M52.61727,307.80686c-1.79493,0 -3.25,-1.45507 -3.25,-3.25c0,-1.79493 1.45507,-3.25 3.25,-3.25c1.79493,0 3.25,1.45507 3.25,3.25c0,1.79493 -1.45507,3.25 -3.25,3.25z" data-paper-data="{&quot;index&quot;:null}" fill="#bfa47a" stroke-width="0.5"/><path d="M68.61727,264.80686c-1.79493,0 -3.25,-1.45507 -3.25,-3.25c0,-1.79493 1.45507,-3.25 3.25,-3.25c1.79493,0 3.25,1.45507 3.25,3.25c0,1.79493 -1.45507,3.25 -3.25,3.25z" data-paper-data="{&quot;index&quot;:null}" fill="#bfa47a" stroke-width="0.5"/><path d="M17.61727,263.80686c-1.79493,0 -3.25,-1.45507 -3.25,-3.25c0,-1.79493 1.45507,-3.25 3.25,-3.25c1.79493,0 3.25,1.45507 3.25,3.25c0,1.79493 -1.45507,3.25 -3.25,3.25z" data-paper-data="{&quot;index&quot;:null}" fill="#bfa47a" stroke-width="0.5"/><path d="M35.61727,328.80686c-1.79493,0 -3.25,-1.45507 -3.25,-3.25c0,-1.79493 1.45507,-3.25 3.25,-3.25c1.79493,0 3.25,1.45507 3.25,3.25c0,1.79493 -1.45507,3.25 -3.25,3.25z" data-paper-data="{&quot;index&quot;:null}" fill="#bfa47a" stroke-width="0.5"/><path d="M-24.38273,268.80686c-1.79493,0 -3.25,-1.45507 -3.25,-3.25c0,-1.79493 1.45507,-3.25 3.25,-3.25c1.79493,0 3.25,1.45507 3.25,3.25c0,1.79493 -1.45507,3.25 -3.25,3.25z" data-paper-data="{&quot;index&quot;:null}" fill="#bfa47a" stroke-width="0.5"/><path d="M-61.38272,279.80685c-1.79493,0 -3.25,-1.45507 -3.25,-3.25c0,-1.79493 1.45507,-3.25 3.25,-3.25c1.79493,0 3.25,1.45507 3.25,3.25c0,1.79493 -1.45507,3.25 -3.25,3.25z" data-paper-data="{&quot;index&quot;:null}" fill="#bfa47a" stroke-width="0.5"/><path d="M-20.38271,323.80686c-1.79493,0 -3.25,-1.45507 -3.25,-3.25c0,-1.79493 1.45507,-3.25 3.25,-3.25c1.79493,0 3.25,1.45507 3.25,3.25c0,1.79493 -1.45507,3.25 -3.25,3.25z" data-paper-data="{&quot;index&quot;:null}" fill="#bfa47a" stroke-width="0.5"/><path d="M-59.38272,401.80686c-1.79493,0 -3.25,-1.45507 -3.25,-3.25c0,-1.79493 1.45507,-3.25 3.25,-3.25c1.79493,0 3.25,1.45507 3.25,3.25c0,1.79493 -1.45507,3.25 -3.25,3.25z" data-paper-data="{&quot;index&quot;:null}" fill="#bfa47a" stroke-width="0.5"/><path d="M-84.38272,335.80686c-1.79493,0 -3.25,-1.45507 -3.25,-3.25c0,-1.79493 1.45507,-3.25 3.25,-3.25c1.79493,0 3.25,1.45507 3.25,3.25c0,1.79493 -1.45507,3.25 -3.25,3.25z" data-paper-data="{&quot;index&quot;:null}" fill="#bfa47a" stroke-width="0.5"/><path d="M-16.38273,366.80686c-1.79493,0 -3.25,-1.45507 -3.25,-3.25c0,-1.79493 1.45507,-3.25 3.25,-3.25c1.79493,0 3.25,1.45507 3.25,3.25c0,1.79493 -1.45507,3.25 -3.25,3.25z" data-paper-data="{&quot;index&quot;:null}" fill="#bfa47a" stroke-width="0.5"/><path d="M2.61727,401.80686c-1.79493,0 -3.25,-1.45507 -3.25,-3.25c0,-1.79493 1.45507,-3.25 3.25,-3.25c1.79493,0 3.25,1.45507 3.25,3.25c0,1.79493 -1.45507,3.25 -3.25,3.25z" data-paper-data="{&quot;index&quot;:null}" fill="#bfa47a" stroke-width="0.5"/><path d="M-55.38272,354.80686c-1.79493,0 -3.25,-1.45507 -3.25,-3.25c0,-1.79493 1.45507,-3.25 3.25,-3.25c1.79493,0 3.25,1.45507 3.25,3.25c0,1.79493 -1.45507,3.25 -3.25,3.25z" data-paper-data="{&quot;index&quot;:null}" fill="#bfa47a" stroke-width="0.5"/><path d="M-55.38272,304.80686c-1.79493,0 -3.25,-1.45507 -3.25,-3.25c0,-1.79493 1.45507,-3.25 3.25,-3.25c1.79493,0 3.25,1.45507 3.25,3.25c0,1.79493 -1.45507,3.25 -3.25,3.25z" data-paper-data="{&quot;index&quot;:null}" fill="#bfa47a" stroke-width="0.5"/><path d="M-86.38272,274.80686c-1.79493,0 -3.25,-1.45507 -3.25,-3.25c0,-1.79493 1.45507,-3.25 3.25,-3.25c1.79493,0 3.25,1.45507 3.25,3.25c0,1.79493 -1.45507,3.25 -3.25,3.25z" data-paper-data="{&quot;index&quot;:null}" fill="#bfa47a" stroke-width="0.5"/><path d="M-47.38273,248.80686c-1.79493,0 -3.25,-1.45507 -3.25,-3.25c0,-1.79493 1.45507,-3.25 3.25,-3.25c1.79493,0 3.25,1.45507 3.25,3.25c0,1.79493 -1.45507,3.25 -3.25,3.25z" data-paper-data="{&quot;index&quot;:null}" fill="#bfa47a" stroke-width="0.5"/></g></g></g></svg>