<svg version="1.1" xmlns="http://www.w3.org/2000/svg" xmlns:xlink="http://www.w3.org/1999/xlink" width="49.6305" height="51.8093" viewBox="0,0,49.6305,51.8093"><defs><linearGradient x1="264.81525" y1="180" x2="215.1577" y2="180" gradientUnits="userSpaceOnUse" id="color-1"><stop offset="0" stop-color="#669aff"/><stop offset="1" stop-color="#66d5ff"/></linearGradient></defs><g transform="translate(-215.18475,-154.09535)"><g data-paper-data="{&quot;isPaintingLayer&quot;:true}" fill-rule="nonzero" stroke-linecap="butt" stroke-linejoin="miter" stroke-miterlimit="10" stroke-dasharray="" stroke-dashoffset="0" style="mix-blend-mode: normal"><path d="M258.8597,205.90465c-5.75665,0 -26.71338,0 -37.41093,0c-3.90007,0 -6.12331,-3.60357 -6.12331,-6.91374c0,-6.28556 -0.09315,-28.13237 -0.14063,-38.85913c-0.01624,-3.66853 2.54588,-6.03643 7.10275,-6.03643c11.20033,0 31.84846,0 37.24317,0c2.61914,0 5.2845,2.06819 5.2845,5.33846c0,10.63638 0,33.98877 0,40.25723c0,3.02551 -3.05568,6.21361 -5.95555,6.21361z" data-paper-data="{&quot;index&quot;:null}" fill="url(#color-1)" stroke="#000000" stroke-width="0"/><path d="M231.23991,181.3099c-1.8674,0 -3.38122,-3.22553 -3.38122,-7.20443c0,-3.9789 1.51383,-7.20443 3.38122,-7.20443c1.8674,0 3.38122,3.22553 3.38122,7.20443c0,3.9789 -1.51383,7.20443 -3.38122,7.20443z" data-paper-data="{&quot;index&quot;:null}" fill="#000000" stroke="none" stroke-width="0.5"/><path d="M221.71101,181.1144c-1.8674,0 -3.38122,-3.22554 -3.38122,-7.20443c0,-3.9789 1.51383,-7.20443 3.38122,-7.20443c1.8674,0 3.38122,3.22554 3.38122,7.20443c0,3.9789 -1.51383,7.20443 -3.38122,7.20443z" data-paper-data="{&quot;index&quot;:null}" fill="#000000" stroke="none" stroke-width="0.5"/></g></g></svg>