<svg version="1.1" xmlns="http://www.w3.org/2000/svg" xmlns:xlink="http://www.w3.org/1999/xlink" width="49.6305" height="51.8093" viewBox="0,0,49.6305,51.8093"><defs><linearGradient x1="215.18475" y1="180" x2="264.8423" y2="180" gradientUnits="userSpaceOnUse" id="color-1"><stop offset="0" stop-color="#669aff"/><stop offset="1" stop-color="#66d5ff"/></linearGradient></defs><g transform="translate(-215.18475,-154.09535)"><g data-paper-data="{&quot;isPaintingLayer&quot;:true}" fill-rule="nonzero" stroke-linecap="butt" stroke-linejoin="miter" stroke-miterlimit="10" stroke-dasharray="" stroke-dashoffset="0" style="mix-blend-mode: normal"><path d="M215.18475,199.69104c0,-6.26846 0,-29.62085 0,-40.25723c0,-3.27027 2.66536,-5.33846 5.2845,-5.33846c5.39471,0 26.04284,0 37.24317,0c4.55687,0 7.11899,2.3679 7.10275,6.03643c-0.04748,10.72676 -0.14063,32.57357 -0.14063,38.85913c0,3.31017 -2.22324,6.91374 -6.12331,6.91374c-10.69755,0 -31.65428,0 -37.41093,0c-2.89987,0 -5.95555,-3.1881 -5.95555,-6.21361z" data-paper-data="{&quot;index&quot;:null}" fill="url(#color-1)" stroke="#000000" stroke-width="0"/><path d="M245.37887,174.10547c0,-3.9789 1.51382,-7.20443 3.38122,-7.20443c1.86739,0 3.38122,3.22553 3.38122,7.20443c0,3.9789 -1.51382,7.20443 -3.38122,7.20443c-1.86739,0 -3.38122,-3.22553 -3.38122,-7.20443z" data-paper-data="{&quot;index&quot;:null}" fill="#000000" stroke="none" stroke-width="0.5"/><path d="M254.90777,173.90997c0,-3.97889 1.51382,-7.20443 3.38122,-7.20443c1.86739,0 3.38122,3.22553 3.38122,7.20443c0,3.97889 -1.51382,7.20443 -3.38122,7.20443c-1.86739,0 -3.38122,-3.22553 -3.38122,-7.20443z" data-paper-data="{&quot;index&quot;:null}" fill="#000000" stroke="none" stroke-width="0.5"/></g></g></svg>