<svg version="1.1" xmlns="http://www.w3.org/2000/svg" xmlns:xlink="http://www.w3.org/1999/xlink" width="793.13853" height="553.12901" viewBox="0,0,793.13853,553.12901"><defs><radialGradient cx="411.64189" cy="62.85104" r="154.09591" gradientUnits="userSpaceOnUse" id="color-1"><stop offset="0" stop-color="#ffcf3b"/><stop offset="1" stop-color="#ffcf3b" stop-opacity="0"/></radialGradient><radialGradient cx="79.00001" cy="169.00004" r="123.50075" gradientUnits="userSpaceOnUse" id="color-2"><stop offset="0" stop-color="#ffffff"/><stop offset="1" stop-color="#ffffff" stop-opacity="0"/></radialGradient><linearGradient x1="36.92195" y1="180.47613" x2="118.19166" y2="160.76324" gradientUnits="userSpaceOnUse" id="color-3"><stop offset="0" stop-color="#669aff"/><stop offset="1" stop-color="#66d5ff"/></linearGradient></defs><g transform="translate(176.38527,91.24486)"><g data-paper-data="{&quot;isPaintingLayer&quot;:true}" fill-rule="nonzero" stroke-linecap="butt" stroke-linejoin="miter" stroke-miterlimit="10" stroke-dasharray="" stroke-dashoffset="0" style="mix-blend-mode: normal"><g stroke="none" stroke-width="0"><path d="M-176.38527,461.73324c0,0 0,-169.07986 0,-251.81245c0,-28.31528 0,-66.18035 0,-103.3552c0,-68.36974 0,-134.40491 0,-134.40491h673.31643v489.57257z" fill="#b2d7f2"/><g><path d="M257.54599,62.85104c0,-85.10481 68.99108,-154.0959 154.09591,-154.0959c85.10481,0 154.0959,68.99109 154.0959,154.0959c0,85.10483 -68.99109,154.0959 -154.0959,154.0959c-85.10482,0 -154.09591,-68.99108 -154.09591,-154.0959z" fill="url(#color-1)"/><path d="M347.11423,62.85104c0,-35.10574 28.45883,-63.56456 63.56456,-63.56456c35.10574,0 63.56456,28.45883 63.56456,63.56456c0,35.10573 -28.45883,63.56456 -63.56456,63.56456c-35.10573,0 -63.56456,-28.45883 -63.56456,-63.56456z" fill="#fffe3a"/></g></g><path d="M263.93995,460.64811l-16.92553,-180.89157l352.81331,-33.01177l16.92553,180.89157z" fill="#e3c191" stroke="none" stroke-width="0"/><path d="M-44.50074,169.00004c0,-15.41959 74.98796,-4.78908 74.98796,-4.78908c0,0 -58.77342,-57.21656 -53.15542,-65.34512c12.21179,-17.66895 28.91076,-31.99921 48.44991,-41.34377c7.83599,-3.74755 42.77211,75.2692 42.77211,75.2692c0,0 0.65631,-87.29199 10.44621,-87.29199c16.16256,0 31.59996,3.10474 45.74834,8.75035c10.72699,4.28038 -26.28772,90.97712 -26.28772,90.97712c0,0 74.95737,-56.85646 82.22429,-46.33678c13.75804,19.91629 21.81584,44.07216 21.81584,70.11005c0,6.43765 -98.44205,21.93219 -98.44205,21.93219c0,0 92.92144,15.9046 89.34711,24.67039c-10.43435,25.58946 -29.20466,46.89348 -52.93759,60.53872c-9.02128,5.18678 -54.0297,-71.94474 -54.0297,-71.94474c0,0 3.78711,88.30419 -7.43851,88.30419c-24.67353,0 -47.65712,-7.23549 -66.94469,-19.70042c-12.64941,-8.1749 32.38677,-77.70661 32.38677,-77.70661c0,0 -73.35857,34.4826 -76.66033,27.66425c-7.86986,-16.25176 -12.28249,-34.48955 -12.28249,-53.75797z" fill="url(#color-2)" stroke="none" stroke-width="0"/><g><path d="M44.73883,212.70253c-2.48843,-10.25899 -11.75878,-48.47758 -15.98117,-65.8851c-1.29822,-5.35213 2.24289,-9.79503 6.52939,-10.83477c8.829,-2.14157 42.6218,-10.33839 60.95229,-14.78466c7.45779,-1.80897 12.59096,1.04924 14.02071,7.05961c4.18057,17.5743 12.70078,53.36583 15.19599,63.6528c1.31406,5.41744 -0.89397,12.19762 -7.27684,13.74586c-17.50764,4.24667 -51.80549,12.566 -61.22685,14.85125c-4.74593,1.15118 -11.01247,-2.85344 -12.21353,-7.80501z" data-paper-data="{&quot;index&quot;:null}" fill="url(#color-3)" stroke="#000000" stroke-width="0"/><path d="M99.51519,154.74004c-1.57953,-6.51187 -0.38246,-12.39174 2.67373,-13.13305c3.05618,-0.74131 6.81418,3.93665 8.3937,10.44852c1.57953,6.51187 0.38246,12.39174 -2.67373,13.13305c-3.05618,0.74131 -6.81418,-3.93665 -8.3937,-10.44852z" data-paper-data="{&quot;index&quot;:null}" fill="#000000" stroke="none" stroke-width="0.5"/><path d="M83.99777,158.84276c-1.57953,-6.51188 -0.38246,-12.39174 2.67373,-13.13305c3.05618,-0.74131 6.81417,3.93664 8.3937,10.44852c1.57953,6.51188 0.38246,12.39174 -2.67373,13.13305c-3.05618,0.74131 -6.81417,-3.93664 -8.3937,-10.44852z" data-paper-data="{&quot;index&quot;:null}" fill="#000000" stroke="none" stroke-width="0.5"/></g><g fill="#648a09" stroke="none" stroke-width="0"><path d="M214.10659,178.97057c0.50222,7.64835 7.47705,75.05984 3.61768,81.99994c-2.19796,3.95245 -24.60538,5.91668 -27.13543,2.10098c-4.25786,-6.42148 -5.91341,-74.60603 -6.40785,-82.13587c-0.78824,-12.00415 5.2337,-15.52916 13.49742,-16.07179c8.26372,-0.54263 15.63993,2.1026 16.42817,14.10675z"/><g><path d="M227.44979,173.25363c4.41237,-0.42388 7.91152,1.28097 8.58383,9.07879c0.42172,4.89134 3.01342,17.40719 1.34759,21.9374c-0.98985,2.69188 -12.99883,3.52412 -14.51772,1.18652c-2.66702,-4.10458 -2.38008,-16.62062 -2.80844,-21.58893c-0.6723,-7.79782 2.98238,-10.1899 7.39474,-10.61379z" data-paper-data="{&quot;index&quot;:null}"/><path d="M237.57815,198.28511c1.21746,5.14476 -0.41375,10.1115 -10.23137,14.31145c-6.1583,2.6345 -21.68355,11.20241 -27.70325,11.15882c-3.57695,-0.0259 -6.48153,-14.16789 -3.74092,-17.01793c4.81224,-5.00438 20.78015,-10.09578 27.03535,-12.77173c9.81761,-4.19995 13.42271,-0.82537 14.64017,4.31939z" data-paper-data="{&quot;index&quot;:null}"/></g><g data-paper-data="{&quot;index&quot;:null}"><path d="M179.55883,207.40661c0.22646,4.98157 2.13171,17.35367 0.05867,21.7695c-1.18062,2.51486 -13.02249,3.24877 -14.33913,0.70834c-2.21579,-4.27532 -1.30834,-17.02095 -1.53129,-21.92534c-0.35543,-7.81862 2.84222,-9.9632 7.2085,-10.11577c4.3663,-0.15256 8.24781,1.74466 8.60323,9.56328z" data-paper-data="{&quot;index&quot;:null}"/><path d="M178.05295,217.79312c6.45928,1.84106 22.72233,4.81604 28.07399,9.15301c3.04783,2.46995 2.04576,16.86845 -1.44587,17.35851c-5.87612,0.82472 -22.15795,-5.6546 -28.51717,-7.46715c-10.13792,-2.88958 -12.37656,-7.60221 -11.85491,-12.86117c0.52165,-5.25896 3.60605,-9.07279 13.74397,-6.18322z" data-paper-data="{&quot;index&quot;:null}"/></g></g><g stroke="none"><path d="M-149.79388,445.16525l0.29134,-148.7579c0,0 10.38432,-28.87207 76.5308,-22.55894c53.78792,5.1336 63.81013,18.66207 105.56604,14.51265c43.86487,-4.35899 45.58421,-15.79227 105.78253,-30.5874c42.01496,-10.32616 97.72254,-11.47959 148.08496,7.92089c61.74806,23.78643 189.66146,117.27133 189.66146,117.27133z" fill="#ceb184" stroke-width="0"/><path d="M-147.01258,452.92827l0.29133,-148.75791c0,0 10.38432,-28.87207 76.5308,-22.55894c53.78792,5.1336 63.81013,18.66207 105.56604,14.51265c43.86487,-4.35899 45.58421,-15.79227 105.78253,-30.5874c42.01496,-10.32616 97.72254,-11.47958 148.08496,7.9209c61.74806,23.78643 189.66146,117.27133 189.66146,117.27133z" fill="#e2c291" stroke-width="0"/><path d="M-146.12261,461.88415l0.29134,-148.75791c0,0 10.38432,-28.87207 76.5308,-22.55894c53.78792,5.1336 63.81012,18.66207 105.56604,14.51265c43.86487,-4.35899 45.58421,-15.79227 105.78253,-30.5874c42.01496,-10.32616 97.72254,-11.47958 148.08496,7.92089c61.74806,23.78643 189.66147,117.27133 189.66147,117.27133z" fill="#ffdaa2" stroke-width="0"/><path d="M-106.91409,341.53071c-0.17749,-1.78614 1.12656,-3.37796 2.91269,-3.55546c1.78614,-0.1775 3.37796,1.12656 3.55545,2.9127c0.17749,1.78614 -1.12656,3.37796 -2.91269,3.55545c-1.78614,0.1775 -3.37795,-1.12656 -3.55545,-2.91269z" fill="#bfa47a" stroke-width="0.5"/><path d="M-81.1342,327.9147c-0.17749,-1.78614 1.12656,-3.37796 2.9127,-3.55545c1.78614,-0.1775 3.37796,1.12656 3.55545,2.9127c0.17749,1.78614 -1.12656,3.37796 -2.91269,3.55545c-1.78614,0.1775 -3.37796,-1.12656 -3.55546,-2.9127z" fill="#bfa47a" stroke-width="0.5"/><path d="M-61.94936,359.17077c-0.1775,-1.78614 1.12656,-3.37796 2.91269,-3.55545c1.78614,-0.1775 3.37796,1.12656 3.55545,2.9127c0.1775,1.78614 -1.12656,3.37796 -2.91269,3.55545c-1.78614,0.1775 -3.37795,-1.12656 -3.55545,-2.9127z" fill="#bfa47a" stroke-width="0.5"/><path d="M-8.40556,341.79086c-0.1775,-1.78614 1.12656,-3.37796 2.9127,-3.55545c1.78613,-0.1775 3.37795,1.12656 3.55545,2.91269c0.17749,1.78614 -1.12656,3.37796 -2.91269,3.55545c-1.78613,0.1775 -3.37795,-1.12656 -3.55545,-2.91269z" fill="#bfa47a" stroke-width="0.5"/><path d="M-33.51199,392.52217c-0.1775,-1.78614 1.12656,-3.37795 2.91269,-3.55545c1.78614,-0.1775 3.37796,1.12656 3.55545,2.9127c0.1775,1.78614 -1.12656,3.37795 -2.91269,3.55545c-1.78614,0.1775 -3.37795,-1.12656 -3.55545,-2.9127z" fill="#bfa47a" stroke-width="0.5"/><path d="M69.58274,378.25764c-0.17749,-1.78614 1.12656,-3.37796 2.91269,-3.55545c1.78614,-0.1775 3.37796,1.12656 3.55545,2.91269c0.17749,1.78614 -1.12656,3.37795 -2.91269,3.55545c-1.78614,0.1775 -3.37796,-1.12655 -3.55545,-2.91269z" fill="#bfa47a" stroke-width="0.5"/><path d="M64.84867,310.39313c-0.17749,-1.78614 1.12656,-3.37795 2.91269,-3.55545c1.78614,-0.1775 3.37796,1.12656 3.55546,2.91269c0.17749,1.78614 -1.12656,3.37795 -2.91269,3.55545c-1.78614,0.1775 -3.37796,-1.12656 -3.55546,-2.91269z" fill="#bfa47a" stroke-width="0.5"/><path d="M38.66074,340.12851c-0.1775,-1.78614 1.12656,-3.37795 2.91269,-3.55545c1.78614,-0.1775 3.37796,1.12656 3.55546,2.91269c0.1775,1.78614 -1.12656,3.37795 -2.91269,3.55545c-1.78614,0.1775 -3.37796,-1.12656 -3.55546,-2.91269z" fill="#bfa47a" stroke-width="0.5"/><path d="M-45.69993,310.32452c-0.1775,-1.78614 1.12656,-3.37796 2.91269,-3.55545c1.78614,-0.1775 3.37796,1.12656 3.55545,2.9127c0.1775,1.78614 -1.12656,3.37796 -2.91269,3.55545c-1.78614,0.1775 -3.37795,-1.12656 -3.55545,-2.9127z" fill="#bfa47a" stroke-width="0.5"/><path d="M-125.69713,304.20515c-0.17749,-1.78614 1.12656,-3.37795 2.91269,-3.55545c1.78614,-0.1775 3.37796,1.12656 3.55545,2.9127c0.17749,1.78614 -1.12656,3.37795 -2.91269,3.55545c-1.78614,0.1775 -3.37796,-1.12656 -3.55545,-2.9127z" fill="#bfa47a" stroke-width="0.5"/><path d="M86.413,355.48172c-0.17749,-1.78614 1.12656,-3.37796 2.91269,-3.55545c1.78614,-0.1775 3.37796,1.12656 3.55546,2.91269c0.17749,1.78614 -1.12656,3.37796 -2.91269,3.55545c-1.78614,0.1775 -3.37796,-1.12656 -3.55546,-2.91269z" fill="#bfa47a" stroke-width="0.5"/><path d="M113.2005,321.66706c-0.17749,-1.78614 1.12656,-3.37795 2.91269,-3.55545c1.78614,-0.1775 3.37796,1.12655 3.55545,2.91269c0.17749,1.78614 -1.12655,3.37796 -2.91269,3.55545c-1.78614,0.1775 -3.37796,-1.12656 -3.55545,-2.91269z" fill="#bfa47a" stroke-width="0.5"/><path d="M139.4499,353.22605c-0.17749,-1.78614 1.12656,-3.37795 2.9127,-3.55545c1.78614,-0.1775 3.37795,1.12656 3.55545,2.9127c0.17749,1.78614 -1.12656,3.37795 -2.91269,3.55545c-1.78614,0.1775 -3.37796,-1.12656 -3.55545,-2.9127z" fill="#bfa47a" stroke-width="0.5"/><path d="M139.98174,297.90229c-0.17749,-1.78614 1.12656,-3.37795 2.9127,-3.55545c1.78614,-0.1775 3.37796,1.12656 3.55545,2.91269c0.17749,1.78614 -1.12656,3.37795 -2.9127,3.55545c-1.78614,0.1775 -3.37796,-1.12656 -3.55545,-2.91269z" fill="#bfa47a" stroke-width="0.5"/><path d="M104.46109,294.39761c-0.17749,-1.78614 1.12656,-3.37796 2.91269,-3.55545c1.78614,-0.1775 3.37796,1.12656 3.55546,2.91269c0.17749,1.78614 -1.12656,3.37796 -2.91269,3.55545c-1.78614,0.1775 -3.37796,-1.12656 -3.55546,-2.91269z" fill="#bfa47a" stroke-width="0.5"/><path d="M181.23158,369.17257c-0.17749,-1.78614 1.12656,-3.37795 2.9127,-3.55545c1.78614,-0.1775 3.37796,1.12656 3.55545,2.91269c0.17749,1.78614 -1.12656,3.37795 -2.9127,3.55545c-1.78614,0.1775 -3.37796,-1.12656 -3.55545,-2.9127z" fill="#bfa47a" stroke-width="0.5"/><path d="M176.07702,337.52719c-0.17749,-1.78614 1.12656,-3.37795 2.91269,-3.55545c1.78614,-0.1775 3.37796,1.12656 3.55545,2.91269c0.17749,1.78614 -1.12656,3.37795 -2.91269,3.55545c-1.78614,0.1775 -3.37796,-1.12656 -3.55545,-2.91269z" fill="#bfa47a" stroke-width="0.5"/><path d="M194.19281,327.68757c-0.17749,-1.78614 1.12656,-3.37796 2.91269,-3.55545c1.78614,-0.1775 3.37796,1.12656 3.55545,2.9127c0.17749,1.78614 -1.12656,3.37796 -2.91269,3.55545c-1.78614,0.1775 -3.37796,-1.12656 -3.55545,-2.9127z" fill="#bfa47a" stroke-width="0.5"/><path d="M180.18748,287.87737c-0.17749,-1.78614 1.12656,-3.37795 2.9127,-3.55545c1.78614,-0.1775 3.37796,1.12656 3.55545,2.91269c0.17749,1.78614 -1.12656,3.37795 -2.9127,3.55545c-1.78614,0.1775 -3.37796,-1.12656 -3.55545,-2.91269z" fill="#bfa47a" stroke-width="0.5"/><path d="M215.81328,282.32727c-0.17749,-1.78614 1.12656,-3.37796 2.9127,-3.55546c1.78614,-0.1775 3.37795,1.12656 3.55545,2.9127c0.17749,1.78614 -1.12656,3.37796 -2.91269,3.55545c-1.78614,0.1775 -3.37796,-1.12656 -3.55545,-2.91269z" fill="#bfa47a" stroke-width="0.5"/><path d="M265.75351,299.47291c-0.1775,-1.78614 1.12656,-3.37795 2.91269,-3.55545c1.78614,-0.1775 3.37795,1.12656 3.55545,2.9127c0.1775,1.78614 -1.12656,3.37795 -2.91269,3.55545c-1.78614,0.1775 -3.37795,-1.12656 -3.55545,-2.9127z" fill="#bfa47a" stroke-width="0.5"/><path d="M220.16427,326.11161c-0.17749,-1.78614 1.12655,-3.37795 2.91269,-3.55545c1.78614,-0.1775 3.37796,1.12656 3.55545,2.9127c0.17749,1.78614 -1.12656,3.37795 -2.91269,3.55545c-1.78614,0.1775 -3.37796,-1.12656 -3.55545,-2.9127z" fill="#bfa47a" stroke-width="0.5"/><path d="M259.75173,350.31561c-0.1775,-1.78614 1.12656,-3.37795 2.91269,-3.55545c1.78614,-0.1775 3.37796,1.12655 3.55545,2.91269c0.1775,1.78614 -1.12656,3.37796 -2.91269,3.55546c-1.78614,0.1775 -3.37796,-1.12656 -3.55545,-2.9127z" fill="#bfa47a" stroke-width="0.5"/><path d="M276.97754,331.52008c-0.1775,-1.78614 1.12656,-3.37795 2.91269,-3.55545c1.78614,-0.1775 3.37795,1.12656 3.55545,2.91269c0.1775,1.78614 -1.12656,3.37795 -2.9127,3.55545c-1.78614,0.1775 -3.37795,-1.12656 -3.55545,-2.9127z" fill="#bfa47a" stroke-width="0.5"/><path d="M334.68701,335.83457c-0.1775,-1.78614 1.12656,-3.37796 2.91269,-3.55545c1.78614,-0.1775 3.37796,1.12656 3.55546,2.9127c0.1775,1.78614 -1.12656,3.37796 -2.9127,3.55545c-1.78614,0.1775 -3.37796,-1.12656 -3.55545,-2.9127z" fill="#bfa47a" stroke-width="0.5"/><path d="M321.17614,300.99986c-0.1775,-1.78614 1.12656,-3.37795 2.91269,-3.55545c1.78614,-0.1775 3.37795,1.12656 3.55545,2.9127c0.1775,1.78614 -1.12656,3.37795 -2.9127,3.55545c-1.78614,0.1775 -3.37795,-1.12656 -3.55545,-2.9127z" fill="#bfa47a" stroke-width="0.5"/><path d="M299.87104,319.19584c-0.1775,-1.78614 1.12656,-3.37796 2.91269,-3.55545c1.78614,-0.1775 3.37796,1.12656 3.55545,2.91269c0.1775,1.78614 -1.12656,3.37796 -2.91269,3.55546c-1.78614,0.1775 -3.37796,-1.12656 -3.55545,-2.9127z" fill="#bfa47a" stroke-width="0.5"/></g><g font-family="&quot;ヒラギノ角ゴ Pro W3&quot;, &quot;Hiragino Kaku Gothic Pro&quot;, Osaka, &quot;メイリオ&quot;, Meiryo, &quot;ＭＳ Ｐゴシック&quot;, &quot;MS PGothic&quot;" font-weight="normal" font-size="40" text-anchor="start"><text transform="translate(23.67875,111.65602) rotate(-6.29989) scale(1.46669,1.46669)" font-size="40" xml:space="preserve" fill="#000000" fill-rule="nonzero" stroke="#000000" stroke-width="6" stroke-linecap="butt" stroke-linejoin="miter" stroke-miterlimit="10" stroke-dasharray="" stroke-dashoffset="0" font-family="&quot;ヒラギノ角ゴ Pro W3&quot;, &quot;Hiragino Kaku Gothic Pro&quot;, Osaka, &quot;メイリオ&quot;, Meiryo, &quot;ＭＳ Ｐゴシック&quot;, &quot;MS PGothic&quot;" font-weight="normal" text-anchor="start" style="mix-blend-mode: normal"><tspan x="0" dy="0">FOREVER</tspan></text><text transform="translate(23.67876,111.65602) rotate(-6.29989) scale(1.46669,1.46669)" font-size="40" xml:space="preserve" fill="#ffffff" fill-rule="nonzero" stroke="#ffffff" stroke-width="4" stroke-linecap="butt" stroke-linejoin="miter" stroke-miterlimit="10" stroke-dasharray="" stroke-dashoffset="0" font-family="&quot;ヒラギノ角ゴ Pro W3&quot;, &quot;Hiragino Kaku Gothic Pro&quot;, Osaka, &quot;メイリオ&quot;, Meiryo, &quot;ＭＳ Ｐゴシック&quot;, &quot;MS PGothic&quot;" font-weight="normal" text-anchor="start" style="mix-blend-mode: normal"><tspan x="0" dy="0">FOREVER</tspan></text></g><g font-family="Sans Serif" font-weight="normal" font-size="40" text-anchor="start"><text transform="translate(207.60695,158.10522) rotate(6.9157) scale(1.47813,1.47813)" font-size="40" xml:space="preserve" fill="#000000" fill-rule="nonzero" stroke="#000000" stroke-width="6" stroke-linecap="butt" stroke-linejoin="miter" stroke-miterlimit="10" stroke-dasharray="" stroke-dashoffset="0" font-family="Sans Serif" font-weight="normal" text-anchor="start" style="mix-blend-mode: normal"><tspan x="0" dy="0">JUMP</tspan></text><text transform="translate(207.60696,158.10522) rotate(6.9157) scale(1.47813,1.47813)" font-size="40" xml:space="preserve" fill="#ffffff" fill-rule="nonzero" stroke="#ffffff" stroke-width="4" stroke-linecap="butt" stroke-linejoin="miter" stroke-miterlimit="10" stroke-dasharray="" stroke-dashoffset="0" font-family="Sans Serif" font-weight="normal" text-anchor="start" style="mix-blend-mode: normal"><tspan x="0" dy="0">JUMP</tspan></text></g><g font-family="&quot;ヒラギノ角ゴ Pro W3&quot;, &quot;Hiragino Kaku Gothic Pro&quot;, Osaka, &quot;メイリオ&quot;, Meiryo, &quot;ＭＳ Ｐゴシック&quot;, &quot;MS PGothic&quot;" font-weight="normal" font-size="40" text-anchor="start"><text transform="translate(49.22407,313.0482) rotate(-6.29994) scale(1.09846,1.09846)" font-size="40" xml:space="preserve" fill="#000000" fill-rule="nonzero" stroke="#000000" stroke-width="6" stroke-linecap="butt" stroke-linejoin="miter" stroke-miterlimit="10" stroke-dasharray="" stroke-dashoffset="0" font-family="&quot;ヒラギノ角ゴ Pro W3&quot;, &quot;Hiragino Kaku Gothic Pro&quot;, Osaka, &quot;メイリオ&quot;, Meiryo, &quot;ＭＳ Ｐゴシック&quot;, &quot;MS PGothic&quot;" font-weight="normal" text-anchor="start" style="mix-blend-mode: normal"><tspan x="0" dy="0">DESERT</tspan></text><text transform="translate(49.22407,313.0482) rotate(-6.29994) scale(1.09846,1.09846)" font-size="40" xml:space="preserve" fill="#ffffff" fill-rule="nonzero" stroke="#ffffff" stroke-width="4" stroke-linecap="butt" stroke-linejoin="miter" stroke-miterlimit="10" stroke-dasharray="" stroke-dashoffset="0" font-family="&quot;ヒラギノ角ゴ Pro W3&quot;, &quot;Hiragino Kaku Gothic Pro&quot;, Osaka, &quot;メイリオ&quot;, Meiryo, &quot;ＭＳ Ｐゴシック&quot;, &quot;MS PGothic&quot;" font-weight="normal" text-anchor="start" style="mix-blend-mode: normal"><tspan x="0" dy="0">DESERT</tspan></text></g><g font-family="&quot;ヒラギノ角ゴ Pro W3&quot;, &quot;Hiragino Kaku Gothic Pro&quot;, Osaka, &quot;メイリオ&quot;, Meiryo, &quot;ＭＳ Ｐゴシック&quot;, &quot;MS PGothic&quot;" font-weight="normal" font-size="40" text-anchor="start"><text transform="translate(144.70279,340.64142) rotate(-6.29994) scale(0.71336,0.71336)" font-size="40" xml:space="preserve" fill="#000000" fill-rule="nonzero" stroke="#000000" stroke-width="6" stroke-linecap="butt" stroke-linejoin="miter" stroke-miterlimit="10" stroke-dasharray="" stroke-dashoffset="0" font-family="&quot;ヒラギノ角ゴ Pro W3&quot;, &quot;Hiragino Kaku Gothic Pro&quot;, Osaka, &quot;メイリオ&quot;, Meiryo, &quot;ＭＳ Ｐゴシック&quot;, &quot;MS PGothic&quot;" font-weight="normal" text-anchor="start" style="mix-blend-mode: normal"><tspan x="0" dy="0">JOURNEY</tspan></text><text transform="translate(144.70279,340.64142) rotate(-6.29994) scale(0.71336,0.71336)" font-size="40" xml:space="preserve" fill="#ffffff" fill-rule="nonzero" stroke="#ffffff" stroke-width="4" stroke-linecap="butt" stroke-linejoin="miter" stroke-miterlimit="10" stroke-dasharray="" stroke-dashoffset="0" font-family="&quot;ヒラギノ角ゴ Pro W3&quot;, &quot;Hiragino Kaku Gothic Pro&quot;, Osaka, &quot;メイリオ&quot;, Meiryo, &quot;ＭＳ Ｐゴシック&quot;, &quot;MS PGothic&quot;" font-weight="normal" text-anchor="start" style="mix-blend-mode: normal"><tspan x="0" dy="0">JOURNEY</tspan></text></g><text transform="translate(307.68918,310.65342) scale(3.14799,3.14799)" font-size="40" xml:space="preserve" fill="#ffffff" fill-rule="nonzero" stroke="#000000" stroke-width="1" stroke-linecap="butt" stroke-linejoin="miter" stroke-miterlimit="10" stroke-dasharray="" stroke-dashoffset="0" font-family="Sans Serif" font-weight="normal" text-anchor="start" style="mix-blend-mode: normal"><tspan x="0" dy="0">1</tspan></text></g></g></svg>