<svg version="1.1" xmlns="http://www.w3.org/2000/svg" xmlns:xlink="http://www.w3.org/1999/xlink" width="601.7961" height="448.41627" viewBox="0,0,601.7961,448.41627"><defs><radialGradient cx="461.80069" cy="27.70727" r="124.95813" gradientUnits="userSpaceOnUse" id="color-1"><stop offset="0" stop-color="#ffcf3b"/><stop offset="1" stop-color="#ffcf3b" stop-opacity="0"/></radialGradient></defs><g transform="translate(15.03727,97.25086)"><g data-paper-data="{&quot;isPaintingLayer&quot;:true}" fill-rule="nonzero" stroke-linecap="butt" stroke-linejoin="miter" stroke-miterlimit="10" stroke-dasharray="" stroke-dashoffset="0" style="mix-blend-mode: normal"><g stroke="none" stroke-width="0"><path d="M-15.03727,351.16541c0,0 0,-137.10879 0,-204.1976c0,-65.19 0,-192.8024 0,-192.8024h546v397z" fill="#b2d7f2"/><g><path d="M336.84256,27.70727c0,-69.01247 55.94566,-124.95813 124.95814,-124.95813c69.01247,0 124.95813,55.94566 124.95813,124.95813c0,69.01248 -55.94566,124.95813 -124.95813,124.95813c-69.01247,0 -124.95814,-55.94566 -124.95814,-124.95813z" fill="url(#color-1)"/><path d="M409.47447,27.70727c0,-28.46765 23.07759,-51.54523 51.54523,-51.54523c28.46765,0 51.54523,23.07759 51.54523,51.54523c0,28.46764 -23.07759,51.54523 -51.54523,51.54523c-28.46764,0 -51.54523,-23.07759 -51.54523,-51.54523z" fill="#fffe3a"/></g></g><text transform="translate(62.5852,113.91981) rotate(4.76821) scale(1.60006,1.60006)" font-size="40" xml:space="preserve" fill="#000000" fill-rule="nonzero" stroke="#000000" stroke-width="3" stroke-linecap="butt" stroke-linejoin="miter" stroke-miterlimit="10" stroke-dasharray="" stroke-dashoffset="0" font-family="&quot;ヒラギノ角ゴ Pro W3&quot;, &quot;Hiragino Kaku Gothic Pro&quot;, Osaka, &quot;メイリオ&quot;, Meiryo, &quot;ＭＳ Ｐゴシック&quot;, &quot;MS PGothic&quot;" font-weight="normal" text-anchor="start" style="mix-blend-mode: normal"><tspan x="0" dy="0">Welcome </tspan></text></g></g></svg>