<svg version="1.1" xmlns="http://www.w3.org/2000/svg" xmlns:xlink="http://www.w3.org/1999/xlink" width="610.38697" height="472.62691" viewBox="0,0,610.38697,472.62691"><defs><radialGradient cx="452.42883" cy="30.83123" r="124.95814" gradientUnits="userSpaceOnUse" id="color-1"><stop offset="0" stop-color="#ffcf3b"/><stop offset="1" stop-color="#ffcf3b" stop-opacity="0"/></radialGradient></defs><g transform="translate(33,94.12691)"><g data-paper-data="{&quot;isPaintingLayer&quot;:true}" fill-rule="nonzero" stroke-linecap="butt" stroke-linejoin="miter" stroke-miterlimit="10" stroke-dasharray="" stroke-dashoffset="0" style="mix-blend-mode: normal"><g stroke="none" stroke-width="0"><path d="M-33,378.5v-397h546v397z" fill="#b2d7f2"/><g><path d="M327.47069,30.83123c0,-69.01247 55.94566,-124.95813 124.95814,-124.95813c69.01248,0 124.95814,55.94566 124.95814,124.95814c0,69.01247 -55.94566,124.95813 -124.95814,124.95813c-69.01247,0 -124.95814,-55.94566 -124.95814,-124.95813z" fill="url(#color-1)"/><path d="M400.10261,30.83123c0,-28.46764 23.07758,-51.54523 51.54523,-51.54523c28.46765,0 51.54524,23.07759 51.54524,51.54523c0,28.46765 -23.07759,51.54523 -51.54524,51.54523c-28.46765,0 -51.54523,-23.07759 -51.54523,-51.54523z" fill="#fffe3a"/></g></g><text transform="translate(13.89297,53.55746) rotate(4.76816) scale(0.54577,0.54577)" font-size="40" xml:space="preserve" fill="#000000" fill-rule="nonzero" stroke="#000000" stroke-width="3" stroke-linecap="butt" stroke-linejoin="miter" stroke-miterlimit="10" stroke-dasharray="" stroke-dashoffset="0" font-family="&quot;ヒラギノ角ゴ Pro W3&quot;, &quot;Hiragino Kaku Gothic Pro&quot;, Osaka, &quot;メイリオ&quot;, Meiryo, &quot;ＭＳ Ｐゴシック&quot;, &quot;MS PGothic&quot;" font-weight="normal" text-anchor="start" style="mix-blend-mode: normal"><tspan x="0" dy="0">Today we are journeying through the desert,</tspan></text></g></g></svg>