<svg version="1.1" xmlns="http://www.w3.org/2000/svg" xmlns:xlink="http://www.w3.org/1999/xlink" width="206.19086" height="232.16149" viewBox="0,0,206.19086,232.16149"><g transform="translate(-68.72602,-91.89898)"><g data-paper-data="{&quot;isPaintingLayer&quot;:true}" fill="#648a09" fill-rule="nonzero" stroke="none" stroke-width="0" stroke-linecap="butt" stroke-linejoin="miter" stroke-miterlimit="10" stroke-dasharray="" stroke-dashoffset="0" style="mix-blend-mode: normal"><g><path d="M170.86612,191.81728c1.15186,4.95057 12.97166,48.30995 11.19332,53.26655c-1.01279,2.82283 -15.46347,6.51994 -17.52969,4.2955c-3.47727,-3.74354 -11.89966,-48.1813 -13.03367,-53.05517c-1.80785,-7.76997 1.75313,-10.7247 7.10202,-11.96924c5.34889,-1.24454 10.46016,-0.3076 12.26802,7.46237z"/><g><path d="M178.98178,186.64025c2.84157,-0.75229 5.31471,-0.01337 6.59396,5.0167c0.80243,3.15521 3.84544,11.06589 3.24303,14.2095c-0.35796,1.86795 -8.12635,3.70511 -9.37183,2.33901c-2.18694,-2.39873 -3.34636,-10.61937 -4.16142,-13.82424c-1.27924,-5.03007 0.8547,-6.98868 3.69626,-7.74098z" data-paper-data="{&quot;index&quot;:null}"/><path d="M188.30347,201.9292c1.35039,3.23539 0.81762,6.6609 -5.15438,10.46583c-3.74606,2.38671 -12.98266,9.66412 -16.92629,10.28353c-2.34333,0.36806 -5.7661,-8.57299 -4.27957,-10.73288c2.6102,-3.79254 12.51064,-8.84277 16.31565,-11.26704c5.972,-3.80493 8.69419,-1.98484 10.04459,1.25055z" data-paper-data="{&quot;index&quot;:null}"/></g><g data-paper-data="{&quot;index&quot;:null}"><path d="M151.32083,214.14273c0.68438,3.23527 3.26274,11.12577 2.38157,14.23837c-0.50184,1.77265 -8.17147,3.52749 -9.30644,2.0069c-1.91006,-2.55902 -2.68816,-10.99668 -3.36193,-14.18183c-1.07413,-5.07779 0.78739,-6.82526 3.628,-7.39506c2.84063,-0.5698 5.58467,0.25384 6.6588,5.33163z" data-paper-data="{&quot;index&quot;:null}"/><path d="M151.45343,221.10113c4.42474,0.50943 15.38653,0.7056 19.35516,2.96743c2.26018,1.28813 3.15427,10.81752 0.9223,11.51401c-3.75622,1.17213 -15.1075,-1.31505 -19.46369,-1.8166c-6.94468,-0.79957 -8.91676,-3.64228 -9.14148,-7.13958c-0.22471,-3.4973 1.38303,-6.32484 8.32771,-5.52528z" data-paper-data="{&quot;index&quot;:null}"/></g></g><g><path d="M256.86612,99.81729c1.15186,4.95057 12.97166,48.30995 11.19332,53.26655c-1.01279,2.82283 -15.46347,6.51994 -17.52969,4.29549c-3.47728,-3.74354 -11.89966,-48.1813 -13.03367,-53.05516c-1.80785,-7.76997 1.75314,-10.7247 7.10202,-11.96924c5.34888,-1.24454 10.46016,-0.30759 12.26802,7.46237z"/><g><path d="M264.98177,94.64025c2.84157,-0.75229 5.31471,-0.01337 6.59396,5.0167c0.80243,3.15521 3.84544,11.06589 3.24303,14.2095c-0.35795,1.86795 -8.12635,3.70511 -9.37183,2.33901c-2.18694,-2.39873 -3.34636,-10.61937 -4.16142,-13.82424c-1.27923,-5.03007 0.85469,-6.98868 3.69626,-7.74098z" data-paper-data="{&quot;index&quot;:null}"/><path d="M274.30346,109.92921c1.3504,3.23539 0.81763,6.66091 -5.15438,10.46583c-3.74607,2.38672 -12.98266,9.66413 -16.92629,10.28354c-2.34333,0.36806 -5.76611,-8.57299 -4.27957,-10.73288c2.61019,-3.79254 12.51064,-8.84278 16.31565,-11.26704c5.972,-3.80492 8.69419,-1.98484 10.04458,1.25055z" data-paper-data="{&quot;index&quot;:null}"/></g><g data-paper-data="{&quot;index&quot;:null}"><path d="M237.32083,122.14273c0.68437,3.23527 3.26274,11.12578 2.38157,14.23837c-0.50184,1.77265 -8.17147,3.52748 -9.30644,2.00689c-1.91006,-2.55902 -2.68816,-10.99668 -3.36193,-14.18183c-1.07414,-5.07779 0.78739,-6.82525 3.628,-7.39505c2.84063,-0.56979 5.58467,0.25384 6.65879,5.33163z" data-paper-data="{&quot;index&quot;:null}"/><path d="M237.45343,129.10114c4.42473,0.50943 15.38653,0.7056 19.35515,2.96743c2.26018,1.28814 3.15427,10.81752 0.92231,11.51402c-3.75622,1.17213 -15.10749,-1.31506 -19.46369,-1.8166c-6.94468,-0.79957 -8.91676,-3.64228 -9.14148,-7.13958c-0.22472,-3.4973 1.38303,-6.32484 8.32771,-5.52528z" data-paper-data="{&quot;index&quot;:null}"/></g></g><g><path d="M98.86612,265.81728c1.15186,4.95058 12.97166,48.30995 11.19332,53.26655c-1.01279,2.82283 -15.46347,6.51994 -17.52969,4.29549c-3.47727,-3.74354 -11.89966,-48.1813 -13.03367,-53.05516c-1.80785,-7.76997 1.75314,-10.7247 7.10202,-11.96924c5.34888,-1.24454 10.46016,-0.30759 12.26801,7.46237z"/><g><path d="M106.98178,260.64025c2.84157,-0.75229 5.31471,-0.01337 6.59395,5.0167c0.80243,3.15521 3.84544,11.06589 3.24303,14.2095c-0.35796,1.86795 -8.12635,3.70511 -9.37183,2.33902c-2.18694,-2.39873 -3.34636,-10.61937 -4.16142,-13.82424c-1.27923,-5.03007 0.85469,-6.98868 3.69626,-7.74097z" data-paper-data="{&quot;index&quot;:null}"/><path d="M116.30346,275.92921c1.35039,3.23538 0.81763,6.6609 -5.15438,10.46583c-3.74606,2.38671 -12.98266,9.66413 -16.92629,10.28354c-2.34333,0.36806 -5.7661,-8.57299 -4.27957,-10.73288c2.6102,-3.79254 12.51064,-8.84278 16.31565,-11.26704c5.972,-3.80492 8.69419,-1.98484 10.04459,1.25055z" data-paper-data="{&quot;index&quot;:null}"/></g><g data-paper-data="{&quot;index&quot;:null}"><path d="M79.32083,288.14274c0.68437,3.23527 3.26274,11.12577 2.38156,14.23836c-0.50184,1.77265 -8.17147,3.52749 -9.30644,2.00689c-1.91006,-2.55902 -2.68816,-10.99669 -3.36193,-14.18183c-1.07414,-5.07779 0.78739,-6.82526 3.628,-7.39506c2.84063,-0.56979 5.58467,0.25385 6.65879,5.33164z" data-paper-data="{&quot;index&quot;:null}"/><path d="M79.45343,295.10114c4.42473,0.50943 15.38653,0.7056 19.35515,2.96743c2.26018,1.28814 3.15427,10.81752 0.9223,11.51401c-3.75622,1.17213 -15.10749,-1.31506 -19.46369,-1.8166c-6.94468,-0.79957 -8.91676,-3.64228 -9.14148,-7.13958c-0.22472,-3.4973 1.38303,-6.32484 8.32771,-5.52528z" data-paper-data="{&quot;index&quot;:null}"/></g></g></g></g></svg>