<svg version="1.1" xmlns="http://www.w3.org/2000/svg" xmlns:xlink="http://www.w3.org/1999/xlink" width="74.21367" height="100.32778" viewBox="0,0,74.21367,100.32778"><g transform="translate(-382.44381,-96.73486)"><g data-paper-data="{&quot;isPaintingLayer&quot;:true}" fill="#648a09" fill-rule="nonzero" stroke="none" stroke-width="0" stroke-linecap="butt" stroke-linejoin="miter" stroke-miterlimit="10" stroke-dasharray="" stroke-dashoffset="0" style="mix-blend-mode: normal"><g><path d="M432.83029,110.90748c0.50222,7.64835 7.47705,75.05984 3.61768,81.99994c-2.19796,3.95245 -24.60538,5.91668 -27.13543,2.10098c-4.25786,-6.42148 -5.91341,-74.60603 -6.40785,-82.13587c-0.78824,-12.00415 5.2337,-15.52916 13.49742,-16.07179c8.26372,-0.54263 15.63993,2.1026 16.42817,14.10675z"/><g><path d="M446.17349,105.19054c4.41237,-0.42388 7.91152,1.28097 8.58383,9.07879c0.42172,4.89134 3.01342,17.40719 1.34759,21.9374c-0.98985,2.69188 -12.99883,3.52412 -14.51772,1.18652c-2.66702,-4.10458 -2.38008,-16.62062 -2.80844,-21.58893c-0.6723,-7.79782 2.98238,-10.1899 7.39474,-10.61379z" data-paper-data="{&quot;index&quot;:null}"/><path d="M456.30186,130.22202c1.21746,5.14476 -0.41375,10.1115 -10.23137,14.31145c-6.1583,2.6345 -21.68355,11.20241 -27.70325,11.15882c-3.57695,-0.0259 -6.48153,-14.16789 -3.74092,-17.01793c4.81224,-5.00438 20.78015,-10.09578 27.03535,-12.77173c9.81761,-4.19995 13.42271,-0.82537 14.64017,4.31939z" data-paper-data="{&quot;index&quot;:null}"/></g><g data-paper-data="{&quot;index&quot;:null}"><path d="M398.28253,139.34353c0.22646,4.98157 2.13171,17.35367 0.05867,21.7695c-1.18062,2.51486 -13.02249,3.24877 -14.33913,0.70834c-2.21579,-4.27532 -1.30834,-17.02095 -1.53129,-21.92534c-0.35543,-7.81862 2.84222,-9.9632 7.2085,-10.11577c4.3663,-0.15256 8.24781,1.74466 8.60323,9.56328z" data-paper-data="{&quot;index&quot;:null}"/><path d="M396.77665,149.73003c6.45928,1.84106 22.72233,4.81604 28.07399,9.15301c3.04783,2.46995 2.04576,16.86845 -1.44587,17.35851c-5.87612,0.82472 -22.15795,-5.6546 -28.51717,-7.46715c-10.13792,-2.88958 -12.37656,-7.60221 -11.85491,-12.86117c0.52165,-5.25896 3.60605,-9.07279 13.74397,-6.18322z" data-paper-data="{&quot;index&quot;:null}"/></g></g></g></g></svg>