<svg version="1.1" xmlns="http://www.w3.org/2000/svg" xmlns:xlink="http://www.w3.org/1999/xlink" width="251.6564" height="131.2569" viewBox="0,0,251.6564,131.2569"><g transform="translate(-123.19067,-174.71679)"><g data-paper-data="{&quot;isPaintingLayer&quot;:true}" fill="#648a09" fill-rule="nonzero" stroke="none" stroke-width="0" stroke-linecap="butt" stroke-linejoin="miter" stroke-miterlimit="10" stroke-dasharray="" stroke-dashoffset="0" style="mix-blend-mode: normal"><g><path d="M176.15602,220.83083c0,7.66482 2.54283,75.38846 -1.76299,82.06077c-2.45221,3.79994 -24.94018,4.29174 -27.21478,0.31847c-3.82795,-6.68667 -1.01228,-74.83317 -1.01228,-82.37923c0,-12.03 6.23997,-15.15286 14.52149,-15.15286c8.28152,0 15.46855,3.12286 15.46855,15.15286z"/><g><path d="M189.84514,216.00046c4.43066,-0.13386 7.81059,1.79661 7.97051,9.62172c0.10032,4.90846 1.86637,17.56723 -0.09271,21.97856c-1.1641,2.62124 -13.20181,2.66482 -14.56427,0.23272c-2.39234,-4.27051 -1.28593,-16.74085 -1.38783,-21.72655c-0.15992,-7.82511 3.64365,-9.97259 8.0743,-10.10645z" data-paper-data="{&quot;index&quot;:null}"/><path d="M198.3116,241.64179c0.87774,5.21348 -1.0754,10.06266 -11.14711,13.6103c-6.31769,2.22533 -22.37097,9.75756 -28.37488,9.31964c-3.56757,-0.26022 -5.53928,-14.56213 -2.61781,-17.22648c5.1298,-4.67831 21.397,-8.7125 27.8141,-10.97284c10.07171,-3.54764 13.44795,0.0559 14.32569,5.26938z" data-paper-data="{&quot;index&quot;:null}"/></g><g data-paper-data="{&quot;index&quot;:null}"><path d="M139.81928,246.94209c-0.10043,4.9857 0.99006,17.45605 -1.36786,21.72656c-1.34286,2.4321 -13.20737,2.38851 -14.35473,-0.23273c-1.9309,-4.41132 -0.19026,-17.0701 -0.09138,-21.97856c0.15763,-7.82511 3.48893,-9.75556 7.85583,-9.62171c4.36691,0.13386 8.11577,2.28133 7.95813,10.10644z" data-paper-data="{&quot;index&quot;:null}"/><path d="M137.63608,257.2076c6.32477,2.26034 22.35794,6.29453 27.41393,10.97284c2.87944,2.66435 0.93609,16.96625 -2.58015,17.22647c-5.91753,0.43793 -21.73983,-7.09431 -27.96662,-9.31964c-9.9268,-3.54764 -11.85184,-8.39682 -10.98673,-13.6103c0.86511,-5.21348 4.19278,-8.81701 14.11958,-5.26938z" data-paper-data="{&quot;index&quot;:null}"/></g></g><g data-paper-data="{&quot;index&quot;:null}"><path d="M340.24799,174.76026c8.26993,0.438 14.336,3.88653 13.69974,15.89969c-0.39911,7.5355 -1.19161,75.73554 -5.36785,82.2104c-2.48156,3.84741 -24.91204,2.16693 -27.15984,-1.75739c-3.9469,-6.8907 2.17424,-74.38507 2.57962,-82.03916c0.63626,-12.01316 7.97839,-14.75154 16.24833,-14.31353z"/><g><path d="M318.11366,194.04552c-0.36544,4.97333 0.07986,17.48473 -2.53499,21.62274c-1.48919,2.35664 -13.50774,1.67645 -14.53158,-1.00269c-1.72303,-4.50877 0.71006,-17.05642 1.06985,-21.9527c0.57357,-7.80569 4.05087,-9.5547 8.46824,-9.18669c4.41737,0.368 8.10205,2.71365 7.52848,10.51935z" data-paper-data="{&quot;index&quot;:null}"/><path d="M315.35875,204.1795c6.28858,2.59658 22.31964,7.48548 27.19482,12.42855c2.77647,2.81513 0.0511,16.99274 -3.52524,17.06391c-6.01866,0.11977 -21.6511,-8.25097 -27.84225,-10.80732c-9.86998,-4.07536 -11.56392,-9.02105 -10.41167,-14.18081c1.15225,-5.15976 4.71435,-8.57968 14.58433,-4.50433z" data-paper-data="{&quot;index&quot;:null}"/></g><g data-paper-data="{&quot;index&quot;:null}"><path d="M367.38606,207.39895c4.36787,0.0973 7.59241,2.20124 7.33595,10.02373c-0.16087,4.90682 0.90782,17.63994 -1.25369,21.94297c-1.28439,2.55689 -13.13459,1.97291 -14.34694,-0.52681c-2.12875,-4.38925 -0.38025,-16.78446 -0.21685,-21.7685c0.25646,-7.82249 4.11365,-9.76868 8.48152,-9.67139z" data-paper-data="{&quot;index&quot;:null}"/><path d="M374.36287,233.44573c0.58816,5.25194 -1.59065,9.99252 -11.69119,13.01017c-6.33577,1.89288 -22.53431,8.57774 -28.42039,7.82745c-3.49756,-0.44583 -4.68176,-14.8305 -1.66544,-17.33883c5.29635,-4.40435 21.52043,-7.58491 27.9559,-9.50758c10.10054,-3.01765 13.23296,0.75684 13.82112,6.00878z" data-paper-data="{&quot;index&quot;:null}"/></g></g></g></g></svg>