<svg version="1.1" xmlns="http://www.w3.org/2000/svg" xmlns:xlink="http://www.w3.org/1999/xlink" width="424.33746" height="184.14458" viewBox="0,0,424.33746,184.14458"><g transform="translate(-77.33431,-139.56966)"><g data-paper-data="{&quot;isPaintingLayer&quot;:true}" fill-rule="nonzero" stroke="none" stroke-width="0" stroke-linecap="butt" stroke-linejoin="miter" stroke-miterlimit="10" stroke-dasharray="" stroke-dashoffset="0" style="mix-blend-mode: normal"><path d="M132.03937,240.48543c0.07507,7.47779 3.21919,73.52398 -0.91619,80.07564c-2.35516,3.73123 -24.28957,4.43131 -26.54758,0.57726c-3.80005,-6.48601 -1.72056,-72.99722 -1.79447,-80.35914c-0.11784,-11.73646 5.93929,-14.84423 14.01873,-14.92535c8.07943,-0.08112 15.12168,2.89515 15.23952,14.6316z" data-paper-data="{&quot;index&quot;:null}" fill="#648a09"/><g data-paper-data="{&quot;index&quot;:null}" fill="#648a09"><path d="M147.58164,174.4578c4.32123,-0.17399 7.63759,1.67626 7.87026,9.30887c0.14595,4.7877 1.9929,17.12029 0.12483,21.44316c-1.11001,2.56867 -12.85356,2.72911 -14.2066,0.3697c-2.3758,-4.14287 -1.41853,-16.31975 -1.56678,-21.1828c-0.23266,-7.63261 3.45705,-9.76492 7.77828,-9.93893z" data-paper-data="{&quot;index&quot;:null}"/><path d="M156.09267,199.39053c0.90739,5.07766 -0.95059,9.82765 -10.74179,13.38737c-6.14173,2.2329 -21.72951,9.73858 -27.5912,9.37015c-3.48307,-0.21893 -5.54675,-14.15254 -2.72268,-16.78048c4.9588,-4.61439 20.78954,-8.70948 27.02791,-10.97752c9.79119,-3.55973 13.12035,-0.07719 14.02773,5.00047z" data-paper-data="{&quot;index&quot;:null}"/></g><g data-paper-data="{&quot;index&quot;:null}" fill="#648a09"><path d="M92.80805,238.76483c0.36987,4.8512 2.59796,16.85933 0.70846,21.22763c-1.07611,2.48779 -12.60221,3.55774 -13.96217,1.11973c-2.28871,-4.10296 -1.78507,-16.55951 -2.1492,-21.33554c-0.58052,-7.614 2.47365,-9.80103 6.72704,-10.08044c4.25341,-0.2794 8.09537,1.45463 8.67587,9.06863z" data-paper-data="{&quot;index&quot;:null}"/><path d="M91.65024,248.93867c6.35409,1.60214 22.30264,4.01679 27.65126,8.08606c3.0461,2.31749 2.49964,16.38872 -0.89071,16.97109c-5.70565,0.98004 -21.77735,-4.85144 -28.03302,-6.42877c-9.97283,-2.5146 -12.29691,-7.04334 -11.94553,-12.18742c0.35139,-5.14409 3.24516,-8.95556 13.21799,-6.44097z" data-paper-data="{&quot;index&quot;:null}"/></g><path d="M131.3637,164.48844c0.07506,7.47779 3.21919,73.52398 -0.91619,80.07564c-2.35516,3.73123 -24.28956,4.4313 -26.54757,0.57725c-3.80005,-6.48601 -1.72056,-72.99722 -1.79447,-80.35913c-0.11784,-11.73646 5.93928,-14.84423 14.01872,-14.92535c8.07943,-0.08111 15.12168,2.89515 15.23952,14.6316z" data-paper-data="{&quot;index&quot;:null}" fill="#648a09"/><g fill="#648a09"><path d="M269.39787,235.9512c-1.20776,-11.67474 5.45351,-15.42694 13.49046,-16.25836c8.03695,-0.83143 14.40618,1.57273 15.61394,13.24747c0.7576,7.32321 10.33177,73.17457 7.28817,80.04808c-1.80852,4.08431 -23.68177,5.86473 -26.44307,2.4232c-4.84852,-6.04298 -9.17998,-72.02193 -9.9495,-79.4604z" data-paper-data="{&quot;index&quot;:null}"/><g data-paper-data="{&quot;index&quot;:null}"><path d="M251.9865,197.82774c4.31326,-0.3149 8.22009,1.38728 8.85051,8.99737c0.40165,4.8487 2.72736,16.83969 0.83441,21.22428c-1.07806,2.49707 -12.76465,3.6633 -14.15753,1.23635c-2.34411,-4.08437 -1.9011,-16.54662 -2.29653,-21.3202c-0.6304,-7.61009 2.45589,-9.82287 6.76914,-10.13779z" data-paper-data="{&quot;index&quot;:null}"/><path d="M246.34437,223.56185c0.32841,-5.14763 3.24316,-8.98371 13.37361,-6.552c6.45452,1.54934 22.64634,3.83124 28.09433,7.85638c3.10267,2.29235 2.62504,16.36987 -0.81104,16.98057c-5.78263,1.02776 -22.11805,-4.67036 -28.47258,-6.19569c-10.13044,-2.43171 -12.51274,-6.94161 -12.18434,-12.08924z" data-paper-data="{&quot;index&quot;:null}"/></g><g data-paper-data="{&quot;index&quot;:null}"><path d="M308.70606,242.41256c-0.9386,-7.57819 2.48395,-10.03862 6.70846,-10.60694c4.22449,-0.56831 7.65124,0.97068 8.58982,8.54888c0.58875,4.75357 3.54888,16.86377 2.11788,21.33868c-0.8503,2.65902 -12.36006,3.89247 -13.90744,1.66701c-2.71704,-3.90768 -2.91071,-16.11924 -3.50873,-20.94762z" data-paper-data="{&quot;index&quot;:null}"/><path d="M311.8554,252.15571c9.27748,-4.43947 12.86865,-1.27644 14.23163,3.69622c1.36297,4.97266 -0.01838,9.87191 -9.29586,14.31139c-5.8195,2.78475 -20.41834,11.68305 -26.20508,11.85215c-3.43853,0.10047 -6.76034,-13.58396 -4.23343,-16.45872c4.43699,-5.04775 19.59167,-10.57247 25.50272,-13.40104z" data-paper-data="{&quot;index&quot;:null}"/></g><path d="M261.49048,160.36368c-1.20776,-11.67474 5.45351,-15.42693 13.49046,-16.25836c8.03695,-0.83143 14.40617,1.57273 15.61393,13.24747c0.7576,7.3232 10.33177,73.17456 7.28817,80.04807c-1.80852,4.08431 -23.68176,5.86474 -26.44306,2.4232c-4.84852,-6.04298 -9.17997,-72.02193 -9.9495,-79.4604z" data-paper-data="{&quot;index&quot;:null}"/><g data-paper-data="{&quot;index&quot;:null}"><path d="M300.11622,169.91281c-0.93859,-7.5782 2.48395,-10.03862 6.70846,-10.60694c4.22449,-0.56831 7.65123,0.97067 8.58982,8.54887c0.58875,4.75357 3.54888,16.86378 2.11788,21.33868c-0.8503,2.65902 -12.36007,3.89247 -13.90744,1.66701c-2.71703,-3.90767 -2.91071,-16.11924 -3.50873,-20.94762z" data-paper-data="{&quot;index&quot;:null}"/><path d="M303.26555,179.65596c9.27749,-4.43947 12.86866,-1.27644 14.23164,3.69622c1.36297,4.97266 -0.01838,9.87191 -9.29586,14.31139c-5.81949,2.78475 -20.41834,11.68305 -26.20508,11.85215c-3.43853,0.10046 -6.76034,-13.58397 -4.23343,-16.45872c4.43698,-5.04776 19.59165,-10.57247 25.50271,-13.40104z" data-paper-data="{&quot;index&quot;:null}"/></g></g><g data-paper-data="{&quot;index&quot;:null}" fill="#648a09"><path d="M443.23557,228.7043c1.08388,-11.68689 8.34729,-14.07316 16.39261,-13.32701c8.04532,0.74614 13.82597,4.34214 12.74209,16.02903c-0.67987,7.33083 -4.08433,73.78741 -8.40556,79.93847c-2.5677,3.65503 -24.36998,1.15114 -26.4099,-2.76136c-3.58184,-6.86995 4.99018,-72.43292 5.68076,-79.87914z" data-paper-data="{&quot;index&quot;:null}"/><g data-paper-data="{&quot;index&quot;:null}"><path d="M433.56417,187.92418c4.29223,0.52925 7.79383,2.95815 6.93345,10.54568c-0.5482,4.83432 -0.59689,17.04868 -3.30576,20.98186c-1.54274,2.23999 -13.23318,1.11307 -14.12791,-1.53828c-1.50576,-4.46202 1.35045,-16.60064 1.89015,-21.36006c0.8604,-7.58753 4.31784,-9.15841 8.61007,-8.62918z" data-paper-data="{&quot;index&quot;:null}"/><path d="M423.02898,212.07139c1.32243,-4.98569 4.92704,-8.18226 14.39186,-3.82837c6.03042,2.77404 21.47019,8.15881 26.03217,13.16587c2.59808,2.85156 -0.60596,16.56793 -4.09522,16.4993c-5.87212,-0.1155 -20.78891,-8.87928 -26.72591,-11.61033c-9.46481,-4.35389 -10.92535,-9.24075 -9.60293,-14.22644z" data-paper-data="{&quot;index&quot;:null}"/></g><g data-paper-data="{&quot;index&quot;:null}"><path d="M480.53893,242.6808c0.55187,-7.61613 4.38729,-9.36459 8.64171,-9.10118c4.2544,0.26342 7.31678,2.43895 6.76488,10.05508c-0.34618,4.77736 0.20429,17.23193 -2.06899,21.34348c-1.35079,2.44311 -12.88084,1.41649 -13.96627,-1.06724c-1.90592,-4.36116 0.27704,-16.37759 0.62866,-21.23014z" data-paper-data="{&quot;index&quot;:null}"/><path d="M481.73497,252.8502c9.96331,-2.55206 12.87139,1.2485 13.24211,6.39123c0.37071,5.14272 -1.93632,9.68017 -11.89963,12.23224c-6.2497,1.60083 -22.29937,7.4927 -28.00866,6.5341c-3.39251,-0.56961 -3.99187,-14.63869 -0.9545,-16.96763c5.33328,-4.08934 21.27265,-6.56392 27.62067,-8.18995z" data-paper-data="{&quot;index&quot;:null}"/></g><path d="M450.16695,153.02104c1.08388,-11.68689 8.34729,-14.07315 16.39261,-13.32701c8.04532,0.74614 13.82596,4.34213 12.74208,16.02903c-0.67987,7.33082 -4.08432,73.7874 -8.40556,79.93846c-2.5677,3.65503 -24.36998,1.15115 -26.40989,-2.76136c-3.58184,-6.86995 4.99019,-72.43292 5.68076,-79.87914z" data-paper-data="{&quot;index&quot;:null}"/><g data-paper-data="{&quot;index&quot;:null}"><path d="M486.20085,169.89383c0.55188,-7.61613 4.38729,-9.36459 8.64171,-9.10118c4.2544,0.26342 7.31677,2.43894 6.76488,10.05508c-0.34618,4.77736 0.20429,17.23194 -2.06899,21.34348c-1.35079,2.44311 -12.88085,1.41649 -13.96627,-1.06724c-1.90591,-4.36115 0.27704,-16.37759 0.62866,-21.23014z" data-paper-data="{&quot;index&quot;:null}"/><path d="M487.39688,180.06324c9.96332,-2.55206 12.8714,1.24851 13.24212,6.39123c0.37071,5.14272 -1.93632,9.68017 -11.89963,12.23224c-6.24969,1.60084 -22.29937,7.4927 -28.00866,6.5341c-3.39251,-0.56962 -3.99186,-14.6387 -0.9545,-16.96763c5.33328,-4.08936 21.27263,-6.56393 27.62066,-8.18995z" data-paper-data="{&quot;index&quot;:null}"/></g></g></g></g></svg>