<svg version="1.1" xmlns="http://www.w3.org/2000/svg" xmlns:xlink="http://www.w3.org/1999/xlink" width="313.32057" height="101.17602" viewBox="0,0,313.32057,101.17602"><g transform="translate(-116.88258,-32.97301)"><g data-paper-data="{&quot;isPaintingLayer&quot;:true}" fill="#648a09" fill-rule="nonzero" stroke="none" stroke-width="0" stroke-linecap="butt" stroke-linejoin="miter" stroke-miterlimit="10" stroke-dasharray="" stroke-dashoffset="0" style="mix-blend-mode: normal"><g data-paper-data="{&quot;index&quot;:null}"><path d="M140.9359,112.06649c-1.37377,-6.77888 -15.76092,-66.21886 -13.14869,-72.89168c1.4877,-3.80023 21.28824,-8.26574 24.01206,-5.15939c4.58396,5.22769 14.30776,66.00207 15.66025,72.67589c2.15615,10.6395 -2.80285,14.5198 -10.12714,16.00411c-7.32428,1.48432 -14.24031,0.01055 -16.39646,-10.62895z"/><g><path d="M129.69481,118.79205c-3.89454,0.9125 -7.2298,-0.18904 -8.77374,-7.08101c-0.96847,-4.32312 -4.79925,-15.20219 -3.85726,-19.45476c0.55975,-2.5269 11.19825,-4.72298 12.83913,-2.81621c2.88123,3.34812 4.1378,14.57536 5.12151,18.96653c1.54394,6.89198 -1.43508,9.47295 -5.32962,10.38545z" data-paper-data="{&quot;index&quot;:null}"/><path d="M117.61124,97.63195c-1.71071,-4.45355 -0.85246,-9.0923 7.41926,-14.03506c5.1886,-3.10043 18.03633,-12.63932 23.42476,-13.3281c3.20184,-0.40928 7.509,11.88614 5.40275,14.76615c-3.69837,5.05699 -17.36225,11.5405 -22.63249,14.68971c-8.2717,4.94274 -11.90357,2.36086 -13.61428,-2.0927z" data-paper-data="{&quot;index&quot;:null}"/></g><g data-paper-data="{&quot;index&quot;:null}"><path d="M168.39267,82.46061c-0.80476,-4.42742 -4.0043,-15.26092 -2.68432,-19.46043c0.75174,-2.39165 11.25269,-4.47962 12.73723,-2.36698c2.49836,3.55535 3.22777,15.06294 4.02007,19.42176c1.26309,6.94889 -1.33717,9.25328 -5.22329,9.91759c-3.88616,0.66429 -7.58659,-0.56305 -8.84966,-7.51194z" data-paper-data="{&quot;index&quot;:null}"/><path d="M168.48361,72.99036c-5.99882,-0.86547 -20.90184,-1.55972 -26.21193,-4.79109c-3.02416,-1.8403 -3.86878,-14.8374 -0.80561,-15.69776c5.15505,-1.44792 20.49852,2.37785 26.40444,3.22991c9.41525,1.35838 11.98691,5.30204 12.15622,10.06797c0.16931,4.76593 -2.12786,8.54937 -11.54311,7.191z" data-paper-data="{&quot;index&quot;:null}"/></g></g><g data-paper-data="{&quot;index&quot;:null}"><path d="M406.14981,123.03362c-2.15615,10.6395 -9.07218,12.11327 -16.39646,10.62895c-7.32429,-1.48431 -12.28329,-5.36461 -10.12714,-16.00411c1.35249,-6.67382 11.07629,-67.4482 15.66025,-72.67589c2.72382,-3.10635 22.52436,1.35916 24.01206,5.15939c2.61223,6.67282 -11.77492,66.1128 -13.14869,72.89168z"/><g><path d="M417.3909,129.7592c-3.89454,-0.9125 -6.87356,-3.49347 -5.32962,-10.38545c0.98371,-4.39117 2.24028,-15.61841 5.12151,-18.96653c1.64088,-1.90677 12.27938,0.28931 12.83913,2.81621c0.94199,4.25257 -2.88879,15.13164 -3.85726,19.45476c-1.54394,6.89197 -4.8792,7.99351 -8.77374,7.08101z" data-paper-data="{&quot;index&quot;:null}"/><path d="M415.86021,110.6918c-5.27024,-3.14921 -18.93412,-9.63272 -22.63249,-14.68971c-2.10625,-2.88001 2.20091,-15.17543 5.40275,-14.76615c5.38843,0.68878 18.23616,10.22767 23.42476,13.3281c8.27172,4.94276 9.12997,9.58151 7.41926,14.03506c-1.71071,4.45356 -5.34258,7.03544 -13.61428,2.0927z" data-paper-data="{&quot;index&quot;:null}"/></g><g data-paper-data="{&quot;index&quot;:null}"><path d="M378.69303,93.42776c-1.26307,6.94889 -4.9635,8.17623 -8.84966,7.51194c-3.88612,-0.66431 -6.48638,-2.9687 -5.22329,-9.91759c0.7923,-4.35882 1.52171,-15.86641 4.02007,-19.42176c1.48454,-2.11264 11.98549,-0.02467 12.73723,2.36698c1.31998,4.19951 -1.87956,15.03301 -2.68432,19.46043z" data-paper-data="{&quot;index&quot;:null}"/><path d="M378.60211,83.95754c-9.41525,1.35837 -11.71242,-2.42507 -11.54311,-7.191c0.16931,-4.76593 2.74097,-8.70959 12.15622,-10.06797c5.90592,-0.85206 21.24939,-4.67783 26.40444,-3.22991c3.06317,0.86036 2.21855,13.85746 -0.80561,15.69776c-5.31009,3.23137 -20.21311,3.92562 -26.21193,4.79109z" data-paper-data="{&quot;index&quot;:null}"/></g></g></g></g></svg>