<svg version="1.1" xmlns="http://www.w3.org/2000/svg" xmlns:xlink="http://www.w3.org/1999/xlink" width="402.48509" height="112.34896" viewBox="0,0,402.48509,112.34896"><g transform="translate(-64.3264,-153.71113)"><g data-paper-data="{&quot;isPaintingLayer&quot;:true}" fill="#648a09" fill-rule="nonzero" stroke="none" stroke-width="0" stroke-linecap="butt" stroke-linejoin="miter" stroke-miterlimit="10" stroke-dasharray="" stroke-dashoffset="0" style="mix-blend-mode: normal"><g><path d="M108.18232,180.29737c1.80466,7.25714 20.15764,70.77999 17.65183,78.1112c-1.4271,4.1752 -22.60318,9.93559 -25.6923,6.70919c-5.19872,-5.42973 -18.57776,-70.6146 -20.35446,-77.75929c-2.83244,-11.39015 2.34037,-15.8161 10.18141,-17.76596c7.84104,-1.94987 15.38108,-0.68528 18.21352,10.70487z"/><g><path d="M120.00604,172.50084c4.16349,-1.16993 7.81816,-0.13794 9.81199,7.23332c1.25067,4.62377 5.90327,16.19343 5.08703,20.83139c-0.48502,2.7559 -11.8722,5.63143 -13.73483,3.64947c-3.27058,-3.4801 -5.15913,-15.54767 -6.42949,-20.2442c-1.99382,-7.37126 1.10182,-10.30005 5.2653,-11.46999z" data-paper-data="{&quot;index&quot;:null}"/><path d="M134.05939,194.78495c2.05856,4.72952 1.35103,9.78065 -7.3497,15.51096c-5.45771,3.59445 -18.8837,14.50578 -24.67138,15.50475c-3.43908,0.5936 -8.67328,-12.48339 -6.53452,-15.69387c3.75546,-5.63728 18.20759,-13.28698 23.75118,-16.93799c8.70073,-5.73031 12.74584,-3.11336 14.8044,1.61615z" data-paper-data="{&quot;index&quot;:null}"/></g><g data-paper-data="{&quot;index&quot;:null}"><path d="M79.92611,213.57524c1.07878,4.74417 5.0474,16.29449 3.82037,20.89303c-0.69881,2.61891 -11.94253,5.37112 -13.64602,3.15944c-2.86683,-3.72206 -4.19926,-16.11738 -5.26133,-20.78805c-1.69316,-7.44602 1.00644,-10.05814 5.17258,-10.95959c4.16616,-0.90144 8.22124,0.24915 9.91439,7.69517z" data-paper-data="{&quot;index&quot;:null}"/><path d="M80.27603,223.80877c6.52056,0.65096 22.6508,0.6956 28.53936,3.93466c3.3536,1.84468 4.88097,15.84344 1.61302,16.91772c-5.49968,1.8079 -22.25387,-1.59838 -28.67342,-2.23926c-10.2341,-1.0217 -13.19848,-5.15972 -13.60689,-10.29959c-0.4084,-5.13987 1.89382,-9.33523 12.12792,-8.31354z" data-paper-data="{&quot;index&quot;:null}"/></g></g><g><path d="M275.40197,176.68607c-0.45718,7.46418 -2.02036,73.56667 -6.61144,79.80749c-2.61467,3.5542 -24.54331,2.69181 -26.52137,-1.31313c-3.32891,-6.73996 3.47773,-72.93463 3.92783,-80.28315c0.71755,-11.71509 6.98043,-14.38401 15.04517,-13.89005c8.06473,0.49396 14.87736,3.96376 14.15981,15.67884z"/><g><path d="M289.02086,172.79866c4.32266,0.13392 7.49896,2.21545 7.18797,9.84526c-0.19508,4.78595 0.76969,17.21869 -1.40123,21.39769c-1.28998,2.48319 -13.01517,1.80763 -14.1969,-0.64207c-2.075,-4.30142 -0.25374,-16.37932 -0.05559,-21.24059c0.31101,-7.62981 4.1431,-9.49421 8.46575,-9.3603z" data-paper-data="{&quot;index&quot;:null}"/><path d="M295.73629,198.27376c0.5438,5.12935 -1.64744,9.7351 -11.66712,12.58914c-6.28504,1.79025 -22.36736,8.16779 -28.18799,7.38322c-3.45866,-0.4662 -4.5257,-14.51133 -1.52179,-16.93168c5.27456,-4.24987 21.35656,-7.20819 27.74049,-9.0266c10.01966,-2.85404 13.09258,0.85656 13.63639,5.98592z" data-paper-data="{&quot;index&quot;:null}"/></g><g data-paper-data="{&quot;index&quot;:null}"><path d="M238.45899,199.94647c-0.39518,4.8492 -0.07704,17.05816 -2.62796,21.07624c-1.45278,2.28834 -13.00411,1.53822 -13.96508,-1.08284c-1.61723,-4.41101 0.83289,-16.6346 1.22195,-21.40867c0.62025,-7.61087 3.97948,-9.29209 8.22408,-8.90127c4.24462,0.39083 7.76725,2.70569 7.147,10.31656z" data-paper-data="{&quot;index&quot;:null}"/><path d="M235.72064,209.81304c6.02438,2.57841 21.39722,7.46332 26.04182,12.32074c2.64515,2.76635 -0.10039,16.57795 -3.5401,16.62163c-5.78875,0.07351 -20.74759,-8.20529 -26.67865,-10.74378c-9.45534,-4.04687 -11.04076,-8.88393 -9.88732,-13.90934c1.15343,-5.0254 4.60893,-8.33613 14.06427,-4.28927z" data-paper-data="{&quot;index&quot;:null}"/></g></g><g><path d="M444.09268,167.91108c0.2955,7.47232 5.38542,73.3971 1.44498,80.06784c-2.24413,3.79905 -24.14837,5.14548 -26.51903,1.35968c-3.98961,-6.37116 -3.8719,-72.91477 -4.16282,-80.27131c-0.46379,-11.72788 5.49907,-15.01288 13.5726,-15.33215c8.07353,-0.31928 15.20047,2.44808 15.66425,14.17595z"/><g><path d="M457.25179,162.67426c4.31423,-0.30131 7.68369,1.45036 8.14129,9.07279c0.28703,4.78132 2.49676,17.05409 0.75695,21.43015c-1.03381,2.60029 -12.76751,3.10687 -14.18952,0.78838c-2.4969,-4.07103 -1.89905,-16.27084 -2.1906,-21.1274c-0.45758,-7.62243 3.16767,-9.86261 7.48188,-10.16393z" data-paper-data="{&quot;index&quot;:null}"/><path d="M466.49417,187.34523c1.05669,5.0487 -0.66044,9.8514 -10.34244,13.69825c-6.07323,2.413 -21.43296,10.37497 -27.30297,10.17951c-3.488,-0.11614 -5.96157,-13.98286 -3.2162,-16.69292c4.82061,-4.75859 20.52374,-9.31861 26.69253,-11.76959c9.68199,-3.84684 13.11237,-0.46395 14.16906,4.58475z" data-paper-data="{&quot;index&quot;:null}"/></g><g data-paper-data="{&quot;index&quot;:null}"><path d="M409.67519,194.76746c0.0943,4.86436 1.63818,16.97949 -0.49589,21.23366c-1.21538,2.42279 -12.7836,2.83771 -14.00319,0.32653c-2.05247,-4.22609 -0.84359,-16.63406 -0.93642,-21.42306c-0.14801,-7.63466 3.02521,-9.64507 7.28759,-9.68294c4.2624,-0.03786 7.99991,1.91115 8.1479,9.54582z" data-paper-data="{&quot;index&quot;:null}"/><path d="M407.94258,204.85933c6.25307,1.95973 22.03911,5.27448 27.14848,9.64038c2.90985,2.48642 1.56668,16.50406 -1.85122,16.89331c-5.75203,0.65507 -21.46736,-6.078 -27.62356,-8.00739c-9.81427,-3.07583 -11.87792,-7.72902 -11.23552,-12.84492c0.64239,-5.1159 3.74756,-8.75723 13.56183,-5.6814z" data-paper-data="{&quot;index&quot;:null}"/></g></g></g></g></svg>