<svg version="1.1" xmlns="http://www.w3.org/2000/svg" xmlns:xlink="http://www.w3.org/1999/xlink" width="279.49646" height="187.12271" viewBox="0,0,279.49646,187.12271"><g transform="translate(-95.88757,-108.37866)"><g data-paper-data="{&quot;isPaintingLayer&quot;:true}" fill-rule="nonzero" stroke="none" stroke-width="0" stroke-linecap="butt" stroke-linejoin="miter" stroke-miterlimit="10" stroke-dasharray="" stroke-dashoffset="0" style="mix-blend-mode: normal"><path d="M151.65997,213.18907c-0.34153,7.47036 -0.88085,73.58914 -5.37472,79.90031c-2.55932,3.59427 -24.49868,3.07158 -26.53853,-0.90225c-3.4329,-6.68759 2.34782,-72.97974 2.68406,-80.33435c0.53603,-11.7248 6.75685,-14.49039 14.82826,-14.12138c8.07141,0.369 14.93696,3.73288 14.40093,15.45768z" fill="#648a09"/><g fill="#648a09"><path d="M166.85565,174.12958c4.32422,0.06696 7.53237,2.09905 7.33957,9.73277c-0.12094,4.7884 1.03626,17.20471 -1.06968,21.41683c-1.25136,2.50286 -12.98561,2.00897 -14.20514,-0.42214c-2.14136,-4.26877 -0.50736,-16.37343 -0.38453,-21.23719c0.19281,-7.63372 3.99556,-9.55722 8.31978,-9.49028z" data-paper-data="{&quot;index&quot;:null}"/><path d="M173.96479,199.49764c0.62317,5.12032 -1.49649,9.75945 -11.47075,12.76831c-6.25656,1.88736 -22.23819,8.51321 -28.07026,7.81887c-3.46546,-0.41258 -4.74989,-14.43951 -1.78383,-16.90608c5.20811,-4.33104 21.24236,-7.53806 27.59737,-9.45512c9.97426,-3.00886 13.10428,0.6537 13.72745,5.77401z" data-paper-data="{&quot;index&quot;:null}"/></g><g data-paper-data="{&quot;index&quot;:null}" fill="#648a09"><path d="M112.7872,221.89479c-0.32004,4.85474 0.18714,17.0573 -2.30125,21.11441c-1.41717,2.31056 -12.97873,1.73942 -13.98017,-0.86644c-1.68535,-4.38544 0.57518,-16.64551 0.89026,-21.42503c0.5023,-7.61956 3.83511,-9.3526 8.08525,-9.02757c4.25016,0.32504 7.80822,2.58508 7.3059,10.20463z" data-paper-data="{&quot;index&quot;:null}"/><path d="M110.20198,231.80257c6.06359,2.48481 21.51024,7.13106 26.2295,11.91596c2.68767,2.72506 0.15636,16.57752 -3.28227,16.67447c-5.78691,0.16314 -20.87217,-7.88301 -26.84184,-10.32933c-9.51688,-3.89995 -11.17701,-8.71189 -10.10155,-13.75455c1.07547,-5.04266 4.47927,-8.4065 13.99615,-4.50656z" data-paper-data="{&quot;index&quot;:null}"/></g><path d="M155.21813,137.27241c-0.34154,7.47036 -0.88085,73.58914 -5.37472,79.90031c-2.55932,3.59427 -24.49867,3.07157 -26.53852,-0.90226c-3.4329,-6.68759 2.34782,-72.97974 2.68406,-80.33434c0.53603,-11.7248 6.75684,-14.49039 14.82825,-14.12138c8.07141,0.36901 14.93696,3.73288 14.40093,15.45768z" fill="#648a09"/><g data-paper-data="{&quot;index&quot;:null}" fill="#648a09"><path d="M117.20381,149.02165c-0.32004,4.85474 0.18714,17.05731 -2.30125,21.11441c-1.41716,2.31056 -12.97873,1.73942 -13.98017,-0.86644c-1.68535,-4.38543 0.57518,-16.64551 0.89026,-21.42503c0.5023,-7.61956 3.83511,-9.35259 8.08525,-9.02756c4.25016,0.32504 7.80821,2.58507 7.3059,10.20463z" data-paper-data="{&quot;index&quot;:null}"/><path d="M114.6186,158.92944c6.0636,2.48481 21.51024,7.13105 26.22949,11.91596c2.68767,2.72505 0.15636,16.57751 -3.28227,16.67447c-5.78691,0.16314 -20.87218,-7.88301 -26.84184,-10.32933c-9.51688,-3.89995 -11.17701,-8.71189 -10.10155,-13.75455c1.07547,-5.04266 4.47927,-8.4065 13.99616,-4.50656z" data-paper-data="{&quot;index&quot;:null}"/></g><path d="M320.60232,199.80477c-0.55564,-11.72389 6.30427,-15.09925 14.37505,-15.48175c8.07078,-0.38251 14.29622,2.37267 14.85186,14.09656c0.34854,7.35404 6.24014,73.63642 2.81843,80.32975c-2.0332,3.97724 -23.97165,4.53662 -26.53698,0.94664c-4.50442,-6.30364 -5.15434,-72.42143 -5.50837,-79.89121z" data-paper-data="{&quot;index&quot;:null}" fill="#648a09"/><g data-paper-data="{&quot;index&quot;:null}" fill="#648a09"><path d="M301.29784,134.77746c4.3241,-0.07417 8.13006,1.84296 8.33564,9.47635c0.13097,4.86355 1.78521,16.96546 -0.34901,21.2378c-1.21546,2.43315 -12.94887,2.94666 -14.20441,0.4459c-2.11298,-4.20859 -0.97655,-16.62682 -1.1055,-21.41501c-0.20557,-7.63339 2.99918,-9.67084 7.32328,-9.74503z" data-paper-data="{&quot;index&quot;:null}"/><path d="M294.23116,160.15737c0.6146,-5.12135 3.73849,-8.78914 13.71777,-5.79696c6.35821,1.90643 22.3978,5.08662 27.61315,9.40894c2.97018,2.46161 1.70922,16.49066 -1.75555,16.90904c-5.8309,0.70409 -21.82359,-5.89501 -28.0833,-7.7719c-9.97928,-2.99217 -12.1067,-7.62775 -11.49209,-12.7491z" data-paper-data="{&quot;index&quot;:null}"/></g><g data-paper-data="{&quot;index&quot;:null}" fill="#648a09"><path d="M359.67033,195.83641c0.14275,-7.63476 3.87891,-9.58634 8.14134,-9.5514c4.26241,0.03495 7.43701,2.04317 7.29424,9.67793c-0.08955,4.78906 1.12786,17.1962 -0.92171,21.4237c-1.21786,2.51201 -12.78636,2.10504 -14.00341,-0.31692c-2.13699,-4.25271 -0.60143,-16.36888 -0.51047,-21.23331z" data-paper-data="{&quot;index&quot;:null}"/><path d="M361.40987,205.92706c9.81215,-3.08256 12.91981,0.55663 13.56572,5.67209c0.6459,5.11545 -1.41455,9.77006 -11.2267,12.85263c-6.15489,1.9336 -21.86558,8.67746 -27.61806,8.02635c-3.41817,-0.38691 -4.77096,-14.40362 -1.86282,-16.89204c5.10637,-4.3694 20.89013,-7.69499 27.14185,-9.65901z" data-paper-data="{&quot;index&quot;:null}"/></g><path d="M316.91717,123.89417c-0.55564,-11.72389 6.30427,-15.09924 14.37505,-15.48175c8.07078,-0.38251 14.29621,2.37267 14.85185,14.09656c0.34854,7.35403 6.24014,73.63641 2.81843,80.32974c-2.0332,3.97724 -23.97164,4.53663 -26.53697,0.94665c-4.50442,-6.30364 -5.15433,-72.42143 -5.50837,-79.89121z" data-paper-data="{&quot;index&quot;:null}" fill="#648a09"/></g></g></svg>