<svg version="1.1" xmlns="http://www.w3.org/2000/svg" xmlns:xlink="http://www.w3.org/1999/xlink" width="953.15303" height="747.5632" viewBox="0,0,953.15303,747.5632"><defs><linearGradient x1="-85.06404" y1="187.31455" x2="-85.0644" y2="187.31592" gradientUnits="userSpaceOnUse" id="color-1"><stop offset="0" stop-color="#ff4600" stop-opacity="0"/><stop offset="1" stop-color="#ff4600"/></linearGradient><linearGradient x1="-85.06404" y1="187.31455" x2="-85.0644" y2="187.31592" gradientUnits="userSpaceOnUse" id="color-2"><stop offset="0" stop-color="#ff4600" stop-opacity="0"/><stop offset="1" stop-color="#ff4600"/></linearGradient><linearGradient x1="-85.06404" y1="187.31455" x2="-85.0644" y2="187.31592" gradientUnits="userSpaceOnUse" id="color-3"><stop offset="0" stop-color="#ff4600" stop-opacity="0"/><stop offset="1" stop-color="#ff4600"/></linearGradient><linearGradient x1="-85.06404" y1="187.31455" x2="-85.0644" y2="187.31592" gradientUnits="userSpaceOnUse" id="color-4"><stop offset="0" stop-color="#ff4600" stop-opacity="0"/><stop offset="1" stop-color="#ff4600"/></linearGradient><linearGradient x1="-85.06404" y1="187.31455" x2="-85.0644" y2="187.31592" gradientUnits="userSpaceOnUse" id="color-5"><stop offset="0" stop-color="#ff4600" stop-opacity="0"/><stop offset="1" stop-color="#ff4600"/></linearGradient><linearGradient x1="-85.06404" y1="187.31455" x2="-85.0644" y2="187.31592" gradientUnits="userSpaceOnUse" id="color-6"><stop offset="0" stop-color="#ff4600" stop-opacity="0"/><stop offset="1" stop-color="#ff4600"/></linearGradient><linearGradient x1="-85.06404" y1="187.31455" x2="-85.0644" y2="187.31592" gradientUnits="userSpaceOnUse" id="color-7"><stop offset="0" stop-color="#ff4600" stop-opacity="0"/><stop offset="1" stop-color="#ff4600"/></linearGradient><linearGradient x1="-85.06404" y1="187.31455" x2="-85.0644" y2="187.31592" gradientUnits="userSpaceOnUse" id="color-8"><stop offset="0" stop-color="#ff4600" stop-opacity="0"/><stop offset="1" stop-color="#ff4600"/></linearGradient><linearGradient x1="213.32047" y1="272.907" x2="203.59649" y2="309.55235" gradientUnits="userSpaceOnUse" id="color-9"><stop offset="0" stop-color="#ff4600" stop-opacity="0"/><stop offset="1" stop-color="#ff4600"/></linearGradient><linearGradient x1="102.96949" y1="113.56753" x2="89.03053" y2="196.4325" gradientUnits="userSpaceOnUse" id="color-10"><stop offset="0" stop-color="#000000"/><stop offset="1" stop-color="#464646"/></linearGradient></defs><g transform="translate(182.91865,61)"><g data-paper-data="{&quot;isPaintingLayer&quot;:true}" fill-rule="nonzero" stroke-linecap="butt" stroke-linejoin="miter" stroke-miterlimit="10" stroke-dasharray="" stroke-dashoffset="0" style="mix-blend-mode: normal"><path d="M-122.76562,623v-684h893v684z" fill="#ffffff" stroke="none" stroke-width="0"/><g stroke-width="0"><g data-paper-data="{&quot;index&quot;:null}" stroke="#000000"><path d="" fill="#00e727"/><path d="" fill="#00bb1f"/><path d="" fill="#009118"/></g><g stroke="#000000"><path d="" fill="#00e727"/><path d="" fill="#00bb1f"/><path d="" fill="#009118"/></g><g stroke="#000000"><path d="" fill="#00e727"/><path d="" fill="#00bb1f"/><path d="" fill="#009118"/></g><g stroke="#000000"><path d="" fill="#00e727"/><path d="" fill="#00bb1f"/><path d="" fill="#009118"/></g><g data-paper-data="{&quot;index&quot;:null}" fill="#888888" stroke="#000000"><path d=""/><path d=""/><path d=""/></g><g fill="#888888" stroke="#000000"><path d=""/><path d=""/><path d=""/></g><g fill="#888888" stroke="#000000"><path d=""/><path d=""/><path d=""/></g><g fill="#888888" stroke="#000000"><path d=""/><path d=""/><path d=""/></g><path d="M59.88426,414.62487l34.22839,-128.99159l219.57257,40.78312l-34.22839,128.99159z" fill="#ff4600" stroke="none"/><g><g data-paper-data="{&quot;index&quot;:null}" fill="url(#color-1)" stroke="#000000"><path d=""/><path d=""/><path d=""/></g><g fill="url(#color-2)" stroke="#000000"><path d=""/><path d=""/><path d=""/></g><g fill="url(#color-3)" stroke="#000000"><path d=""/><path d=""/><path d=""/></g><g fill="url(#color-4)" stroke="#000000"><path d=""/><path d=""/><path d=""/></g><g data-paper-data="{&quot;index&quot;:null}" fill="url(#color-5)" stroke="#000000"><path d=""/><path d=""/><path d=""/></g><g fill="url(#color-6)" stroke="#000000"><path d=""/><path d=""/><path d=""/></g><g fill="url(#color-7)" stroke="#000000"><path d=""/><path d=""/><path d=""/></g><g fill="url(#color-8)" stroke="#000000"><path d=""/><path d=""/><path d=""/></g><path d="M93.81021,289.16078l9.72398,-36.64533l219.57257,40.78312l-9.72398,36.64533z" fill="url(#color-9)" stroke="none"/></g></g><path d="M50.0571,174.84424c3.13598,-18.64291 8.33295,-49.53811 9.83424,-58.46302c0.80322,-4.77504 8.22067,-8.67717 14.04354,-7.69769c8.76302,1.47405 34.54197,5.8104 52.36253,8.80805c10.41018,1.75113 16.9007,10.20216 15.8603,16.38721c-1.56088,9.27921 -6.12145,36.39108 -9.0646,53.88765c-1.53504,9.12558 -7.92284,14.74523 -16.15931,13.35975c-9.97619,-1.67812 -40.36059,-6.78917 -55.92115,-9.40666c-7.89579,-1.32817 -12.40533,-8.25659 -10.95555,-16.87529z" data-paper-data="{&quot;index&quot;:null}" fill="url(#color-10)" stroke="#000000" stroke-width="0"/><g data-paper-data="{&quot;index&quot;:null}" stroke="#000000" stroke-width="0"><path d="M300.14072,335.14835l18.43851,-95.80005l187.09511,-50.92033l-34.57221,179.6251z" fill="#00e727"/><path d="M294.32798,363.83425l18.43851,-95.80005l187.09511,-50.92033l-34.57221,179.6251z" fill="#00bb1f"/><path d="M288.56595,393.77176l18.43851,-95.80005l187.09511,-50.92033c0,0 63.77549,171.31864 58.07486,200.93708c-5.82093,30.24353 -92.64707,-21.31198 -92.64707,-21.31198z" fill="#009118"/></g><g stroke="none" stroke-width="0"><path d="M1.09931,348.33066l98.97461,-139.28284l10.93993,170.97855z" data-paper-data="{&quot;index&quot;:null}" fill="#b9b9b9"/><path d="M100.26392,213.42306l10.93993,170.97855l-58.28389,-16.80714z" data-paper-data="{&quot;index&quot;:null}" fill="#979797"/></g><g stroke="#000000" stroke-width="0"><path d="M-178.81007,486.3701l34.57221,-179.6251l728.0804,140.13268l-34.57221,179.6251z" fill="#00e727"/><path d="M-180.74912,515.80156l34.57221,-179.6251l728.0804,140.13268l-34.57221,179.6251z" fill="#00bb1f"/><path d="M-182.91865,546.43052l34.57221,-179.6251l728.0804,140.13268l-34.57221,179.6251z" fill="#009118"/></g><g stroke="none" stroke-width="0"><path d="M-117.72986,261.30338c0,-49.52655 40.1492,-89.67575 89.67575,-89.67575c49.52655,0 89.67575,40.1492 89.67575,89.67575c0,49.52655 -40.1492,89.67575 -89.67575,89.67575c-49.52655,0 -89.67575,-40.1492 -89.67575,-89.67575z" fill="#00e727"/><path d="M-103.24805,261.30338c0,-41.52847 33.66548,-75.19395 75.19395,-75.19395c41.52847,0 75.19395,33.66548 75.19395,75.19395c0,41.52847 -33.66548,75.19395 -75.19395,75.19395c-41.52847,0 -75.19395,-33.66548 -75.19395,-75.19395z" fill="#00bb1f"/><path d="M-91.55122,261.30338c0,-35.06849 28.42863,-63.49711 63.49711,-63.49711c35.06849,0 63.49711,28.42863 63.49711,63.49711c0,35.06849 -28.42863,63.49711 -63.49711,63.49711c-35.06849,0 -63.49711,-28.42863 -63.49711,-63.49711z" fill="#009118"/></g><text transform="translate(61.14789,49.87905) rotate(15.72828) scale(1.08505,1.08505)" font-size="40" xml:space="preserve" fill="#000000" fill-rule="nonzero" stroke="#000000" stroke-width="4" stroke-linecap="butt" stroke-linejoin="miter" stroke-miterlimit="10" stroke-dasharray="" stroke-dashoffset="0" font-family="Sans Serif" font-weight="normal" text-anchor="start" style="mix-blend-mode: normal"><tspan x="0" dy="0">Platformer Engine!</tspan></text><text transform="translate(2.57202,301.18324) rotate(5.70545) scale(0.49035,0.49035)" font-size="40" xml:space="preserve" fill="#000000" fill-rule="nonzero" stroke="#000000" stroke-width="4" stroke-linecap="butt" stroke-linejoin="miter" stroke-miterlimit="10" stroke-dasharray="" stroke-dashoffset="0" font-family="&quot;ヒラギノ角ゴ Pro W3&quot;, &quot;Hiragino Kaku Gothic Pro&quot;, Osaka, &quot;メイリオ&quot;, Meiryo, &quot;ＭＳ Ｐゴシック&quot;, &quot;MS PGothic&quot;" font-weight="normal" text-anchor="start" style="mix-blend-mode: normal"><tspan x="0" dy="0">Wall / Slope/ Ceiling Detection,Lava,Spikes,Ducking </tspan><tspan x="0" dy="48px">and MOBILE Controls!</tspan></text></g></g></svg>